<svg width="138" height="32" viewBox="0 0 138 32" fill="none" xmlns="http://www.w3.org/2000/svg">
<g clip-path="url(#clip0_310_782)">
<path d="M0 7.76713V0.88147H29.8878V7.77267H20.2477V30.991H9.64015V7.76713H0Z" fill="#00467E"/>
<path d="M62.1518 30.9854H36.1279V0.88147H62.1518V7.77267H46.7921V12.4241H59.5437V19.3097H46.7921V24.0554H62.1518V30.9854V30.9854Z" fill="#00467E"/>
<path d="M79.9441 21.8655C81.3924 23.4622 83.4856 24.4158 85.9975 24.4158C87.6721 24.4158 89.2109 24.3271 90.5573 24.1441C92.1866 23.9612 93.6802 23.5953 95.1172 23.2793L94.2855 30.8967C93.8669 30.9411 80.9172 33.6355 73.0082 27.9307C69.4271 25.3306 67.1868 21.361 67.1868 15.8891C67.1868 10.5946 69.4214 6.58073 73.0082 4.02495C77.0079 1.14761 81.2001 -0.171866 94.2855 1.0589L95.1172 8.67636C93.6745 8.35481 92.1866 8.0388 90.5573 7.8115C89.2109 7.62855 87.6721 7.5343 85.9975 7.5343C83.48 7.5343 81.3924 8.49341 79.9441 10.1344C78.5524 11.6369 77.8056 13.738 77.8056 15.9279C77.8056 18.2121 78.5467 20.3132 79.9441 21.8655Z" fill="#00467E"/>
<path d="M132.031 4.06376C128.546 1.35828 123.636 0 118.25 0C113.057 0 108.338 1.16978 104.859 3.73666C101.238 6.39778 98.9924 10.5114 98.9924 15.9778C98.9924 21.2557 100.995 25.2252 104.378 27.8863C107.908 30.6417 112.819 32 118.25 32C123.591 32 128.456 30.7415 131.935 28.0305C135.369 25.3694 137.513 21.35 137.513 15.9778C137.513 10.6999 135.409 6.72488 132.031 4.06376ZM123.483 21.034C122.131 22.2037 120.304 22.8635 118.267 22.8635C116.196 22.8635 114.29 22.1594 112.977 20.9508C111.625 19.7034 110.828 18.0236 110.828 16C110.828 13.9321 111.625 12.2578 112.977 11.0492C114.33 9.8018 116.202 9.13652 118.267 9.13652C120.338 9.13652 122.205 9.8018 123.562 11.0492C124.875 12.2578 125.667 13.9709 125.667 16C125.673 18.0679 124.835 19.8198 123.483 21.034Z" fill="url(#paint0_radial_310_782)"/>
<path d="M99.8863 21.5884C100.011 11.6037 107.213 7.22393 113.272 7.22393C115.772 7.22393 118.193 8.02227 120.196 9.34729C121.413 9.6134 122.504 10.1401 123.398 10.9051C121.509 6.42005 116.994 3.30432 111.925 3.30432C103.926 3.30432 99.0037 10.1567 99.0037 15.9779V15.9835C98.9924 18.0569 99.3036 19.9252 99.8863 21.5884Z" fill="#00467E"/>
<path d="M111.224 31.1463C108.785 28.9897 107.212 25.8962 107.099 22.4256C106.969 18.4007 108.83 14.7638 111.818 12.4298C112.14 11.9197 112.525 11.454 112.983 11.0493C114.245 9.88507 115.964 9.23642 117.871 9.15326C112.768 8.18306 107.382 10.4118 104.638 15.0687C102.013 19.5261 102.562 24.9204 105.6 28.7458C107.258 29.8102 109.153 30.6086 111.224 31.1463Z" fill="#00467E"/>
<path d="M119.183 28.6348C115.998 26.9605 113.854 24.1331 112.994 20.9619C112.989 20.9564 112.989 20.9564 112.983 20.9508C111.631 19.7034 110.833 18.0236 110.833 16C110.833 15.9945 110.833 15.9889 110.833 15.9834C109.294 19.4373 109.379 23.5288 111.45 27.0381C112.757 29.2613 114.669 30.93 116.864 31.9612C117.322 31.9834 117.786 31.9945 118.25 31.9945C123.319 31.9945 127.964 30.8524 131.398 28.4186C127.76 30.4921 123.155 30.7194 119.183 28.6348Z" fill="#00467E"/>
<path d="M136.608 10.4283C136.829 14.7471 134.719 19.0437 130.708 21.4831C127.392 23.5011 123.495 23.8116 120.066 22.6751C119.489 22.7915 118.889 22.8636 118.273 22.8636C117.288 22.8636 116.344 22.7028 115.478 22.4034C117.764 25.3473 121.373 27.2544 125.441 27.2544C130.9 27.2544 135.545 23.8282 137.259 19.0548C137.423 18.0846 137.513 17.059 137.513 15.9779C137.513 13.9322 137.191 12.0805 136.608 10.4283Z" fill="#00467E"/>
<path d="M130.153 8.12751C130.283 12.2024 128.377 15.8725 125.333 18.201C124.971 19.3209 124.326 20.28 123.489 21.034C123.257 21.2335 123.008 21.4165 122.748 21.5828C126.719 21.2723 130.476 19.1213 132.62 15.4844C134.458 12.3631 134.741 8.7817 133.7 5.60499C133.185 5.05059 132.631 4.54054 132.031 4.0693C130.877 3.17117 129.559 2.42273 128.122 1.82397C129.338 3.63686 130.074 5.79348 130.153 8.12751Z" fill="#00467E"/>
<path d="M118.069 1.91828C122.171 4.0749 124.547 8.1442 124.671 12.3964C125.305 13.4165 125.667 14.6307 125.667 15.9945C127.947 12.2911 128.162 7.51218 125.797 3.50386C125.09 2.30636 124.207 1.26963 123.2 0.404763C121.616 0.133107 119.953 -0.00549316 118.239 -0.00549316C116.343 -0.00549316 114.516 0.149739 112.779 0.476835C114.584 0.571083 116.383 1.03678 118.069 1.91828Z" fill="#00467E"/>
</g>
<defs>
<radialGradient id="paint0_radial_310_782" cx="0" cy="0" r="1" gradientUnits="userSpaceOnUse" gradientTransform="translate(120.898 13.8567) scale(21.3466 20.9189)">
<stop offset="0.5475" stop-color="#E9511D"/>
<stop offset="0.5711" stop-color="#D7542D"/>
<stop offset="0.6626" stop-color="#965759"/>
<stop offset="0.7437" stop-color="#5E536F"/>
<stop offset="0.8114" stop-color="#2D4C79"/>
<stop offset="0.8632" stop-color="#00477D"/>
<stop offset="0.8929" stop-color="#00467E"/>
</radialGradient>
<clipPath id="clip0_310_782">
<rect width="137.514" height="32" fill="white"/>
</clipPath>
</defs>
</svg>
