<svg width="165" height="48" viewBox="0 0 165 48" fill="none" xmlns="http://www.w3.org/2000/svg">
<path d="M0 8C0 3.58172 3.58172 0 8 0H156.103C160.521 0 164.103 3.58172 164.103 8V40C164.103 44.4183 160.521 48 156.103 48H8C3.58172 48 0 44.4183 0 40V8Z" fill="#1DA3F4" fill-opacity="0.1"/>
<path d="M20.0003 17.7188C24.1295 17.7188 27.4769 21.0661 27.4769 25.1953V30.6562C27.4769 30.8552 27.3979 31.0459 27.2572 31.1866C27.1166 31.3272 26.9258 31.4062 26.7269 31.4062H13.2738C13.0749 31.4062 12.8841 31.3272 12.7434 31.1866C12.6028 31.0459 12.5238 30.8552 12.5238 30.6562V25.1953C12.5238 21.0661 15.8711 17.7188 20.0003 17.7188ZM19.3441 13.5938H20.6566C20.7063 13.5938 20.754 13.6135 20.7892 13.6487C20.8243 13.6838 20.8441 13.7315 20.8441 13.7812V16.0312C20.8441 16.081 20.8243 16.1287 20.7892 16.1638C20.754 16.199 20.7063 16.2188 20.6566 16.2188H19.3441C19.2944 16.2188 19.2467 16.199 19.2115 16.1638C19.1763 16.1287 19.1566 16.081 19.1566 16.0312V13.7812C19.1566 13.7315 19.1763 13.6838 19.2115 13.6487C19.2467 13.6135 19.2944 13.5938 19.3441 13.5938ZM12.1546 16.492C12.1721 16.4746 12.1927 16.4608 12.2155 16.4513C12.2383 16.4419 12.2627 16.437 12.2873 16.437C12.3119 16.437 12.3363 16.4419 12.3591 16.4513C12.3819 16.4608 12.4025 16.4746 12.42 16.492L14.0109 18.083C14.046 18.1181 14.0658 18.1658 14.0658 18.2155C14.0658 18.2652 14.046 18.3129 14.0109 18.348L13.0828 19.2762C13.0476 19.3113 12.9999 19.331 12.9502 19.331C12.9005 19.331 12.8528 19.3113 12.8177 19.2762L11.2267 17.6852C11.1916 17.6501 11.1719 17.6024 11.1719 17.5527C11.1719 17.503 11.1916 17.4553 11.2267 17.4202L12.1549 16.492H12.1546ZM27.8484 16.492L28.7765 17.4202C28.8116 17.4553 28.8313 17.5029 28.8313 17.5526C28.8313 17.6022 28.8116 17.6498 28.7765 17.685L27.1856 19.2764C27.1681 19.2938 27.1475 19.3077 27.1247 19.3171C27.1019 19.3265 27.0775 19.3314 27.0529 19.3314C27.0283 19.3314 27.0039 19.3265 26.9811 19.3171C26.9583 19.3077 26.9377 19.2938 26.9203 19.2764L25.9921 18.3483C25.9747 18.3309 25.9609 18.3102 25.9514 18.2874C25.942 18.2647 25.9371 18.2403 25.9371 18.2156C25.9371 18.191 25.942 18.1666 25.9514 18.1438C25.9609 18.1211 25.9747 18.1004 25.9921 18.083L27.5833 16.492C27.6185 16.4569 27.6661 16.4372 27.7158 16.4372C27.7655 16.4372 27.8132 16.4569 27.8484 16.492ZM12.5003 32.9062H27.5003C27.6992 32.9062 27.89 32.9853 28.0307 33.1259C28.1713 33.2666 28.2503 33.4573 28.2503 33.6562V34.2188C28.2503 34.2685 28.2306 34.3162 28.1954 34.3513C28.1602 34.3865 28.1126 34.4062 28.0628 34.4062H11.9378C11.8881 34.4062 11.8404 34.3865 11.8053 34.3513C11.7701 34.3162 11.7503 34.2685 11.7503 34.2188V33.6562C11.7503 33.4573 11.8294 33.2666 11.97 33.1259C12.1107 32.9853 12.3014 32.9062 12.5003 32.9062ZM15.9691 25.4766V31.4062H17.4691V25.4766H15.9691Z" fill="#004584"/>
<path d="M48.896 23.752V24.744H54.128V23.752H48.896ZM48.32 18.312V32.264H49.424V19.384H54.016V18.312H48.32ZM53.44 18.312V21.384C53.44 21.56 53.376 21.624 53.12 21.64C52.864 21.656 52.032 21.656 51.04 21.624C51.2 21.928 51.36 22.36 51.408 22.68C52.64 22.68 53.44 22.664 53.936 22.488C54.432 22.312 54.56 21.992 54.56 21.4V18.312H53.44ZM50.448 24.296L49.504 24.552C50.448 27.864 52.224 30.792 54.704 32.184C54.896 31.88 55.264 31.432 55.536 31.208C53.12 30.024 51.312 27.304 50.448 24.296ZM53.76 23.752V24.008C53.248 26.952 51.648 29.944 49.152 31.496C49.424 31.704 49.776 32.04 49.952 32.312C52.624 30.584 54.288 27.432 54.928 23.96L54.192 23.688L53.984 23.752H53.76ZM41.232 19.208V20.248H47.312V19.208H41.232ZM40.736 27.976V29.016H47.728V27.976H40.736ZM40.752 21.848V22.904H47.696V21.848H40.752ZM41.088 25.176V26.216H47.424V25.176H41.088ZM43.744 17.592V22.216H44.864V17.592H43.744ZM43.744 25.592V32.232H44.864V25.592H43.744ZM45.84 22.904C45.568 23.672 45.008 24.776 44.544 25.464L45.44 25.736C45.904 25.08 46.432 24.072 46.896 23.176L45.84 22.904ZM41.824 23.224C42.16 23.848 42.496 24.68 42.592 25.208L43.536 24.888C43.424 24.376 43.072 23.56 42.72 22.952L41.824 23.224ZM59.632 31.176V31.912H68.32V31.176H59.632ZM59.216 27.976V28.696H68.8V27.976H59.216ZM59.216 26.584V27.32H68.8V26.584H59.216ZM56.736 25.016V25.896H71.264V25.016H56.736ZM59.104 29.4V32.296H60.24V30.12H67.728V32.28H68.912V29.4H59.104ZM65.968 18.888V19.768H71.168V18.888H65.968ZM58.416 20.136V20.856H63.056V20.136H58.416ZM66.16 17.544C65.712 18.92 64.88 20.184 63.856 21.016C64.096 21.176 64.512 21.496 64.688 21.672C65.712 20.728 66.64 19.304 67.152 17.768L66.16 17.544ZM69.12 19.256C68.496 21.496 66.56 22.728 64 23.352C64.208 23.56 64.512 23.992 64.592 24.2C67.28 23.384 69.376 21.992 70.16 19.368L69.12 19.256ZM58.24 21.384V22.04H60.688V23H58.24V23.672H61.568V21.384H58.24ZM62.72 20.136V20.296C62.608 22.424 62.48 23.208 62.32 23.416C62.24 23.528 62.128 23.56 61.968 23.56C61.824 23.56 61.488 23.56 61.088 23.512C61.2 23.736 61.296 24.104 61.312 24.344C61.744 24.376 62.192 24.36 62.432 24.344C62.768 24.328 62.992 24.232 63.184 24.008C63.472 23.672 63.616 22.824 63.728 20.552C63.744 20.408 63.744 20.136 63.744 20.136H62.72ZM58.4 19.544C58.08 20.312 57.472 21.176 56.528 21.832C56.752 21.96 57.072 22.248 57.232 22.472C58.272 21.672 58.944 20.696 59.344 19.688L58.4 19.544ZM57.872 21.384V24.088H58.736V21.384H57.872ZM62.96 24.168C63.216 24.616 63.504 25.24 63.616 25.64L64.816 25.336C64.688 24.952 64.4 24.344 64.096 23.912L62.96 24.168ZM56.992 18.296V19.096H59.68V18.296H56.992ZM59.168 17.592V19.624H60.144V17.592H59.168ZM61.328 17.592V19.816H62.32V17.592H61.328ZM61.68 18.296V19.096H64.496V18.296H61.68ZM65.568 21.16C67.264 22.024 69.344 23.336 70.352 24.264L71.04 23.448C69.984 22.536 67.872 21.272 66.208 20.456L65.568 21.16ZM79.472 18.392V19.608H85.152V25.592H86.368V18.392H79.472ZM80.432 23.64V24.808H85.744V23.64H80.432ZM79.824 23.64V30.184C79.824 31.688 80.352 32.056 82 32.056C82.352 32.056 84.928 32.056 85.296 32.056C86.848 32.056 87.216 31.384 87.376 29.048C87.024 28.952 86.512 28.744 86.224 28.536C86.128 30.552 86.016 30.936 85.216 30.936C84.672 30.936 82.528 30.936 82.112 30.936C81.232 30.936 81.072 30.808 81.072 30.184V23.64H79.824ZM76.944 23.864C77.408 24.92 77.872 26.296 78.064 27.144L79.056 26.744C78.864 25.928 78.352 24.568 77.872 23.544L76.944 23.864ZM75.36 27.976C75.552 29.112 75.728 30.584 75.776 31.56L76.8 31.32C76.752 30.344 76.56 28.888 76.352 27.768L75.36 27.976ZM73.552 27.864C73.36 29.16 73.072 30.6 72.656 31.576C72.928 31.656 73.44 31.816 73.664 31.944C74.032 30.952 74.384 29.432 74.592 28.056L73.552 27.864ZM73.072 23.56C73.072 23.32 73.824 22.952 73.824 22.952V22.92C74.944 21.624 76.096 19.784 76.992 17.976L75.888 17.496C75.168 19.256 73.968 21.112 73.616 21.576C73.264 22.056 72.976 22.392 72.688 22.456C72.816 22.76 73.008 23.32 73.072 23.56ZM73.072 23.56C73.328 23.432 73.792 23.336 76.464 23.032C76.448 22.792 76.496 22.344 76.56 22.04L73.616 22.296L73.04 22.648L73.072 23.56ZM73.168 27.16C73.168 26.92 73.952 26.552 73.952 26.552V26.52C75.552 24.984 77.184 22.824 78.496 20.648L77.44 20.008C76.336 22.168 74.576 24.424 74.032 24.984C73.52 25.56 73.136 25.96 72.784 26.04C72.912 26.344 73.12 26.92 73.168 27.16ZM73.168 27.16C73.504 26.984 74.048 26.872 78.112 26.232C78.096 25.992 78.112 25.544 78.144 25.24L73.728 25.848L73.12 26.248L73.168 27.16ZM77.2 27.656C77.552 28.648 77.968 29.944 78.128 30.808L79.104 30.456C78.928 29.624 78.512 28.344 78.128 27.352L77.2 27.656ZM89.68 21.64V22.68H93.632V21.64H89.68ZM88.848 24.44V25.48H94.224V24.44H88.848ZM89.008 26.456C89.248 27.4 89.504 28.632 89.584 29.448L90.48 29.208C90.384 28.408 90.128 27.192 89.856 26.264L89.008 26.456ZM88.576 30.648L88.848 31.736C90.384 31.448 92.464 31.032 94.448 30.616L94.384 29.64C92.208 30.04 90 30.424 88.576 30.648ZM93.504 26.088C93.392 26.952 93.104 28.248 92.896 29.032L93.584 29.256C93.824 28.504 94.112 27.32 94.352 26.344L93.504 26.088ZM91.232 22.088V30.872L92.24 30.696V22.088H91.232ZM91.52 17.576C90.8 19.128 89.568 20.6 88.336 21.576C88.512 21.848 88.752 22.456 88.816 22.696C90.224 21.528 91.632 19.72 92.48 17.912L91.52 17.576ZM91.312 18.792C92.304 19.736 93.616 21.064 94.256 21.864L94.96 21.048C94.304 20.312 92.96 19.032 91.968 18.12L91.312 18.792ZM102.144 25.24C101.648 25.912 100.768 26.84 100.144 27.384L100.8 28.024C101.456 27.496 102.304 26.68 102.976 25.928L102.144 25.24ZM94.96 25.864C95.584 26.504 96.384 27.416 96.736 27.976L97.584 27.32C97.2 26.776 96.4 25.912 95.76 25.288L94.96 25.864ZM96.752 18.968V19.928H101.136V18.968H96.752ZM96.192 21.432V22.376H100.752V21.432H96.192ZM94.464 23.576V24.648H103.328V23.576H94.464ZM98.336 24.168V31.032C98.336 31.192 98.288 31.24 98.096 31.256C97.904 31.256 97.328 31.272 96.672 31.24C96.832 31.544 96.976 31.992 97.024 32.296C97.92 32.296 98.544 32.264 98.928 32.104C99.344 31.928 99.44 31.624 99.44 31.032V24.168H98.336ZM94.224 30.392L94.88 31.288C95.728 30.648 96.768 29.864 97.712 29.096L97.36 28.216C96.192 29.064 95.024 29.896 94.224 30.392ZM96.72 17.56C96.384 19.08 95.872 21.144 95.44 22.376H96.624C96.992 21.192 97.504 19.224 97.84 17.688L96.72 17.56ZM100.8 18.968V19.128C100.624 20.216 100.192 22.36 99.824 23.912L100.928 24.04C101.296 22.52 101.712 20.504 101.952 19.048L101.12 18.92L100.928 18.968H100.8ZM99.808 28.808C100.8 29.544 102.064 30.6 102.672 31.256L103.36 30.424C102.736 29.8 101.456 28.776 100.464 28.088L99.808 28.808Z" fill="#004584"/>
</svg>
