<svg width="165" height="48" viewBox="0 0 165 48" fill="none" xmlns="http://www.w3.org/2000/svg">
<path d="M0 8C0 3.58172 3.58172 0 8 0H156.103C160.521 0 164.103 3.58172 164.103 8V40C164.103 44.4183 160.521 48 156.103 48H8C3.58172 48 0 44.4183 0 40V8Z" fill="#1DA3F4" fill-opacity="0.1"/>
<path d="M28 22V20C28 19.4696 27.7893 18.9609 27.4142 18.5858C27.0391 18.2107 26.5304 18 26 18H12C11.4696 18 10.9609 18.2107 10.5858 18.5858C10.2107 18.9609 10 19.4696 10 20V28C10 28.5304 10.2107 29.0391 10.5858 29.4142C10.9609 29.7893 11.4696 30 12 30H26C26.5304 30 27.0391 29.7893 27.4142 29.4142C27.7893 29.0391 28 28.5304 28 28V26H30V22H28ZM17 29L19 25.11L15 24L21 19L20 22.89L24 24L17 29Z" fill="#004584"/>
<path d="M43.184 27.16V27.976H52.768V27.16H43.184ZM43.216 25.192V26.056H52.272V29.08H43.216V29.96H53.456V25.192H43.216ZM47.312 25.624V30.44C47.312 31.752 47.824 32.072 49.616 32.072C50.016 32.072 52.912 32.072 53.328 32.072C54.848 32.072 55.216 31.56 55.392 29.624C55.056 29.56 54.608 29.4 54.336 29.208C54.256 30.824 54.112 31.096 53.248 31.096C52.624 31.096 50.16 31.096 49.68 31.096C48.656 31.096 48.464 31 48.464 30.44V25.624H47.312ZM42.592 25.192V30.792H43.744V25.192H42.592ZM41.904 18.2V19.064H54.048V18.2H41.904ZM47.344 18.424V24.584H48.528V18.424H47.344ZM41.2 20.088V23.528H42.352V20.936H53.6V23.528H54.8V20.088H41.2ZM42.64 23.72L43.008 24.648C44.048 24.44 45.264 24.2 46.496 23.944L46.464 23.176C45.04 23.4 43.664 23.608 42.64 23.72ZM43.056 21.896C44.096 22.104 45.44 22.52 46.16 22.824L46.512 22.104C45.792 21.784 44.432 21.432 43.408 21.256L43.056 21.896ZM52.448 21.176C51.664 21.464 50.32 21.944 49.392 22.152L49.824 22.776C50.752 22.584 52.064 22.248 52.976 21.864L52.448 21.176ZM49.2 23.832C50.448 24.008 52.08 24.392 52.96 24.696L53.232 23.88C52.336 23.576 50.72 23.224 49.488 23.096L49.2 23.832ZM57.488 18.616C58.464 19.128 59.744 19.88 60.4 20.344L61.104 19.368C60.432 18.92 59.12 18.216 58.176 17.768L57.488 18.616ZM56.624 23.032C57.536 23.528 58.8 24.248 59.408 24.68L60.08 23.688C59.44 23.272 58.176 22.584 57.28 22.152L56.624 23.032ZM57.168 31.256L58.208 32.04C59.104 30.552 60.176 28.552 60.976 26.856L60.08 26.104C59.2 27.928 57.984 30.04 57.168 31.256ZM65.888 17.592V28.712H66.976V17.592H65.888ZM60.336 24.184L60.784 25.24L70.384 21.496L69.92 20.456L60.336 24.184ZM62.384 19.176V29.912C62.384 31.688 62.944 32.136 64.848 32.136C65.28 32.136 68.624 32.136 69.072 32.136C70.832 32.136 71.216 31.416 71.424 29.192C71.088 29.128 70.608 28.92 70.32 28.728C70.192 30.6 70.032 31.048 69.04 31.048C68.336 31.048 65.424 31.048 64.864 31.048C63.728 31.048 63.52 30.84 63.52 29.928V19.176H62.384ZM69.584 20.84C69.568 23.112 69.488 26.2 69.296 27.96L70.272 28.248C70.56 26.344 70.704 23.272 70.752 20.952L70.816 20.744L69.904 20.456L69.408 20.84H69.584ZM76.048 25.928H84.112V27.016H76.048V25.928ZM76.048 27.8H84.112V28.92H76.048V27.8ZM76.048 24.056H84.112V25.144H76.048V24.056ZM74.88 23.256V29.72H85.312V23.256H74.88ZM81.52 30.472C83.248 31.032 84.976 31.72 86 32.232L87.072 31.544C85.936 31.032 84.064 30.328 82.32 29.8L81.52 30.472ZM77.568 29.816C76.416 30.456 74.496 31.016 72.848 31.368C73.12 31.576 73.536 32.04 73.728 32.264C75.328 31.832 77.36 31.096 78.656 30.328L77.568 29.816ZM79.408 18.648V19.592H86V18.648H79.408ZM79.664 17.528C79.296 18.68 78.624 19.816 77.792 20.584C78.064 20.728 78.512 21.016 78.704 21.192C79.536 20.376 80.304 19.08 80.736 17.768L79.664 17.528ZM81.568 19.24V19.752C81.568 20.568 81.168 21.672 77.008 22.216C77.216 22.44 77.536 22.856 77.648 23.144C82.16 22.44 82.672 21 82.672 19.784V19.24H81.568ZM82.512 20.184L81.664 20.392C82.544 21.816 84.384 22.728 86.688 23.064C86.832 22.76 87.136 22.328 87.376 22.088C85.152 21.896 83.328 21.224 82.512 20.184ZM73.12 18.52V19.464H76.976V18.52H73.12ZM72.768 21.016V21.992H77.376V21.016H72.768ZM85.6 18.648V18.824C85.312 19.512 84.864 20.328 84.496 20.856L85.44 21.192C85.888 20.616 86.4 19.688 86.8 18.872L85.984 18.6L85.808 18.648H85.6ZM89.392 22.408V23.368H93.936V22.408H89.392ZM89.392 24.504V25.464H93.952V24.504H89.392ZM88.752 20.28V21.288H94.544V20.28H88.752ZM89.872 26.648V27.656H92.96V30.312H89.872V31.32H93.936V26.648H89.872ZM89.392 26.648V32.072H90.352V26.648H89.392ZM90.448 17.976C90.864 18.632 91.36 19.544 91.568 20.136L92.496 19.56C92.24 19 91.76 18.152 91.312 17.496L90.448 17.976ZM94.528 24.376V25.512H99.952V24.376H94.528ZM100.512 18.472C100.512 25.624 100.352 31.464 102.016 31.992C102.768 32.296 103.296 31.784 103.472 29.528C103.296 29.352 102.96 28.936 102.768 28.648C102.704 29.8 102.592 30.824 102.496 30.792C101.584 30.568 101.632 24.984 101.712 18.472H100.512ZM96.704 19.208V32.28H97.824V19.208H96.704ZM94.704 18.472V19.624H101.056V18.472H94.704Z" fill="#004584"/>
</svg>
