<svg width="61" height="61" viewBox="0 0 61 61" fill="none" xmlns="http://www.w3.org/2000/svg">
<rect x="0.5" y="0.5" width="60" height="60" rx="8" fill="#7B61FF"/>
<path d="M41.51 14.5H36.5V12.5C36.5 11.4 35.15 10.5 33.5 10.5H27.5C25.85 10.5 24.5 11.4 24.5 12.5V14.5H19.49C17.3 14.5 15.5 15.7 15.5 17.16V47.82C15.5 49.3 17.3 50.5 19.52 50.5H41.48C43.7 50.5 45.5 49.3 45.5 47.84V17.16C45.5 15.7 43.7 14.5 41.51 14.5ZM38.33 32.98L30.32 42.98C29.6 43.88 27.5 43.54 27.5 42.5V35.5H23.99C23.7293 35.5005 23.4728 35.4556 23.246 35.3699C23.0192 35.2842 22.8299 35.1605 22.6966 35.0111C22.5633 34.8617 22.4908 34.6917 22.4861 34.5179C22.4815 34.3441 22.5448 34.1725 22.67 34.02L30.68 24.02C31.4 23.12 33.5 23.46 33.5 24.5V31.5H37.01C38.12 31.5 38.87 32.3 38.33 32.98Z" fill="white"/>
</svg>
