<svg width="165" height="48" viewBox="0 0 165 48" fill="none" xmlns="http://www.w3.org/2000/svg">
<path fill-rule="evenodd" clip-rule="evenodd" d="M17.25 15C13.246 15 10 18.246 10 22.25C10 31.25 22 33 22 33V29.5H22.75C26.754 29.5 30 26.254 30 22.25C30 18.246 26.754 15 22.75 15H17.25ZM20 23.75C20.3315 23.75 20.6495 23.6183 20.8839 23.3839C21.1183 23.1495 21.25 22.8315 21.25 22.5C21.25 22.1685 21.1183 21.8505 20.8839 21.6161C20.6495 21.3817 20.3315 21.25 20 21.25C19.6685 21.25 19.3505 21.3817 19.1161 21.6161C18.8817 21.8505 18.75 22.1685 18.75 22.5C18.75 22.8315 18.8817 23.1495 19.1161 23.3839C19.3505 23.6183 19.6685 23.75 20 23.75ZM25.25 22.5C25.25 22.8315 25.1183 23.1495 24.8839 23.3839C24.6495 23.6183 24.3315 23.75 24 23.75C23.6685 23.75 23.3505 23.6183 23.1161 23.3839C22.8817 23.1495 22.75 22.8315 22.75 22.5C22.75 22.1685 22.8817 21.8505 23.1161 21.6161C23.3505 21.3817 23.6685 21.25 24 21.25C24.3315 21.25 24.6495 21.3817 24.8839 21.6161C25.1183 21.8505 25.25 22.1685 25.25 22.5ZM16 23.75C16.3315 23.75 16.6495 23.6183 16.8839 23.3839C17.1183 23.1495 17.25 22.8315 17.25 22.5C17.25 22.1685 17.1183 21.8505 16.8839 21.6161C16.6495 21.3817 16.3315 21.25 16 21.25C15.6685 21.25 15.3505 21.3817 15.1161 21.6161C14.8817 21.8505 14.75 22.1685 14.75 22.5C14.75 22.8315 14.8817 23.1495 15.1161 23.3839C15.3505 23.6183 15.6685 23.75 16 23.75Z" fill="#333333" fill-opacity="0.3"/>
<path d="M47.328 20.248C48.88 20.84 50.896 21.768 51.904 22.392L52.704 21.624C51.632 20.984 49.616 20.12 48.08 19.576L47.328 20.248ZM45.792 21.592V29.832H46.864V22.52H53.984V21.592H45.792ZM53.552 21.592V28.696C53.552 28.888 53.488 28.952 53.28 28.968C53.072 28.968 52.4 28.968 51.632 28.952C51.76 29.208 51.92 29.608 51.968 29.896C53.024 29.896 53.712 29.88 54.096 29.72C54.512 29.544 54.64 29.272 54.64 28.696V21.592H53.552ZM45.808 18.232V19.176H53.792V18.232H45.808ZM46.432 23.928V24.824H53.968V23.928H46.432ZM46.432 26.28V27.208H53.968V26.28H46.432ZM49.616 21.976V29.816H50.672V21.976H49.616ZM53.392 18.232V18.456C52.672 19.208 51.184 20.136 49.872 20.648C50.048 20.824 50.352 21.144 50.512 21.352C51.968 20.744 53.584 19.752 54.656 18.744L53.92 18.168L53.664 18.232H53.392ZM41.328 18.12C42.032 18.904 42.928 20.024 43.36 20.696L44.288 20.04C43.84 19.384 42.96 18.36 42.224 17.592L41.328 18.12ZM40.752 21.256V22.264H44.256V21.256H40.752ZM43.6 28.6L42.8 28.968C44 31.608 46.096 32.056 49.84 32.056C51.6 32.056 53.616 32.008 55.12 31.928C55.184 31.592 55.344 31.032 55.52 30.776C53.888 30.904 51.536 30.984 49.856 30.984C46.672 30.984 44.592 30.696 43.6 28.6ZM43.824 25.256V25.464C43.376 28.392 42.144 30.424 40.448 31.496C40.672 31.672 41.072 32.072 41.232 32.328C43.024 31.128 44.352 28.872 44.912 25.448L44.304 25.224L44.096 25.256H43.824ZM40.976 26.456C41.088 26.328 41.504 26.232 41.92 26.232H44.208L44.224 25.256H41.552L40.976 25.544V26.456ZM40.976 26.456C40.976 26.152 41.872 25.704 41.872 25.704C42.816 24.68 44.304 22.648 45.088 21.56L44.288 21.176L43.92 21.336V21.384C43.376 22.232 41.808 24.392 41.296 24.888C41.024 25.208 40.768 25.304 40.528 25.368C40.656 25.624 40.896 26.184 40.976 26.456ZM57.392 22.408V23.368H61.936V22.408H57.392ZM57.392 24.504V25.464H61.952V24.504H57.392ZM56.752 20.28V21.288H62.544V20.28H56.752ZM57.872 26.648V27.656H60.96V30.312H57.872V31.32H61.936V26.648H57.872ZM57.392 26.648V32.072H58.352V26.648H57.392ZM58.448 17.976C58.864 18.632 59.36 19.544 59.568 20.136L60.496 19.56C60.24 19 59.76 18.152 59.312 17.496L58.448 17.976ZM62.528 24.376V25.512H67.952V24.376H62.528ZM68.512 18.472C68.512 25.624 68.352 31.464 70.016 31.992C70.768 32.296 71.296 31.784 71.472 29.528C71.296 29.352 70.96 28.936 70.768 28.648C70.704 29.8 70.592 30.824 70.496 30.792C69.584 30.568 69.632 24.984 69.712 18.472H68.512ZM64.704 19.208V32.28H65.824V19.208H64.704ZM62.704 18.472V19.624H69.056V18.472H62.704ZM78.368 22.312V23.496H87.296V22.312H78.368ZM83.84 18.552C84.656 19.432 85.568 20.648 85.952 21.448L86.96 20.904C86.544 20.12 85.632 18.936 84.8 18.072L83.84 18.552ZM73.856 22.2V23.288H77.152V22.2H73.856ZM72.72 25.576V26.664H77.024V25.576H72.72ZM76.688 17.56V32.264H77.824V17.56H76.688ZM73.344 18.248V23.288H74.464V18.248H73.344ZM73.968 25.96V27.128C73.968 28.264 73.776 30.088 72.608 31.368C72.88 31.48 73.312 31.752 73.536 31.944C74.816 30.552 75.072 28.472 75.072 27.16V25.96H73.968ZM81.872 17.576V21.96C81.872 25.096 81.52 28.728 77.792 31.4C78.048 31.608 78.448 32.04 78.608 32.312C82.624 29.4 83.024 25.464 83.024 21.944V17.576H81.872ZM83.264 22.68L82.144 22.76C82.4 25.112 82.944 30.008 86.608 32.2C86.8 31.896 87.168 31.496 87.504 31.256C83.968 29.256 83.424 24.824 83.264 22.68ZM92.4 28.6V30.584C92.4 31.752 92.88 32.04 94.624 32.04C94.992 32.04 97.696 32.04 98.096 32.04C99.504 32.04 99.856 31.608 100 29.784C99.68 29.72 99.216 29.56 98.944 29.368C98.88 30.84 98.752 31.032 97.984 31.032C97.408 31.032 95.12 31.032 94.688 31.032C93.728 31.032 93.568 30.968 93.568 30.568V28.6H92.4ZM95.056 28.216C95.632 28.824 96.352 29.704 96.72 30.216L97.568 29.592C97.2 29.112 96.448 28.28 95.888 27.688L95.056 28.216ZM100.48 28.648C100.96 29.592 101.504 30.856 101.744 31.608L102.848 31.24C102.592 30.504 102.016 29.272 101.536 28.36L100.48 28.648ZM90.176 28.408C89.92 29.336 89.44 30.536 88.896 31.272L89.936 31.816C90.464 31.016 90.896 29.784 91.2 28.824L90.176 28.408ZM97.056 22.904V26.28C97.056 27.432 97.424 27.736 98.88 27.736C99.184 27.736 101.12 27.736 101.44 27.736C102.512 27.736 102.848 27.384 102.976 26.024C102.672 25.96 102.224 25.816 101.984 25.64C101.936 26.6 101.824 26.744 101.328 26.744C100.912 26.744 99.28 26.744 98.976 26.744C98.288 26.744 98.176 26.68 98.176 26.264V22.904H97.056ZM93.392 18.776C94.176 19.592 95.072 20.728 95.488 21.448L96.368 20.936C95.936 20.232 95.008 19.128 94.224 18.344L93.392 18.776ZM94.256 21.704V26.84C94.256 27 94.208 27.048 94.016 27.064C93.84 27.064 93.248 27.064 92.576 27.064C92.704 27.288 92.864 27.64 92.912 27.912C93.84 27.912 94.448 27.912 94.832 27.752C95.2 27.592 95.312 27.352 95.312 26.84V21.704H94.256ZM90.512 21.704V22.616H94.688V21.704H90.512ZM89.248 21.256C89.248 21.032 89.936 20.728 89.936 20.728V20.696C90.928 20.04 92.032 19 92.976 17.88L91.888 17.496C91.152 18.52 90.064 19.512 89.744 19.768C89.424 20.024 89.136 20.2 88.896 20.232C89.024 20.504 89.184 21.032 89.248 21.256ZM89.248 21.256C89.6 21.128 90.192 21.048 95.312 20.616C95.248 20.408 95.152 20.04 95.12 19.768L89.808 20.136L89.216 20.488L89.248 21.256ZM97.712 18.872V19.816H102.096V18.872H97.712ZM97.712 24.168V25.128H102.112V24.168H97.712ZM89.824 21.704V24.248C89.824 25.272 89.76 26.52 88.976 27.48C89.2 27.608 89.648 27.96 89.808 28.152C90.72 27.08 90.864 25.496 90.864 24.28V21.704H89.824ZM90.768 25.656L91.152 26.552C92.192 26.216 93.392 25.816 94.592 25.4L94.496 24.712C93.088 25.08 91.744 25.448 90.768 25.656ZM91.056 23.656C91.92 23.976 93.04 24.44 93.632 24.744L94.096 24.088C93.488 23.784 92.368 23.352 91.52 23.064L91.056 23.656ZM97.072 17.688V20.616C97.072 21.816 97.392 22.232 98.656 22.232C98.96 22.232 100.944 22.232 101.376 22.232C101.888 22.232 102.448 22.216 102.688 22.136C102.656 21.896 102.608 21.464 102.592 21.176C102.288 21.224 101.696 21.256 101.344 21.256C100.944 21.256 99.088 21.256 98.704 21.256C98.272 21.256 98.192 21.096 98.192 20.632V17.688H97.072Z" fill="#333333" fill-opacity="0.3"/>
</svg>
