<svg width="165" height="48" viewBox="0 0 165 48" fill="none" xmlns="http://www.w3.org/2000/svg">
<path d="M20.0116 21.1547C19.3108 21.1547 18.6546 21.4266 18.1577 21.9234C17.6632 22.4203 17.389 23.0766 17.389 23.7774C17.389 24.4781 17.6632 25.1344 18.1577 25.6313C18.6546 26.1258 19.3108 26.4 20.0116 26.4C20.7124 26.4 21.3686 26.1258 21.8655 25.6313C22.3601 25.1344 22.6343 24.4781 22.6343 23.7774C22.6343 23.0766 22.3601 22.4203 21.8655 21.9234C21.6228 21.6789 21.334 21.485 21.0157 21.353C20.6975 21.2211 20.3561 21.1536 20.0116 21.1547ZM29.6749 26.6742L28.1421 25.3641C28.2147 24.9188 28.2522 24.4641 28.2522 24.0117C28.2522 23.5594 28.2147 23.1024 28.1421 22.6594L29.6749 21.3492C29.7907 21.2501 29.8736 21.1181 29.9125 20.9707C29.9514 20.8233 29.9446 20.6676 29.8929 20.5242L29.8718 20.4633C29.4499 19.2837 28.8178 18.1902 28.0061 17.2359L27.964 17.1867C27.8654 17.0708 27.734 16.9875 27.5872 16.9478C27.4403 16.908 27.2849 16.9137 27.1413 16.9641L25.2382 17.6414C24.5351 17.0648 23.7522 16.6102 22.9038 16.2938L22.5358 14.3039C22.5081 14.154 22.4354 14.0161 22.3273 13.9085C22.2193 13.8009 22.0812 13.7287 21.9311 13.7016L21.8679 13.6898C20.6491 13.4695 19.3647 13.4695 18.146 13.6898L18.0827 13.7016C17.9327 13.7287 17.7945 13.8009 17.6865 13.9085C17.5785 14.0161 17.5058 14.154 17.478 14.3039L17.1077 16.3031C16.2673 16.6221 15.4844 17.0756 14.7897 17.6461L12.8725 16.9641C12.729 16.9133 12.5735 16.9074 12.4265 16.9472C12.2796 16.987 12.1482 17.0705 12.0499 17.1867L12.0077 17.2359C11.1975 18.1912 10.5655 19.2844 10.1421 20.4633L10.121 20.5242C10.0155 20.8172 10.1022 21.1453 10.339 21.3492L11.8905 22.6734C11.8179 23.1141 11.7827 23.5641 11.7827 24.0094C11.7827 24.4594 11.8179 24.9094 11.8905 25.3453L10.3436 26.6695C10.2278 26.7687 10.145 26.9007 10.106 27.0481C10.0671 27.1954 10.074 27.3512 10.1257 27.4945L10.1468 27.5555C10.571 28.7344 11.1968 29.8242 12.0124 30.7828L12.0546 30.832C12.1531 30.9479 12.2845 31.0312 12.4314 31.071C12.5782 31.1107 12.7337 31.1051 12.8772 31.0547L14.7944 30.3727C15.4929 30.9469 16.271 31.4016 17.1124 31.7156L17.4827 33.7149C17.5105 33.8648 17.5832 34.0027 17.6912 34.1103C17.7992 34.2178 17.9374 34.29 18.0874 34.3172L18.1507 34.3289C19.3814 34.5504 20.6418 34.5504 21.8726 34.3289L21.9358 34.3172C22.0858 34.29 22.224 34.2178 22.332 34.1103C22.44 34.0027 22.5128 33.8648 22.5405 33.7149L22.9085 31.725C23.7569 31.4063 24.5397 30.9539 25.2429 30.3774L27.146 31.0547C27.2895 31.1055 27.4451 31.1113 27.592 31.0716C27.739 31.0318 27.8703 30.9483 27.9686 30.832L28.0108 30.7828C28.8265 29.8195 29.4522 28.7344 29.8765 27.5555L29.8976 27.4945C29.9983 27.2039 29.9116 26.8781 29.6749 26.6742ZM20.0116 27.8977C17.7358 27.8977 15.8913 26.0531 15.8913 23.7774C15.8913 21.5016 17.7358 19.657 20.0116 19.657C22.2874 19.657 24.1319 21.5016 24.1319 23.7774C24.1319 26.0531 22.2874 27.8977 20.0116 27.8977Z" fill="#333333" fill-opacity="0.3"/>
<path d="M46.256 26.232V27.32H54.592V26.232H46.256ZM45.248 30.728V31.832H55.36V30.728H45.248ZM45.728 19.416V22.168H46.784V20.456H54.112V22.024H55.216V19.416H45.728ZM49.728 26.776V31.304H50.912V26.776H49.728ZM40.512 26.44L40.768 27.64C42.16 27.208 43.984 26.648 45.728 26.104L45.536 25.016C43.68 25.56 41.792 26.12 40.512 26.44ZM40.688 20.84V21.96H45.408V20.84H40.688ZM42.672 17.576V30.888C42.672 31.128 42.576 31.176 42.384 31.176C42.192 31.192 41.584 31.192 40.88 31.176C41.04 31.512 41.184 32.008 41.232 32.296C42.24 32.296 42.864 32.264 43.232 32.072C43.632 31.88 43.792 31.56 43.792 30.888V17.576H42.672ZM49.056 17.832C49.44 18.552 49.888 19.512 50.08 20.104L51.216 19.704C51.008 19.112 50.544 18.2 50.16 17.496L49.056 17.832ZM48.784 20.264C48.688 22.52 48.224 23.656 45.856 24.248C46.08 24.456 46.368 24.856 46.464 25.112C49.168 24.36 49.76 22.92 49.904 20.264H48.784ZM51.2 20.184V23.128C51.2 24.28 51.456 24.68 52.592 24.68C52.816 24.68 53.984 24.68 54.288 24.68C54.656 24.68 55.04 24.664 55.248 24.6C55.216 24.344 55.184 23.912 55.152 23.624C54.928 23.672 54.528 23.704 54.256 23.704C53.984 23.704 52.88 23.704 52.624 23.704C52.352 23.704 52.288 23.56 52.288 23.144V20.184H51.2ZM66.816 19.032V27.896H67.936V19.032H66.816ZM69.664 17.736V30.632C69.664 30.904 69.584 30.968 69.328 30.984C69.04 30.984 68.144 30.984 67.2 30.952C67.36 31.336 67.536 31.88 67.6 32.232C68.784 32.232 69.664 32.2 70.144 31.992C70.64 31.768 70.832 31.416 70.832 30.616V17.736H69.664ZM60.624 17.624V32.28H61.76V17.624H60.624ZM63.984 25.384V29.768C63.984 29.928 63.936 29.976 63.776 29.976C63.584 29.992 63.072 29.992 62.384 29.976C62.544 30.28 62.688 30.712 62.72 31.016C63.616 31.032 64.224 31.016 64.608 30.824C65.008 30.632 65.088 30.328 65.088 29.784V25.384H63.984ZM57.44 25.384V30.968H58.528V26.472H64.432V25.384H57.44ZM56.704 22.664V23.768H65.664V22.664H56.704ZM58.256 19.88L58.032 20.984H65.024V19.88H58.256ZM58.272 17.944C57.936 19.496 57.376 21.096 56.656 22.184C56.944 22.28 57.472 22.488 57.712 22.616C58.384 21.528 59.008 19.832 59.392 18.168L58.272 17.944ZM77.424 27.72V28.728H87.088V27.72H77.424ZM79.584 24.328H85.152V25.48H79.584V24.328ZM79.584 22.328H85.152V23.464H79.584V22.328ZM78.464 21.432V26.392H86.32V21.432H78.464ZM81.744 26.232C81.456 28.888 80.72 30.536 77.024 31.336C77.248 31.576 77.552 32.024 77.664 32.296C81.68 31.336 82.592 29.384 82.928 26.232H81.744ZM77.744 18.888V19.896H82.112V18.888H77.744ZM79.728 17.576V21.032H80.816V17.576H79.728ZM84.032 17.576V21.032H85.104V17.576H84.032ZM82.656 18.872V19.88H87.28V18.872H82.656ZM82.384 29.592C83.792 30.376 85.68 31.528 86.624 32.216L87.376 31.336C86.384 30.664 84.496 29.576 83.088 28.84L82.384 29.592ZM72.912 20.664V21.768H77.888V20.664H72.912ZM74.96 17.56V32.264H76.064V17.56H74.96ZM74.96 21.384C74.544 23.56 73.52 26.36 72.528 27.784C72.736 28.072 73.024 28.6 73.152 28.952C74.208 27.32 75.2 24.152 75.664 21.656L74.96 21.384ZM76 22.312L75.408 22.776C75.808 23.48 76.816 25.512 77.152 26.392L77.888 25.528C77.616 25.016 76.336 22.792 76 22.312ZM99.344 18.36C100.176 18.936 101.152 19.8 101.632 20.376L102.48 19.624C101.984 19.064 100.976 18.232 100.144 17.672L99.344 18.36ZM88.88 20.552V21.72H103.136V20.552H88.88ZM89.424 24.12V25.288H96.496V24.12H89.424ZM92.304 24.744V30.456H93.504V24.744H92.304ZM88.944 30.616L89.312 31.816C91.376 31.352 94.304 30.68 97.04 30.04L96.944 28.968C93.984 29.608 90.848 30.248 88.944 30.616ZM97.024 17.64C97.088 25.384 98.384 32.312 101.568 32.312C102.8 32.312 103.264 31.496 103.472 28.696C103.136 28.584 102.672 28.312 102.4 28.04C102.304 30.184 102.112 31.064 101.664 31.064C99.696 31.064 98.256 25.064 98.304 17.64H97.024Z" fill="#333333" fill-opacity="0.3"/>
</svg>
