<svg width="165" height="48" viewBox="0 0 165 48" fill="none" xmlns="http://www.w3.org/2000/svg">
<path d="M0 8C0 3.58172 3.58172 0 8 0H156.103C160.521 0 164.103 3.58172 164.103 8V40C164.103 44.4183 160.521 48 156.103 48H8C3.58172 48 0 44.4183 0 40V8Z" fill="#1DA3F4" fill-opacity="0.1"/>
<path d="M20.0121 21.1547C19.3113 21.1547 18.6551 21.4266 18.1582 21.9235C17.6637 22.4204 17.3894 23.0766 17.3894 23.7774C17.3894 24.4782 17.6637 25.1344 18.1582 25.6313C18.6551 26.1258 19.3113 26.4001 20.0121 26.4001C20.7129 26.4001 21.3691 26.1258 21.866 25.6313C22.3605 25.1344 22.6348 24.4782 22.6348 23.7774C22.6348 23.0766 22.3605 22.4204 21.866 21.9235C21.6233 21.6789 21.3345 21.485 21.0162 21.3531C20.6979 21.2211 20.3566 21.1537 20.0121 21.1547ZM29.6754 26.6743L28.1426 25.3641C28.2152 24.9188 28.2527 24.4641 28.2527 24.0118C28.2527 23.5594 28.2152 23.1024 28.1426 22.6594L29.6754 21.3493C29.7912 21.2501 29.8741 21.1181 29.913 20.9708C29.9519 20.8234 29.9451 20.6677 29.8934 20.5243L29.8723 20.4633C29.4504 19.2837 28.8183 18.1903 28.0066 17.236L27.9644 17.1868C27.8659 17.0709 27.7345 16.9876 27.5877 16.9478C27.4408 16.9081 27.2854 16.9138 27.1418 16.9641L25.2387 17.6415C24.5355 17.0649 23.7527 16.6102 22.9043 16.2938L22.5363 14.304C22.5086 14.1541 22.4358 14.0161 22.3278 13.9086C22.2198 13.801 22.0816 13.7288 21.9316 13.7016L21.8684 13.6899C20.6496 13.4696 19.3652 13.4696 18.1465 13.6899L18.0832 13.7016C17.9332 13.7288 17.795 13.801 17.687 13.9086C17.579 14.0161 17.5063 14.1541 17.4785 14.304L17.1082 16.3032C16.2678 16.6221 15.4849 17.0757 14.7902 17.6461L12.873 16.9641C12.7295 16.9134 12.574 16.9075 12.427 16.9472C12.2801 16.987 12.1487 17.0706 12.0504 17.1868L12.0082 17.236C11.1979 18.1913 10.566 19.2844 10.1426 20.4633L10.1215 20.5243C10.016 20.8172 10.1027 21.1454 10.3394 21.3493L11.891 22.6735C11.8183 23.1141 11.7832 23.5641 11.7832 24.0094C11.7832 24.4594 11.8183 24.9094 11.891 25.3454L10.3441 26.6696C10.2283 26.7687 10.1455 26.9007 10.1065 27.0481C10.0676 27.1955 10.0744 27.3512 10.1262 27.4946L10.1473 27.5555C10.5715 28.7344 11.1973 29.8243 12.0129 30.7829L12.0551 30.8321C12.1536 30.948 12.285 31.0313 12.4319 31.071C12.5787 31.1108 12.7342 31.1051 12.8777 31.0547L14.7949 30.3727C15.4933 30.9469 16.2715 31.4016 17.1129 31.7157L17.4832 33.7149C17.511 33.8648 17.5837 34.0027 17.6917 34.1103C17.7997 34.2179 17.9379 34.2901 18.0879 34.3172L18.1512 34.329C19.3819 34.5505 20.6423 34.5505 21.873 34.329L21.9363 34.3172C22.0863 34.2901 22.2245 34.2179 22.3325 34.1103C22.4405 34.0027 22.5132 33.8648 22.541 33.7149L22.909 31.7251C23.7574 31.4063 24.5402 30.954 25.2434 30.3774L27.1465 31.0547C27.29 31.1055 27.4456 31.1114 27.5925 31.0716C27.7395 31.0318 27.8708 30.9483 27.9691 30.8321L28.0113 30.7829C28.827 29.8196 29.4527 28.7344 29.8769 27.5555L29.898 27.4946C29.9988 27.204 29.9121 26.8782 29.6754 26.6743ZM20.0121 27.8977C17.7363 27.8977 15.8918 26.0532 15.8918 23.7774C15.8918 21.5016 17.7363 19.6571 20.0121 19.6571C22.2879 19.6571 24.1324 21.5016 24.1324 23.7774C24.1324 26.0532 22.2879 27.8977 20.0121 27.8977Z" fill="#004584"/>
<path d="M46.256 26.232V27.32H54.592V26.232H46.256ZM45.248 30.728V31.832H55.36V30.728H45.248ZM45.728 19.416V22.168H46.784V20.456H54.112V22.024H55.216V19.416H45.728ZM49.728 26.776V31.304H50.912V26.776H49.728ZM40.512 26.44L40.768 27.64C42.16 27.208 43.984 26.648 45.728 26.104L45.536 25.016C43.68 25.56 41.792 26.12 40.512 26.44ZM40.688 20.84V21.96H45.408V20.84H40.688ZM42.672 17.576V30.888C42.672 31.128 42.576 31.176 42.384 31.176C42.192 31.192 41.584 31.192 40.88 31.176C41.04 31.512 41.184 32.008 41.232 32.296C42.24 32.296 42.864 32.264 43.232 32.072C43.632 31.88 43.792 31.56 43.792 30.888V17.576H42.672ZM49.056 17.832C49.44 18.552 49.888 19.512 50.08 20.104L51.216 19.704C51.008 19.112 50.544 18.2 50.16 17.496L49.056 17.832ZM48.784 20.264C48.688 22.52 48.224 23.656 45.856 24.248C46.08 24.456 46.368 24.856 46.464 25.112C49.168 24.36 49.76 22.92 49.904 20.264H48.784ZM51.2 20.184V23.128C51.2 24.28 51.456 24.68 52.592 24.68C52.816 24.68 53.984 24.68 54.288 24.68C54.656 24.68 55.04 24.664 55.248 24.6C55.216 24.344 55.184 23.912 55.152 23.624C54.928 23.672 54.528 23.704 54.256 23.704C53.984 23.704 52.88 23.704 52.624 23.704C52.352 23.704 52.288 23.56 52.288 23.144V20.184H51.2ZM66.816 19.032V27.896H67.936V19.032H66.816ZM69.664 17.736V30.632C69.664 30.904 69.584 30.968 69.328 30.984C69.04 30.984 68.144 30.984 67.2 30.952C67.36 31.336 67.536 31.88 67.6 32.232C68.784 32.232 69.664 32.2 70.144 31.992C70.64 31.768 70.832 31.416 70.832 30.616V17.736H69.664ZM60.624 17.624V32.28H61.76V17.624H60.624ZM63.984 25.384V29.768C63.984 29.928 63.936 29.976 63.776 29.976C63.584 29.992 63.072 29.992 62.384 29.976C62.544 30.28 62.688 30.712 62.72 31.016C63.616 31.032 64.224 31.016 64.608 30.824C65.008 30.632 65.088 30.328 65.088 29.784V25.384H63.984ZM57.44 25.384V30.968H58.528V26.472H64.432V25.384H57.44ZM56.704 22.664V23.768H65.664V22.664H56.704ZM58.256 19.88L58.032 20.984H65.024V19.88H58.256ZM58.272 17.944C57.936 19.496 57.376 21.096 56.656 22.184C56.944 22.28 57.472 22.488 57.712 22.616C58.384 21.528 59.008 19.832 59.392 18.168L58.272 17.944ZM77.424 27.72V28.728H87.088V27.72H77.424ZM79.584 24.328H85.152V25.48H79.584V24.328ZM79.584 22.328H85.152V23.464H79.584V22.328ZM78.464 21.432V26.392H86.32V21.432H78.464ZM81.744 26.232C81.456 28.888 80.72 30.536 77.024 31.336C77.248 31.576 77.552 32.024 77.664 32.296C81.68 31.336 82.592 29.384 82.928 26.232H81.744ZM77.744 18.888V19.896H82.112V18.888H77.744ZM79.728 17.576V21.032H80.816V17.576H79.728ZM84.032 17.576V21.032H85.104V17.576H84.032ZM82.656 18.872V19.88H87.28V18.872H82.656ZM82.384 29.592C83.792 30.376 85.68 31.528 86.624 32.216L87.376 31.336C86.384 30.664 84.496 29.576 83.088 28.84L82.384 29.592ZM72.912 20.664V21.768H77.888V20.664H72.912ZM74.96 17.56V32.264H76.064V17.56H74.96ZM74.96 21.384C74.544 23.56 73.52 26.36 72.528 27.784C72.736 28.072 73.024 28.6 73.152 28.952C74.208 27.32 75.2 24.152 75.664 21.656L74.96 21.384ZM76 22.312L75.408 22.776C75.808 23.48 76.816 25.512 77.152 26.392L77.888 25.528C77.616 25.016 76.336 22.792 76 22.312ZM99.344 18.36C100.176 18.936 101.152 19.8 101.632 20.376L102.48 19.624C101.984 19.064 100.976 18.232 100.144 17.672L99.344 18.36ZM88.88 20.552V21.72H103.136V20.552H88.88ZM89.424 24.12V25.288H96.496V24.12H89.424ZM92.304 24.744V30.456H93.504V24.744H92.304ZM88.944 30.616L89.312 31.816C91.376 31.352 94.304 30.68 97.04 30.04L96.944 28.968C93.984 29.608 90.848 30.248 88.944 30.616ZM97.024 17.64C97.088 25.384 98.384 32.312 101.568 32.312C102.8 32.312 103.264 31.496 103.472 28.696C103.136 28.584 102.672 28.312 102.4 28.04C102.304 30.184 102.112 31.064 101.664 31.064C99.696 31.064 98.256 25.064 98.304 17.64H97.024Z" fill="#004584"/>
</svg>
