<svg width="168" height="48" viewBox="0 0 168 48" fill="none" xmlns="http://www.w3.org/2000/svg">
<path d="M18 17C18.0025 17.304 18.0757 17.6032 18.2139 17.874C18.352 18.1447 18.5513 18.3796 18.796 18.56L13.5 21.986H11.997C11.4674 21.986 10.9594 22.1964 10.5849 22.5709C10.2104 22.9454 10 23.4534 10 23.983V32.006C10 32.5356 10.2104 33.0436 10.5849 33.4181C10.9594 33.7926 11.4674 34.003 11.997 34.003H27.997C28.5283 34.0027 29.0378 33.7915 29.4134 33.4157C29.789 33.0399 30 32.5303 30 31.999V23.983C30 23.4534 29.7896 22.9454 29.4151 22.5709C29.0406 22.1964 28.5326 21.986 28.003 21.986H26.512L21.21 18.555C21.453 18.3745 21.6507 18.1402 21.7878 17.8704C21.9249 17.6006 21.9975 17.3026 22 17C21.9951 16.6514 21.9006 16.31 21.7254 16.0085C21.5503 15.7071 21.3004 15.4559 21 15.279V14H20V16C20.1978 16 20.3911 16.0586 20.5556 16.1685C20.72 16.2784 20.8482 16.4346 20.9239 16.6173C20.9996 16.8 21.0194 17.0011 20.9808 17.1951C20.9422 17.3891 20.847 17.5673 20.7071 17.7071C20.5673 17.847 20.3891 17.9422 20.1951 17.9808C20.0011 18.0194 19.8 17.9996 19.6173 17.9239C19.4346 17.8482 19.2784 17.72 19.1685 17.5556C19.0586 17.3911 19 17.1978 19 17H18ZM19.995 18.974L20 18.975L20.017 18.973L24.672 21.986H15.342L19.995 18.974ZM15 30C15 30.2652 14.8946 30.5196 14.7071 30.7071C14.5196 30.8946 14.2652 31 14 31C13.7348 31 13.4804 30.8946 13.2929 30.7071C13.1054 30.5196 13 30.2652 13 30V26C13 25.7348 13.1054 25.4804 13.2929 25.2929C13.4804 25.1054 13.7348 25 14 25C14.2652 25 14.5196 25.1054 14.7071 25.2929C14.8946 25.4804 15 25.7348 15 26V30ZM19 30C19 30.2652 18.8946 30.5196 18.7071 30.7071C18.5196 30.8946 18.2652 31 18 31C17.7348 31 17.4804 30.8946 17.2929 30.7071C17.1054 30.5196 17 30.2652 17 30V26C17 25.7348 17.1054 25.4804 17.2929 25.2929C17.4804 25.1054 17.7348 25 18 25C18.2652 25 18.5196 25.1054 18.7071 25.2929C18.8946 25.4804 19 25.7348 19 26V30ZM23 30C23 30.2652 22.8946 30.5196 22.7071 30.7071C22.5196 30.8946 22.2652 31 22 31C21.7348 31 21.4804 30.8946 21.2929 30.7071C21.1054 30.5196 21 30.2652 21 30V26C21 25.7348 21.1054 25.4804 21.2929 25.2929C21.4804 25.1054 21.7348 25 22 25C22.2652 25 22.5196 25.1054 22.7071 25.2929C22.8946 25.4804 23 25.7348 23 26V30ZM27 30C27 30.2652 26.8946 30.5196 26.7071 30.7071C26.5196 30.8946 26.2652 31 26 31C25.7348 31 25.4804 30.8946 25.2929 30.7071C25.1054 30.5196 25 30.2652 25 30V26C25 25.7348 25.1054 25.4804 25.2929 25.2929C25.4804 25.1054 25.7348 25 26 25C26.2652 25 26.5196 25.1054 26.7071 25.2929C26.8946 25.4804 27 25.7348 27 26V30Z" fill="#333333" fill-opacity="0.3"/>
<path d="M45.424 17.48C44.304 18.792 42.448 20.008 40.688 20.776C40.96 20.968 41.392 21.4 41.568 21.624C43.28 20.76 45.248 19.384 46.496 17.896L45.424 17.48ZM44.048 25.928H52.112V27.016H44.048V25.928ZM44.048 27.8H52.112V28.92H44.048V27.8ZM44.048 24.056H52.112V25.144H44.048V24.056ZM42.88 23.256V29.72H53.312V23.256H42.88ZM49.52 30.488C51.248 31.048 52.992 31.752 54.016 32.264L55.056 31.576C53.92 31.032 52.048 30.36 50.32 29.832L49.52 30.488ZM45.584 29.88C44.432 30.504 42.512 31.08 40.864 31.416C41.136 31.64 41.568 32.088 41.76 32.328C43.36 31.896 45.392 31.144 46.688 30.376L45.584 29.88ZM43.632 19.704V22.792H44.784V18.968L44.48 18.872L43.632 19.704ZM47.824 17.592V20.824C47.824 22.088 48.224 22.568 49.664 22.568C50.048 22.568 52.8 22.568 53.376 22.568C54.016 22.568 54.704 22.552 55.008 22.472C54.96 22.2 54.912 21.8 54.88 21.48C54.544 21.528 53.744 21.576 53.28 21.576C52.752 21.576 50.256 21.576 49.728 21.576C49.152 21.576 49.024 21.384 49.024 20.856V17.592H47.824ZM48.544 18.904V19.896H54.208V18.904H48.544ZM61.968 30.792V31.784H71.424V30.792H61.968ZM63.536 22.824V23.576H71.232V22.824H63.536ZM66.848 19.464V23.176H67.872V19.464H66.848ZM61.968 18.216V31.384H63.072V19.16H71.232V18.216H61.968ZM65.264 20.744H69.488V21.544H65.264V20.744ZM64.32 20.152V22.152H70.448V20.152H64.32ZM68.048 29.128C68.864 29.56 69.872 30.184 70.4 30.584L71.136 29.976C70.608 29.56 69.568 28.968 68.768 28.584L68.048 29.128ZM65.312 26.056H69.504V26.728H65.312V26.056ZM65.312 27.352H69.504V28.04H65.312V27.352ZM65.312 24.776H69.504V25.416H65.312V24.776ZM64.272 24.136V28.68H70.592V24.136H64.272ZM66 28.568C65.456 29.032 64.416 29.608 63.616 29.944C63.824 30.12 64.144 30.408 64.288 30.6C65.072 30.248 66.128 29.656 66.88 29.096L66 28.568ZM56.816 20.936V22.072H61.616V20.936H56.816ZM58.848 17.544V32.248H59.936V17.544H58.848ZM58.848 21.608C58.448 23.896 57.456 26.728 56.464 28.168C56.672 28.456 56.96 28.968 57.088 29.304C58.144 27.656 59.12 24.44 59.568 21.864L58.848 21.608ZM59.856 22.968L59.328 23.48C59.728 24.12 60.832 26.04 61.168 26.84L61.824 25.928C61.536 25.448 60.192 23.416 59.856 22.968ZM76.048 25.928H84.112V27.016H76.048V25.928ZM76.048 27.8H84.112V28.92H76.048V27.8ZM76.048 24.056H84.112V25.144H76.048V24.056ZM74.88 23.256V29.72H85.312V23.256H74.88ZM81.52 30.472C83.248 31.032 84.976 31.72 86 32.232L87.072 31.544C85.936 31.032 84.064 30.328 82.32 29.8L81.52 30.472ZM77.568 29.816C76.416 30.456 74.496 31.016 72.848 31.368C73.12 31.576 73.536 32.04 73.728 32.264C75.328 31.832 77.36 31.096 78.656 30.328L77.568 29.816ZM79.408 18.648V19.592H86V18.648H79.408ZM79.664 17.528C79.296 18.68 78.624 19.816 77.792 20.584C78.064 20.728 78.512 21.016 78.704 21.192C79.536 20.376 80.304 19.08 80.736 17.768L79.664 17.528ZM81.568 19.24V19.752C81.568 20.568 81.168 21.672 77.008 22.216C77.216 22.44 77.536 22.856 77.648 23.144C82.16 22.44 82.672 21 82.672 19.784V19.24H81.568ZM82.512 20.184L81.664 20.392C82.544 21.816 84.384 22.728 86.688 23.064C86.832 22.76 87.136 22.328 87.376 22.088C85.152 21.896 83.328 21.224 82.512 20.184ZM73.12 18.52V19.464H76.976V18.52H73.12ZM72.768 21.016V21.992H77.376V21.016H72.768ZM85.6 18.648V18.824C85.312 19.512 84.864 20.328 84.496 20.856L85.44 21.192C85.888 20.616 86.4 19.688 86.8 18.872L85.984 18.6L85.808 18.648H85.6ZM89.392 22.408V23.368H93.936V22.408H89.392ZM89.392 24.504V25.464H93.952V24.504H89.392ZM88.752 20.28V21.288H94.544V20.28H88.752ZM89.872 26.648V27.656H92.96V30.312H89.872V31.32H93.936V26.648H89.872ZM89.392 26.648V32.072H90.352V26.648H89.392ZM90.448 17.976C90.864 18.632 91.36 19.544 91.568 20.136L92.496 19.56C92.24 19 91.76 18.152 91.312 17.496L90.448 17.976ZM94.528 24.376V25.512H99.952V24.376H94.528ZM100.512 18.472C100.512 25.624 100.352 31.464 102.016 31.992C102.768 32.296 103.296 31.784 103.472 29.528C103.296 29.352 102.96 28.936 102.768 28.648C102.704 29.8 102.592 30.824 102.496 30.792C101.584 30.568 101.632 24.984 101.712 18.472H100.512ZM96.704 19.208V32.28H97.824V19.208H96.704ZM94.704 18.472V19.624H101.056V18.472H94.704Z" fill="#333333" fill-opacity="0.3"/>
</svg>
