<svg width="60" height="61" viewBox="0 0 60 61" fill="none" xmlns="http://www.w3.org/2000/svg">
<rect y="0.5" width="60" height="60" rx="8" fill="#51C3B7"/>
<path d="M29.9504 25.054C28.6137 25.054 27.3619 25.5726 26.4142 26.5203C25.4709 27.4681 24.9478 28.7199 24.9478 30.0566C24.9478 31.3933 25.4709 32.645 26.4142 33.5928C27.3619 34.5361 28.6137 35.0591 29.9504 35.0591C31.2871 35.0591 32.5389 34.5361 33.4866 33.5928C34.4299 32.645 34.953 31.3933 34.953 30.0566C34.953 28.7199 34.4299 27.4681 33.4866 26.5203C33.0237 26.0539 32.4727 25.684 31.8657 25.4323C31.2586 25.1806 30.6076 25.052 29.9504 25.054ZM48.3826 35.5822L45.4588 33.0832C45.5974 32.2337 45.669 31.3664 45.669 30.5036C45.669 29.6408 45.5974 28.769 45.4588 27.9241L48.3826 25.425C48.6035 25.236 48.7615 24.9841 48.8358 24.703C48.9101 24.4219 48.897 24.1249 48.7984 23.8514L48.7581 23.7352C47.9535 21.4851 46.7478 19.3994 45.1996 17.5792L45.1191 17.4853C44.9311 17.2642 44.6805 17.1053 44.4004 17.0295C44.1203 16.9537 43.8237 16.9645 43.5499 17.0606L39.9198 18.3526C38.5786 17.2528 37.0854 16.3855 35.4671 15.782L34.7652 11.9865C34.7123 11.7005 34.5736 11.4375 34.3675 11.2323C34.1615 11.0271 33.8979 10.8894 33.6118 10.8375L33.4911 10.8152C31.1664 10.3949 28.7165 10.3949 26.3918 10.8152L26.2711 10.8375C25.985 10.8894 25.7214 11.0271 25.5154 11.2323C25.3094 11.4375 25.1707 11.7005 25.1177 11.9865L24.4113 15.7999C22.8083 16.4082 21.315 17.2734 19.9899 18.3615L16.333 17.0606C16.0593 16.9638 15.7625 16.9525 15.4822 17.0284C15.2019 17.1043 14.9514 17.2636 14.7638 17.4853L14.6834 17.5792C13.1378 19.4013 11.9325 21.4865 11.1248 23.7352L11.0845 23.8514C10.8834 24.4102 11.0488 25.0361 11.5003 25.425L14.4598 27.9509C14.3212 28.7914 14.2542 29.6497 14.2542 30.4992C14.2542 31.3575 14.3212 32.2159 14.4598 33.0474L11.5092 35.5733C11.2884 35.7623 11.1303 36.0142 11.056 36.2953C10.9818 36.5764 10.9948 36.8734 11.0935 37.1469L11.1337 37.2631C11.9429 39.5119 13.1365 41.5907 14.6923 43.4191L14.7728 43.513C14.9608 43.7341 15.2114 43.893 15.4915 43.9688C15.7716 44.0446 16.0681 44.0338 16.3419 43.9377L19.9989 42.6368C21.3311 43.7321 22.8153 44.5994 24.4203 45.1984L25.1266 49.0118C25.1796 49.2978 25.3183 49.5608 25.5243 49.766C25.7303 49.9713 25.9939 50.1089 26.2801 50.1608L26.4008 50.1831C28.7483 50.6056 31.1525 50.6056 33.5 50.1831L33.6207 50.1608C33.9069 50.1089 34.1705 49.9713 34.3765 49.766C34.5825 49.5608 34.7212 49.2978 34.7742 49.0118L35.476 45.2163C37.0944 44.6083 38.5876 43.7455 39.9287 42.6457L43.5588 43.9377C43.8326 44.0345 44.1293 44.0458 44.4096 43.9699C44.6899 43.8941 44.9405 43.7347 45.128 43.513L45.2085 43.4191C46.7643 41.5817 47.9579 39.5119 48.7671 37.2631L48.8073 37.1469C48.9995 36.5926 48.8341 35.9711 48.3826 35.5822ZM29.9504 37.9158C25.6095 37.9158 22.0911 34.3975 22.0911 30.0566C22.0911 25.7156 25.6095 22.1973 29.9504 22.1973C34.2913 22.1973 37.8097 25.7156 37.8097 30.0566C37.8097 34.3975 34.2913 37.9158 29.9504 37.9158Z" fill="white"/>
</svg>
