<svg width="551" height="352" viewBox="0 0 551 352" fill="none" xmlns="http://www.w3.org/2000/svg">
<path d="M2.336 30V7.344H7.84V30H2.336ZM23.2115 19.216C22.9128 18.832 22.5075 18.5227 21.9955 18.288C21.4835 18.0533 20.9608 17.936 20.4275 17.936C19.8728 17.936 19.3715 18.0533 18.9235 18.288C18.4755 18.5013 18.0915 18.8 17.7715 19.184C17.4515 19.5467 17.1955 19.9733 17.0035 20.464C16.8328 20.9547 16.7475 21.4773 16.7475 22.032C16.7475 22.5867 16.8328 23.1093 17.0035 23.6C17.1742 24.0907 17.4195 24.528 17.7395 24.912C18.0808 25.2747 18.4755 25.5627 18.9235 25.776C19.3928 25.9893 19.9155 26.096 20.4915 26.096C21.0248 26.096 21.5475 26 22.0595 25.808C22.5928 25.5947 23.0195 25.296 23.3395 24.912L26.2515 28.464C25.5902 29.104 24.7368 29.6053 23.6915 29.968C22.6462 30.3307 21.5368 30.512 20.3635 30.512C19.1048 30.512 17.9315 30.32 16.8435 29.936C15.7555 29.552 14.8062 28.9973 13.9955 28.272C13.2062 27.5253 12.5768 26.6293 12.1075 25.584C11.6595 24.5387 11.4355 23.3547 11.4355 22.032C11.4355 20.7307 11.6595 19.5573 12.1075 18.512C12.5768 17.4667 13.2062 16.5813 13.9955 15.856C14.8062 15.1093 15.7555 14.544 16.8435 14.16C17.9315 13.7547 19.0942 13.552 20.3315 13.552C20.9075 13.552 21.4728 13.6053 22.0275 13.712C22.6035 13.8187 23.1475 13.968 23.6595 14.16C24.1928 14.3307 24.6728 14.5547 25.0995 14.832C25.5475 15.088 25.9315 15.376 26.2515 15.696L23.2115 19.216ZM45.2253 21.968C45.2253 23.2693 44.9906 24.4533 44.5213 25.52C44.0519 26.5653 43.4119 27.4613 42.6013 28.208C41.7906 28.9333 40.8519 29.4987 39.7853 29.904C38.7186 30.3093 37.5773 30.512 36.3613 30.512C35.1666 30.512 34.0253 30.3093 32.9373 29.904C31.8706 29.4987 30.9319 28.9333 30.1213 28.208C29.3319 27.4613 28.7026 26.5653 28.2333 25.52C27.7639 24.4533 27.5293 23.2693 27.5293 21.968C27.5293 20.6667 27.7639 19.4933 28.2333 18.448C28.7026 17.4027 29.3319 16.5173 30.1213 15.792C30.9319 15.0667 31.8706 14.512 32.9373 14.128C34.0253 13.744 35.1666 13.552 36.3613 13.552C37.5773 13.552 38.7186 13.744 39.7853 14.128C40.8519 14.512 41.7906 15.0667 42.6013 15.792C43.4119 16.5173 44.0519 17.4027 44.5213 18.448C44.9906 19.4933 45.2253 20.6667 45.2253 21.968ZM40.1693 21.968C40.1693 21.456 40.0839 20.9547 39.9133 20.464C39.7426 19.9733 39.4973 19.5467 39.1773 19.184C38.8573 18.8 38.4626 18.4907 37.9933 18.256C37.5239 18.0213 36.9799 17.904 36.3613 17.904C35.7426 17.904 35.1986 18.0213 34.7292 18.256C34.2599 18.4907 33.8653 18.8 33.5453 19.184C33.2466 19.5467 33.0119 19.9733 32.8413 20.464C32.6919 20.9547 32.6173 21.456 32.6173 21.968C32.6173 22.48 32.6919 22.9813 32.8413 23.472C33.0119 23.9627 33.2573 24.4107 33.5773 24.816C33.8973 25.2 34.2919 25.5093 34.7613 25.744C35.2306 25.9787 35.7746 26.096 36.3933 26.096C37.0119 26.096 37.5559 25.9787 38.0253 25.744C38.4946 25.5093 38.8893 25.2 39.2093 24.816C39.5293 24.4107 39.7639 23.9627 39.9133 23.472C40.0839 22.9813 40.1693 22.48 40.1693 21.968ZM59.012 30V21.296C59.012 20.848 58.9693 20.4213 58.884 20.016C58.82 19.6107 58.7027 19.2587 58.532 18.96C58.3613 18.64 58.116 18.3947 57.796 18.224C57.4973 18.032 57.1133 17.936 56.644 17.936C56.1747 17.936 55.7587 18.032 55.396 18.224C55.0547 18.3947 54.7667 18.64 54.532 18.96C54.2973 19.28 54.116 19.6533 53.988 20.08C53.8813 20.4853 53.828 20.912 53.828 21.36V30H48.548V14.064H53.636V16.272H53.7C53.892 15.9307 54.1373 15.6 54.436 15.28C54.756 14.9387 55.1187 14.6507 55.524 14.416C55.9507 14.1813 56.4093 13.9893 56.9 13.84C57.3907 13.6907 57.9133 13.616 58.468 13.616C59.5347 13.616 60.4413 13.808 61.188 14.192C61.9347 14.576 62.532 15.0773 62.98 15.696C63.4493 16.2933 63.78 16.9867 63.972 17.776C64.1853 18.5653 64.292 19.3547 64.292 20.144V30H59.012Z" fill="#333333"/>
<line y1="63.5" x2="550.857" y2="63.5" stroke="#333333"/>
<path d="M1.638 140H4.014V134.438C4.014 133.178 3.816 131.324 3.672 130.064H3.744L4.824 133.196L6.876 138.812H8.406L10.458 133.196L11.556 130.064H11.646C11.502 131.324 11.286 133.178 11.286 134.438V140H13.716V126.68H10.764L8.55 132.926C8.28 133.754 8.046 134.618 7.74 135.482H7.668C7.38 134.618 7.146 133.754 6.84 132.926L4.572 126.68H1.638V140ZM21.1597 140.252C22.4017 140.252 23.6617 139.838 24.6517 139.154L23.7697 137.516C23.0317 137.966 22.3117 138.218 21.5017 138.218C20.0077 138.218 18.9277 137.372 18.6937 135.716H24.9217C24.9757 135.464 25.0297 134.996 25.0297 134.492C25.0297 131.702 23.6077 129.686 20.8177 129.686C18.4417 129.686 16.1377 131.702 16.1377 134.978C16.1377 138.308 18.3337 140.252 21.1597 140.252ZM18.6577 133.952C18.8737 132.476 19.8097 131.72 20.8717 131.72C22.1677 131.72 22.7797 132.584 22.7797 133.952H18.6577ZM27.2267 140H29.8727V133.07C30.6107 132.35 31.1327 131.954 31.9607 131.954C32.9327 131.954 33.3827 132.476 33.3827 134.06V140H36.0287V133.718C36.0287 131.198 35.0747 129.686 32.9147 129.686C31.5467 129.686 30.5027 130.406 29.6387 131.27H29.5847L29.3687 129.938H27.2267V140ZM41.7639 140.252C43.1319 140.252 44.0859 139.586 44.9679 138.56H45.0219L45.2199 140H47.3799V129.938H44.7519V136.724C44.0679 137.624 43.5279 137.984 42.6999 137.984C41.7099 137.984 41.2779 137.444 41.2779 135.896V129.938H38.6319V136.22C38.6319 138.758 39.5859 140.252 41.7639 140.252Z" fill="#333333"/>
<path d="M20 177.531C26.882 177.531 32.4609 183.11 32.4609 189.992V199.094C32.4609 199.425 32.3292 199.743 32.0948 199.978C31.8604 200.212 31.5424 200.344 31.2109 200.344H8.78906C8.45754 200.344 8.1396 200.212 7.90518 199.978C7.67076 199.743 7.53906 199.425 7.53906 199.094V189.992C7.53906 183.11 13.118 177.531 20 177.531ZM18.9062 170.656H21.0937C21.1766 170.656 21.2561 170.689 21.3147 170.748C21.3733 170.806 21.4062 170.886 21.4062 170.969V174.719C21.4062 174.802 21.3733 174.881 21.3147 174.94C21.2561 174.998 21.1766 175.031 21.0937 175.031H18.9062C18.8234 175.031 18.7439 174.998 18.6853 174.94C18.6267 174.881 18.5937 174.802 18.5937 174.719V170.969C18.5937 170.886 18.6267 170.806 18.6853 170.748C18.7439 170.689 18.8234 170.656 18.9062 170.656ZM6.92383 175.487C6.95285 175.458 6.98732 175.435 7.02525 175.419C7.06319 175.403 7.10385 175.395 7.14492 175.395C7.18599 175.395 7.22665 175.403 7.26459 175.419C7.30253 175.435 7.33699 175.458 7.36602 175.487L10.0176 178.138C10.0761 178.197 10.109 178.276 10.109 178.359C10.109 178.442 10.0761 178.521 10.0176 178.58L8.4707 180.127C8.4121 180.186 8.33265 180.218 8.2498 180.218C8.16696 180.218 8.0875 180.186 8.02891 180.127L5.37735 177.475C5.31878 177.417 5.28589 177.337 5.28589 177.254C5.28589 177.172 5.31878 177.092 5.37735 177.034L6.92422 175.487H6.92383ZM33.0801 175.487L34.6269 177.034C34.6854 177.092 34.7182 177.172 34.7182 177.254C34.7182 177.337 34.6854 177.416 34.6269 177.475L31.9754 180.127C31.9463 180.156 31.9119 180.179 31.8739 180.195C31.836 180.211 31.7953 180.219 31.7543 180.219C31.7132 180.219 31.6725 180.211 31.6346 180.195C31.5967 180.179 31.5622 180.156 31.5332 180.127L29.9863 178.58C29.9573 178.551 29.9342 178.517 29.9185 178.479C29.9028 178.441 29.8947 178.4 29.8947 178.359C29.8947 178.318 29.9028 178.278 29.9185 178.24C29.9342 178.202 29.9573 178.167 29.9863 178.138L32.6383 175.487C32.6969 175.428 32.7763 175.395 32.8592 175.395C32.942 175.395 33.0215 175.428 33.0801 175.487ZM7.5 202.844H32.5C32.8315 202.844 33.1494 202.975 33.3839 203.21C33.6183 203.444 33.75 203.762 33.75 204.094V205.031C33.75 205.114 33.7171 205.194 33.6584 205.252C33.5998 205.311 33.5204 205.344 33.4375 205.344H6.5625C6.47962 205.344 6.40013 205.311 6.34153 205.252C6.28292 205.194 6.25 205.114 6.25 205.031V204.094C6.25 203.762 6.3817 203.444 6.61612 203.21C6.85054 202.975 7.16848 202.844 7.5 202.844ZM13.2812 190.461V200.344H15.7812V190.461H13.2812Z" fill="#333333"/>
<path d="M105.333 184.667V181.333C105.333 180.449 104.982 179.601 104.357 178.976C103.732 178.351 102.884 178 102 178H78.6666C77.7825 178 76.9347 178.351 76.3096 178.976C75.6844 179.601 75.3333 180.449 75.3333 181.333V194.667C75.3333 195.551 75.6844 196.399 76.3096 197.024C76.9347 197.649 77.7825 198 78.6666 198H102C102.884 198 103.732 197.649 104.357 197.024C104.982 196.399 105.333 195.551 105.333 194.667V191.333H108.667V184.667H105.333ZM86.9999 196.333L90.3333 189.85L83.6666 188L93.6666 179.667L91.9999 186.15L98.6666 188L86.9999 196.333Z" fill="#333333"/>
<path d="M149 173V201.333C149 201.775 149.176 202.199 149.488 202.512C149.801 202.824 150.225 203 150.667 203H179V199.667H152.333V173H149Z" fill="#333333"/>
<path d="M169.488 192.512C169.643 192.667 169.827 192.79 170.029 192.873C170.231 192.957 170.448 193 170.667 193C170.886 193 171.102 192.957 171.305 192.873C171.507 192.79 171.69 192.667 171.845 192.512L180.178 184.178L177.822 181.822L170.667 188.977L166.845 185.155C166.69 185 166.507 184.877 166.305 184.793C166.102 184.71 165.886 184.666 165.667 184.666C165.448 184.666 165.231 184.71 165.029 184.793C164.827 184.877 164.643 185 164.488 185.155L156.155 193.488L158.512 195.845L165.667 188.69L169.488 192.512Z" fill="#333333"/>
<path fill-rule="evenodd" clip-rule="evenodd" d="M231.417 173C224.743 173 219.333 178.41 219.333 185.083C219.333 200.083 239.333 203 239.333 203V197.167H240.583C247.257 197.167 252.667 191.757 252.667 185.083C252.667 178.41 247.257 173 240.583 173H231.417ZM236 187.583C236.552 187.583 237.082 187.364 237.473 186.973C237.864 186.582 238.083 186.053 238.083 185.5C238.083 184.947 237.864 184.418 237.473 184.027C237.082 183.636 236.552 183.417 236 183.417C235.447 183.417 234.917 183.636 234.527 184.027C234.136 184.418 233.917 184.947 233.917 185.5C233.917 186.053 234.136 186.582 234.527 186.973C234.917 187.364 235.447 187.583 236 187.583ZM244.75 185.5C244.75 186.053 244.53 186.582 244.14 186.973C243.749 187.364 243.219 187.583 242.667 187.583C242.114 187.583 241.584 187.364 241.193 186.973C240.803 186.582 240.583 186.053 240.583 185.5C240.583 184.947 240.803 184.418 241.193 184.027C241.584 183.636 242.114 183.417 242.667 183.417C243.219 183.417 243.749 183.636 244.14 184.027C244.53 184.418 244.75 184.947 244.75 185.5ZM229.333 187.583C229.886 187.583 230.416 187.364 230.806 186.973C231.197 186.582 231.417 186.053 231.417 185.5C231.417 184.947 231.197 184.418 230.806 184.027C230.416 183.636 229.886 183.417 229.333 183.417C228.781 183.417 228.251 183.636 227.86 184.027C227.469 184.418 227.25 184.947 227.25 185.5C227.25 186.053 227.469 186.582 227.86 186.973C228.251 187.364 228.781 187.583 229.333 187.583Z" fill="#333333"/>
<path d="M304.667 176.333C304.671 176.84 304.793 177.339 305.023 177.79C305.253 178.241 305.585 178.633 305.993 178.933L297.167 184.643H294.662C293.779 184.643 292.932 184.994 292.308 185.618C291.684 186.242 291.333 187.089 291.333 187.972V201.343C291.333 202.226 291.684 203.073 292.308 203.697C292.932 204.321 293.779 204.672 294.662 204.672H321.328C322.214 204.671 323.063 204.319 323.689 203.693C324.315 203.066 324.667 202.217 324.667 201.332V187.972C324.667 187.089 324.316 186.242 323.692 185.618C323.068 184.994 322.221 184.643 321.338 184.643H318.853L310.017 178.925C310.422 178.624 310.751 178.234 310.98 177.784C311.208 177.334 311.329 176.838 311.333 176.333C311.325 175.752 311.168 175.183 310.876 174.681C310.584 174.178 310.167 173.76 309.667 173.465V171.333H308V174.667C308.33 174.667 308.652 174.764 308.926 174.947C309.2 175.131 309.414 175.391 309.54 175.695C309.666 176 309.699 176.335 309.635 176.658C309.57 176.982 309.412 177.279 309.178 177.512C308.945 177.745 308.648 177.904 308.325 177.968C308.002 178.032 307.667 177.999 307.362 177.873C307.058 177.747 306.797 177.533 306.614 177.259C306.431 176.985 306.333 176.663 306.333 176.333H304.667ZM307.992 179.623L308 179.625L308.028 179.622L315.787 184.643H300.237L307.992 179.623ZM299.667 198C299.667 198.442 299.491 198.866 299.178 199.178C298.866 199.491 298.442 199.667 298 199.667C297.558 199.667 297.134 199.491 296.821 199.178C296.509 198.866 296.333 198.442 296.333 198V191.333C296.333 190.891 296.509 190.467 296.821 190.155C297.134 189.842 297.558 189.667 298 189.667C298.442 189.667 298.866 189.842 299.178 190.155C299.491 190.467 299.667 190.891 299.667 191.333V198ZM306.333 198C306.333 198.442 306.158 198.866 305.845 199.178C305.533 199.491 305.109 199.667 304.667 199.667C304.225 199.667 303.801 199.491 303.488 199.178C303.176 198.866 303 198.442 303 198V191.333C303 190.891 303.176 190.467 303.488 190.155C303.801 189.842 304.225 189.667 304.667 189.667C305.109 189.667 305.533 189.842 305.845 190.155C306.158 190.467 306.333 190.891 306.333 191.333V198ZM313 198C313 198.442 312.824 198.866 312.512 199.178C312.199 199.491 311.775 199.667 311.333 199.667C310.891 199.667 310.467 199.491 310.155 199.178C309.842 198.866 309.667 198.442 309.667 198V191.333C309.667 190.891 309.842 190.467 310.155 190.155C310.467 189.842 310.891 189.667 311.333 189.667C311.775 189.667 312.199 189.842 312.512 190.155C312.824 190.467 313 190.891 313 191.333V198ZM319.667 198C319.667 198.442 319.491 198.866 319.178 199.178C318.866 199.491 318.442 199.667 318 199.667C317.558 199.667 317.134 199.491 316.821 199.178C316.509 198.866 316.333 198.442 316.333 198V191.333C316.333 190.891 316.509 190.467 316.821 190.155C317.134 189.842 317.558 189.667 318 189.667C318.442 189.667 318.866 189.842 319.178 190.155C319.491 190.467 319.667 190.891 319.667 191.333V198Z" fill="#333333"/>
<path d="M380.019 183.258C378.851 183.258 377.758 183.711 376.93 184.539C376.105 185.367 375.648 186.461 375.648 187.629C375.648 188.797 376.105 189.891 376.93 190.719C377.758 191.543 378.851 192 380.019 192C381.187 192 382.281 191.543 383.109 190.719C383.934 189.891 384.391 188.797 384.391 187.629C384.391 186.461 383.934 185.367 383.109 184.539C382.705 184.131 382.223 183.808 381.693 183.588C381.163 183.368 380.594 183.256 380.019 183.258ZM396.125 192.457L393.57 190.273C393.691 189.531 393.754 188.773 393.754 188.02C393.754 187.266 393.691 186.504 393.57 185.766L396.125 183.582C396.318 183.417 396.456 183.197 396.521 182.951C396.586 182.706 396.574 182.446 396.488 182.207L396.453 182.105C395.75 180.139 394.696 178.317 393.344 176.727L393.273 176.645C393.109 176.451 392.89 176.313 392.645 176.246C392.401 176.18 392.142 176.19 391.902 176.273L388.73 177.402C387.559 176.441 386.254 175.684 384.84 175.156L384.226 171.84C384.18 171.59 384.059 171.36 383.879 171.181C383.699 171.002 383.469 170.881 383.219 170.836L383.113 170.816C381.082 170.449 378.941 170.449 376.91 170.816L376.805 170.836C376.555 170.881 376.324 171.002 376.144 171.181C375.964 171.36 375.843 171.59 375.797 171.84L375.18 175.172C373.779 175.703 372.474 176.459 371.316 177.41L368.121 176.273C367.882 176.189 367.623 176.179 367.378 176.245C367.133 176.312 366.914 176.451 366.75 176.645L366.68 176.727C365.329 178.319 364.276 180.141 363.57 182.105L363.535 182.207C363.359 182.695 363.504 183.242 363.898 183.582L366.484 185.789C366.363 186.523 366.305 187.273 366.305 188.016C366.305 188.766 366.363 189.516 366.484 190.242L363.906 192.449C363.713 192.614 363.575 192.834 363.51 193.08C363.445 193.326 363.457 193.585 363.543 193.824L363.578 193.926C364.285 195.891 365.328 197.707 366.687 199.305L366.758 199.387C366.922 199.58 367.141 199.719 367.386 199.785C367.63 199.851 367.89 199.842 368.129 199.758L371.324 198.621C372.488 199.578 373.785 200.336 375.187 200.859L375.805 204.191C375.851 204.441 375.972 204.671 376.152 204.85C376.332 205.03 376.562 205.15 376.812 205.195L376.918 205.215C378.969 205.584 381.07 205.584 383.121 205.215L383.226 205.195C383.476 205.15 383.707 205.03 383.887 204.85C384.067 204.671 384.188 204.441 384.234 204.191L384.848 200.875C386.262 200.344 387.566 199.59 388.738 198.629L391.91 199.758C392.149 199.842 392.409 199.852 392.653 199.786C392.898 199.72 393.117 199.58 393.281 199.387L393.351 199.305C394.711 197.699 395.754 195.891 396.461 193.926L396.496 193.824C396.664 193.34 396.519 192.797 396.125 192.457ZM380.019 194.496C376.226 194.496 373.152 191.422 373.152 187.629C373.152 183.836 376.226 180.762 380.019 180.762C383.812 180.762 386.887 183.836 386.887 187.629C386.887 191.422 383.812 194.496 380.019 194.496Z" fill="#333333"/>
<path d="M458.667 196.333H453.667V189.667H450.333V196.333H445.333V198H435.333V201.333H445.333V203H458.667V201.333H468.667V198H458.667V196.333Z" fill="#333333"/>
<path d="M457 189.667H462C462.442 189.667 462.866 189.491 463.178 189.179C463.491 188.866 463.667 188.442 463.667 188V176.333C463.667 175.891 463.491 175.467 463.178 175.155C462.866 174.842 462.442 174.667 462 174.667H452L450.333 173H442C441.558 173 441.134 173.176 440.821 173.488C440.509 173.801 440.333 174.225 440.333 174.667V188C440.333 188.442 440.509 188.866 440.821 189.179C441.134 189.491 441.558 189.667 442 189.667H457Z" fill="#333333"/>
<path d="M1.638 284H5.436C9.36 284 11.862 281.768 11.862 277.286C11.862 272.786 9.36 270.68 5.292 270.68H1.638V284ZM4.302 281.858V272.804H5.112C7.614 272.804 9.144 274.046 9.144 277.286C9.144 280.526 7.614 281.858 5.112 281.858H4.302ZM16.7376 284.252C17.8896 284.252 18.8976 283.694 19.7796 282.938H19.8516L20.0496 284H22.2096V278.132C22.2096 275.198 20.8956 273.686 18.3396 273.686C16.7376 273.686 15.3156 274.28 14.1276 275L15.0816 276.764C15.9996 276.206 16.9176 275.81 17.8536 275.81C19.0956 275.81 19.5096 276.548 19.5636 277.538C15.5136 277.988 13.7676 279.122 13.7676 281.264C13.7676 282.992 14.9376 284.252 16.7376 284.252ZM17.6016 282.182C16.8276 282.182 16.2876 281.84 16.2876 281.066C16.2876 280.148 17.0976 279.482 19.5636 279.176V281.21C18.9156 281.84 18.3576 282.182 17.6016 282.182ZM27.7864 284.252C30.3964 284.252 31.7824 282.848 31.7824 281.066C31.7824 279.212 30.3244 278.528 28.9924 278.024C27.9124 277.646 26.9944 277.358 26.9944 276.638C26.9944 276.044 27.4084 275.648 28.3264 275.648C29.0644 275.648 29.7844 276.008 30.4864 276.512L31.6924 274.928C30.8644 274.28 29.7124 273.686 28.2544 273.686C25.9504 273.686 24.5104 274.964 24.5104 276.746C24.5104 278.456 25.9324 279.212 27.2104 279.716C28.2544 280.112 29.3164 280.472 29.3164 281.21C29.3164 281.84 28.8484 282.29 27.8404 282.29C26.9044 282.29 26.0584 281.876 25.1404 281.174L23.9524 282.848C24.9424 283.676 26.4364 284.252 27.7864 284.252ZM33.8185 284H36.4645V277.07C37.2025 276.35 37.7245 275.954 38.5525 275.954C39.5245 275.954 39.9745 276.476 39.9745 278.06V284H42.6205V277.718C42.6205 275.198 41.6665 273.686 39.5065 273.686C38.1385 273.686 37.1305 274.406 36.3385 275.162L36.4645 273.272V269.654H33.8185V284ZM50.3722 284.252C52.5862 284.252 54.6562 282.272 54.6562 278.798C54.6562 275.702 53.1622 273.686 50.6962 273.686C49.6882 273.686 48.6982 274.172 47.8882 274.874L47.9782 273.272V269.654H45.3322V284H47.4022L47.6182 282.938H47.6902C48.5002 283.784 49.4722 284.252 50.3722 284.252ZM49.7962 282.074C49.2562 282.074 48.5902 281.894 47.9782 281.336V276.89C48.6442 276.188 49.2742 275.846 49.9402 275.846C51.3442 275.846 51.9382 276.908 51.9382 278.852C51.9382 281.03 51.0022 282.074 49.7962 282.074ZM61.1281 284.252C63.6481 284.252 65.9521 282.308 65.9521 278.978C65.9521 275.63 63.6481 273.686 61.1281 273.686C58.5901 273.686 56.2861 275.63 56.2861 278.978C56.2861 282.308 58.5901 284.252 61.1281 284.252ZM61.1281 282.11C59.7421 282.11 58.9861 280.868 58.9861 278.978C58.9861 277.07 59.7421 275.846 61.1281 275.846C62.4961 275.846 63.2521 277.07 63.2521 278.978C63.2521 280.868 62.4961 282.11 61.1281 282.11ZM70.2982 284.252C71.4502 284.252 72.4582 283.694 73.3402 282.938H73.4122L73.6102 284H75.7702V278.132C75.7702 275.198 74.4562 273.686 71.9002 273.686C70.2982 273.686 68.8762 274.28 67.6882 275L68.6422 276.764C69.5602 276.206 70.4782 275.81 71.4142 275.81C72.6562 275.81 73.0702 276.548 73.1242 277.538C69.0742 277.988 67.3282 279.122 67.3282 281.264C67.3282 282.992 68.4982 284.252 70.2982 284.252ZM71.1622 282.182C70.3882 282.182 69.8482 281.84 69.8482 281.066C69.8482 280.148 70.6582 279.482 73.1242 279.176V281.21C72.4762 281.84 71.9182 282.182 71.1622 282.182ZM78.4669 284H81.1129V278.006C81.6709 276.548 82.6249 276.008 83.3989 276.008C83.8309 276.008 84.1009 276.08 84.4609 276.17L84.9109 273.902C84.6049 273.758 84.2809 273.686 83.7409 273.686C82.6969 273.686 81.5989 274.388 80.8789 275.72H80.8249L80.6089 273.938H78.4669V284ZM89.5715 284.252C90.6155 284.252 91.6235 283.694 92.3615 282.956H92.4155L92.6135 284H94.7735V269.654H92.1275V273.182L92.2355 274.766C91.4975 274.1 90.7955 273.686 89.6615 273.686C87.5015 273.686 85.4315 275.684 85.4315 278.978C85.4315 282.29 87.0515 284.252 89.5715 284.252ZM90.2375 282.074C88.9235 282.074 88.1495 281.048 88.1495 278.942C88.1495 276.926 89.1215 275.846 90.2555 275.846C90.8855 275.846 91.5335 276.062 92.1275 276.62V281.048C91.5515 281.786 90.9575 282.074 90.2375 282.074Z" fill="#333333"/>
<path d="M20 315.342C16.1872 315.338 12.4527 316.425 9.23771 318.475C6.02269 320.524 3.4614 323.451 1.85634 326.91C0.251272 330.368 -0.330525 334.214 0.179657 337.992C0.689839 341.771 2.27069 345.325 4.73551 348.234L5.09895 348.658H34.901L35.2645 348.234C37.7293 345.325 39.3102 341.771 39.8203 337.992C40.3305 334.214 39.7487 330.368 38.1437 326.91C36.5386 323.451 33.9773 320.524 30.7623 318.475C27.5473 316.425 23.8128 315.338 20 315.342ZM30.4186 326.827L23.2467 333.866C23.6133 334.641 23.6941 335.52 23.4749 336.349C23.2557 337.178 22.7506 337.902 22.0489 338.395C21.3471 338.887 20.4939 339.116 19.64 339.04C18.786 338.964 17.9864 338.589 17.3824 337.98C16.7783 337.372 16.4088 336.57 16.339 335.715C16.2692 334.861 16.5037 334.009 17.0011 333.311C17.4984 332.613 18.2266 332.113 19.0569 331.9C19.8872 331.686 20.7662 331.773 21.5386 332.145L28.6983 325.107L30.4186 326.827ZM2.55487 334.302H6.67386V336.725H2.50641C2.50641 336.252 2.44583 335.792 2.44583 335.307C2.44583 334.823 2.47006 334.641 2.49429 334.302H2.55487ZM8.46683 322.187L11.447 325.167L9.66618 326.839L6.67386 323.871C7.21093 323.258 7.78978 322.684 8.40625 322.151L8.46683 322.187ZM21.2115 322.054H18.7885V317.814H20C20.4482 317.814 20.848 317.814 21.2115 317.874V322.054ZM37.5542 335.319C37.5542 335.792 37.5542 336.276 37.4936 336.737H33.2292V334.314H37.5057C37.5299 334.641 37.5542 334.98 37.5542 335.319Z" fill="#333333"/>
<path d="M86.2857 342C86.2857 343.19 85.869 344.202 85.0357 345.036C84.2024 345.869 83.1905 346.286 82 346.286C80.8095 346.286 79.7976 345.869 78.9643 345.036C78.131 344.202 77.7143 343.19 77.7143 342C77.7143 341.107 77.9747 340.289 78.4955 339.545C79.0164 338.801 79.7083 338.272 80.5714 337.96V317.714H83.4286V337.96C84.2917 338.272 84.9836 338.801 85.5045 339.545C86.0253 340.289 86.2857 341.107 86.2857 342ZM89.1429 342C89.1429 340.854 88.8899 339.783 88.3839 338.786C87.878 337.789 87.1786 336.955 86.2857 336.286V319.143C86.2857 317.952 85.869 316.94 85.0357 316.107C84.2024 315.274 83.1905 314.857 82 314.857C80.8095 314.857 79.7976 315.274 78.9643 316.107C78.131 316.94 77.7143 317.952 77.7143 319.143V336.286C76.8214 336.955 76.122 337.789 75.6161 338.786C75.1101 339.783 74.8571 340.854 74.8571 342C74.8571 343.979 75.5528 345.664 76.9442 347.056C78.3356 348.447 80.0208 349.143 82 349.143C83.9792 349.143 85.6644 348.447 87.0558 347.056C88.4472 345.664 89.1429 343.979 89.1429 342ZM92 342C92 344.753 91.0216 347.108 89.0647 349.065C87.1079 351.022 84.753 352 82 352C79.247 352 76.8921 351.022 74.9353 349.065C72.9784 347.108 72 344.753 72 342C72 339.292 72.9524 336.963 74.8571 335.013V319.143C74.8571 317.164 75.5528 315.478 76.9442 314.087C78.3356 312.696 80.0208 312 82 312C83.9792 312 85.6644 312.696 87.0558 314.087C88.4472 315.478 89.1429 317.164 89.1429 319.143V335.013C91.0476 336.963 92 339.292 92 342ZM94.8571 329.143V332H90.5714V329.143H94.8571ZM94.8571 323.429V326.286H90.5714V323.429H94.8571ZM94.8571 317.714V320.571H90.5714V317.714H94.8571Z" fill="#333333"/>
<path d="M142.857 312C132.197 321.1 126.857 328.96 126.857 335.6C126.857 345.56 134.457 352 142.857 352C151.257 352 158.857 345.56 158.857 335.6C158.857 328.96 153.517 321.1 142.857 312ZM134.517 336C135.257 336 135.857 336.52 135.997 337.24C136.817 341.68 140.557 343.2 143.277 342.98C144.137 342.94 144.857 343.62 144.857 344.48C144.857 345.28 144.217 345.94 143.417 345.98C139.157 346.24 134.177 343.8 133.037 337.74C133.002 337.526 133.015 337.306 133.073 337.097C133.131 336.888 133.235 336.694 133.375 336.528C133.516 336.363 133.691 336.23 133.888 336.139C134.085 336.047 134.3 336 134.517 336Z" fill="#333333"/>
<path d="M230.539 325.68C219.466 315.438 202.244 315.442 191.175 325.68C190.759 326.065 190.751 326.717 191.153 327.116L193.293 329.239C193.677 329.621 194.295 329.629 194.693 329.263C203.813 320.908 217.9 320.906 227.022 329.263C227.42 329.629 228.038 329.62 228.422 329.239L230.562 327.116C230.963 326.717 230.955 326.065 230.539 325.68ZM210.857 338C208.648 338 206.857 339.791 206.857 342C206.857 344.209 208.648 346 210.857 346C213.067 346 214.857 344.209 214.857 342C214.857 339.791 213.067 338 210.857 338ZM223.524 332.776C216.32 326.405 205.386 326.412 198.19 332.776C197.759 333.157 197.745 333.819 198.155 334.222L200.307 336.347C200.682 336.717 201.286 336.742 201.685 336.397C206.932 331.861 214.794 331.871 220.028 336.397C220.428 336.742 221.032 336.717 221.407 336.347L223.559 334.222C223.969 333.819 223.955 333.156 223.524 332.776Z" fill="#333333"/>
<path d="M280.197 316H276.857V314C276.857 312.9 275.957 312 274.857 312H270.857C269.757 312 268.857 312.9 268.857 314V316H265.517C264.057 316 262.857 317.2 262.857 318.66V349.32C262.857 350.8 264.057 352 265.537 352H280.177C281.657 352 282.857 350.8 282.857 349.34V318.66C282.857 317.2 281.657 316 280.197 316ZM278.077 334.48L272.737 344.48C272.257 345.38 270.857 345.04 270.857 344V337H268.517C268.343 337 268.172 336.956 268.021 336.87C267.87 336.784 267.744 336.66 267.655 336.511C267.566 336.362 267.518 336.192 267.515 336.018C267.511 335.844 267.554 335.672 267.637 335.52L272.977 325.52C273.457 324.62 274.857 324.96 274.857 326V333H277.197C277.937 333 278.437 333.8 278.077 334.48Z" fill="#333333"/>
<path d="M324.737 344.48C324.257 345.38 322.857 345.04 322.857 344V342H314.857V349.34C314.857 350.8 316.057 352 317.517 352H332.177C333.657 352 334.857 350.8 334.857 349.34V342H326.057L324.737 344.48Z" fill="#333333"/>
<path d="M332.197 316H328.857V314C328.857 312.9 327.957 312 326.857 312H322.857C321.757 312 320.857 312.9 320.857 314V316H317.517C316.057 316 314.857 317.2 314.857 318.66V342H322.857V337H320.517C320.343 337 320.172 336.956 320.021 336.87C319.87 336.784 319.744 336.66 319.655 336.511C319.566 336.362 319.518 336.192 319.515 336.018C319.511 335.844 319.554 335.672 319.637 335.52L324.977 325.52C325.457 324.62 326.857 324.96 326.857 326V333H329.197C329.957 333 330.437 333.8 330.077 334.48L326.057 342H334.857V318.66C334.857 317.2 333.657 316 332.197 316Z" fill="#C4C4C4"/>
<path d="M401.857 318.667H371.857C370.937 318.667 370.19 319.413 370.19 320.333V333.667C370.19 334.587 370.937 335.333 371.857 335.333H401.857C402.778 335.333 403.524 334.587 403.524 333.667V320.333C403.524 319.413 402.778 318.667 401.857 318.667Z" stroke="#333333" stroke-width="2" stroke-linecap="round" stroke-linejoin="round"/>
<path d="M376.857 328.667H396.857V335.333H376.857V328.667Z" stroke="#333333" stroke-width="2" stroke-linecap="round" stroke-linejoin="round"/>
<path d="M393.524 323.667H396.857" stroke="#333333" stroke-width="2" stroke-linecap="round" stroke-linejoin="round"/>
<path d="M386.857 340.333V345.333" stroke="#333333" stroke-width="2" stroke-linecap="round" stroke-linejoin="round"/>
<path d="M380.19 342V343.667" stroke="#333333" stroke-width="2" stroke-linecap="round" stroke-linejoin="round"/>
<path d="M393.524 342V343.667" stroke="#333333" stroke-width="2" stroke-linecap="round" stroke-linejoin="round"/>
<path d="M476.973 325.328C476.564 324.394 475.977 323.549 475.243 322.841C474.503 322.124 473.632 321.556 472.678 321.166C471.682 320.757 470.614 320.548 469.537 320.551C468.448 320.551 467.39 320.758 466.396 321.166C465.442 321.555 464.571 322.124 463.831 322.841C463.097 323.549 462.509 324.394 462.102 325.328C461.681 326.288 461.465 327.325 461.466 328.373V342.926C461.466 346.007 458.882 348.514 455.703 348.514C452.525 348.514 449.938 346.007 449.938 342.926V336.221H451.76C452.143 336.221 452.452 335.921 452.452 335.55V333.068C454.445 331.874 455.772 329.738 455.772 327.301V324.483H456.775C457.157 324.483 457.467 324.184 457.467 323.812V321.197C457.467 320.887 457.25 320.626 456.957 320.55H452.902V313.921C452.904 313.551 452.594 313.25 452.212 313.25H451.29C450.907 313.25 450.598 313.551 450.598 313.921V320.55H446.978V313.921C446.978 313.551 446.668 313.25 446.286 313.25H445.363C444.982 313.25 444.672 313.551 444.672 313.921V320.55H440.618C440.474 320.586 440.345 320.67 440.252 320.787C440.16 320.904 440.109 321.049 440.107 321.198V323.812C440.107 324.184 440.417 324.483 440.798 324.483H441.802V327.301C441.802 329.738 443.128 331.874 445.122 333.068V335.55C445.122 335.921 445.43 336.221 445.812 336.221H447.634V342.926C447.634 343.982 447.848 345.007 448.268 345.972C448.677 346.906 449.264 347.751 449.998 348.459C450.738 349.176 451.609 349.746 452.563 350.136C453.558 350.544 454.616 350.75 455.704 350.75C456.792 350.75 457.852 350.544 458.845 350.136C459.8 349.746 460.67 349.177 461.41 348.459C462.144 347.752 462.732 346.907 463.14 345.972C463.56 345.012 463.776 343.974 463.775 342.926V328.373C463.775 325.293 466.359 322.785 469.538 322.785C472.717 322.785 475.303 325.293 475.303 328.373V350.75H477.607V328.373C477.607 327.318 477.393 326.293 476.973 325.328Z" fill="#333333"/>
<path d="M530.824 328.369C529.933 328.369 529.098 328.715 528.467 329.347C527.838 329.979 527.489 330.813 527.489 331.704C527.489 332.596 527.838 333.43 528.467 334.062C529.098 334.691 529.933 335.04 530.824 335.04C531.715 335.04 532.55 334.691 533.182 334.062C533.81 333.43 534.159 332.596 534.159 331.704C534.159 330.813 533.81 329.979 533.182 329.347C532.873 329.036 532.506 328.789 532.101 328.622C531.696 328.454 531.262 328.368 530.824 328.369ZM543.112 335.388L541.163 333.722C541.255 333.156 541.303 332.578 541.303 332.002C541.303 331.427 541.255 330.846 541.163 330.283L543.112 328.617C543.259 328.491 543.365 328.323 543.414 328.135C543.464 327.948 543.455 327.75 543.389 327.568L543.363 327.49C542.826 325.99 542.022 324.6 540.99 323.386L540.936 323.324C540.811 323.176 540.644 323.07 540.457 323.02C540.271 322.969 540.073 322.976 539.89 323.04L537.47 323.902C536.576 323.169 535.581 322.59 534.502 322.188L534.034 319.658C533.999 319.467 533.906 319.292 533.769 319.155C533.631 319.018 533.456 318.926 533.265 318.892L533.184 318.877C531.635 318.597 530.001 318.597 528.452 318.877L528.371 318.892C528.18 318.926 528.005 319.018 527.867 319.155C527.73 319.292 527.638 319.467 527.602 319.658L527.131 322.2C526.063 322.606 525.067 323.182 524.184 323.908L521.746 323.04C521.563 322.976 521.365 322.968 521.179 323.019C520.992 323.07 520.825 323.176 520.7 323.324L520.646 323.386C519.616 324.601 518.812 325.991 518.274 327.49L518.247 327.568C518.113 327.94 518.223 328.357 518.524 328.617L520.497 330.301C520.405 330.861 520.36 331.433 520.36 332C520.36 332.572 520.405 333.144 520.497 333.698L518.53 335.382C518.383 335.508 518.277 335.676 518.228 335.864C518.178 336.051 518.187 336.249 518.253 336.431L518.28 336.509C518.819 338.008 519.615 339.394 520.652 340.613L520.706 340.675C520.831 340.823 520.998 340.929 521.185 340.979C521.371 341.03 521.569 341.023 521.752 340.959L524.19 340.091C525.078 340.821 526.067 341.4 527.137 341.799L527.608 344.341C527.643 344.532 527.736 344.707 527.873 344.844C528.011 344.981 528.186 345.073 528.377 345.107L528.458 345.122C530.023 345.404 531.625 345.404 533.19 345.122L533.271 345.107C533.462 345.073 533.637 344.981 533.775 344.844C533.912 344.707 534.005 344.532 534.04 344.341L534.508 341.811C535.587 341.406 536.582 340.83 537.476 340.097L539.896 340.959C540.079 341.023 540.277 341.031 540.464 340.98C540.65 340.929 540.817 340.823 540.942 340.675L540.996 340.613C542.033 339.388 542.829 338.008 543.368 336.509L543.395 336.431C543.523 336.062 543.413 335.648 543.112 335.388ZM530.824 336.944C527.93 336.944 525.585 334.598 525.585 331.704C525.585 328.811 527.93 326.465 530.824 326.465C533.718 326.465 536.064 328.811 536.064 331.704C536.064 334.598 533.718 336.944 530.824 336.944Z" fill="#333333"/>
</svg>
