<svg width="23" height="40" viewBox="0 0 23 40" fill="none" xmlns="http://www.w3.org/2000/svg">
<path d="M14.2857 30C14.2857 31.1905 13.869 32.2024 13.0357 33.0357C12.2024 33.869 11.1905 34.2857 10 34.2857C8.80952 34.2857 7.79762 33.869 6.96429 33.0357C6.13095 32.2024 5.71429 31.1905 5.71429 30C5.71429 29.1071 5.9747 28.2887 6.49554 27.5446C7.01637 26.8006 7.70833 26.2723 8.57143 25.9598V5.71429H11.4286V25.9598C12.2917 26.2723 12.9836 26.8006 13.5045 27.5446C14.0253 28.2887 14.2857 29.1071 14.2857 30ZM17.1429 30C17.1429 28.8542 16.8899 27.7827 16.3839 26.7857C15.878 25.7887 15.1786 24.9554 14.2857 24.2857V7.14286C14.2857 5.95238 13.869 4.94048 13.0357 4.10714C12.2024 3.27381 11.1905 2.85714 10 2.85714C8.80952 2.85714 7.79762 3.27381 6.96429 4.10714C6.13095 4.94048 5.71429 5.95238 5.71429 7.14286V24.2857C4.82143 24.9554 4.12202 25.7887 3.61607 26.7857C3.11012 27.7827 2.85714 28.8542 2.85714 30C2.85714 31.9792 3.55283 33.6644 4.9442 35.0558C6.33557 36.4472 8.02083 37.1429 10 37.1429C11.9792 37.1429 13.6644 36.4472 15.0558 35.0558C16.4472 33.6644 17.1429 31.9792 17.1429 30ZM20 30C20 32.753 19.0216 35.1079 17.0647 37.0647C15.1079 39.0216 12.753 40 10 40C7.24702 40 4.89211 39.0216 2.93527 37.0647C0.978423 35.1079 0 32.753 0 30C0 27.2917 0.952381 24.9628 2.85714 23.0134V7.14286C2.85714 5.16369 3.55283 3.47842 4.9442 2.08705C6.33557 0.695685 8.02083 0 10 0C11.9792 0 13.6644 0.695685 15.0558 2.08705C16.4472 3.47842 17.1429 5.16369 17.1429 7.14286V23.0134C19.0476 24.9628 20 27.2917 20 30ZM22.8571 17.1429V20H18.5714V17.1429H22.8571ZM22.8571 11.4286V14.2857H18.5714V11.4286H22.8571ZM22.8571 5.71429V8.57143H18.5714V5.71429H22.8571Z" fill="#333333"/>
</svg>
