<svg width="41" height="40" viewBox="0 0 41 40" fill="none" xmlns="http://www.w3.org/2000/svg">
<path d="M20.824 16.3694C19.9329 16.3694 19.0984 16.7151 18.4665 17.347C17.8377 17.9788 17.489 18.8133 17.489 19.7045C17.489 20.5956 17.8377 21.4301 18.4665 22.0619C19.0984 22.6908 19.9329 23.0395 20.824 23.0395C21.7152 23.0395 22.5497 22.6908 23.1815 22.0619C23.8104 21.4301 24.1591 20.5956 24.1591 19.7045C24.1591 18.8133 23.8104 17.9788 23.1815 17.347C22.8729 17.036 22.5056 16.7894 22.1009 16.6216C21.6962 16.4538 21.2621 16.3681 20.824 16.3694ZM33.1122 23.3882L31.163 21.7222C31.2554 21.1559 31.3031 20.5777 31.3031 20.0025C31.3031 19.4273 31.2554 18.8461 31.163 18.2828L33.1122 16.6168C33.2594 16.4907 33.3648 16.3228 33.4143 16.1354C33.4638 15.948 33.4551 15.75 33.3893 15.5677L33.3625 15.4902C32.8261 13.9901 32.0223 12.5997 30.9901 11.3862L30.9365 11.3236C30.8111 11.1762 30.6441 11.0703 30.4573 11.0197C30.2706 10.9692 30.0729 10.9764 29.8904 11.0405L27.4703 11.9018C26.5762 11.1686 25.5807 10.5904 24.5018 10.1881L24.0339 7.65773C23.9986 7.46711 23.9061 7.29174 23.7688 7.15493C23.6314 7.01812 23.4557 6.92633 23.265 6.89177L23.1845 6.87687C21.6347 6.59671 20.0014 6.59671 18.4516 6.87687L18.3712 6.89177C18.1804 6.92633 18.0047 7.01812 17.8673 7.15493C17.73 7.29174 17.6375 7.46711 17.6022 7.65773L17.1313 10.2C16.0626 10.6056 15.0671 11.1824 14.1837 11.9078L11.7458 11.0405C11.5633 10.9759 11.3654 10.9684 11.1786 11.019C10.9917 11.0696 10.8247 11.1758 10.6997 11.3236L10.646 11.3862C9.61566 12.601 8.81209 13.9911 8.27362 15.4902L8.24679 15.5677C8.11267 15.9402 8.22295 16.3575 8.52397 16.6168L10.497 18.3007C10.4046 18.861 10.3599 19.4332 10.3599 19.9995C10.3599 20.5718 10.4046 21.144 10.497 21.6983L8.52993 23.3823C8.38268 23.5083 8.2773 23.6762 8.22779 23.8636C8.17828 24.051 8.18698 24.249 8.25275 24.4314L8.27958 24.5088C8.81903 26.008 9.61479 27.3939 10.652 28.6128L10.7056 28.6754C10.831 28.8228 10.998 28.9287 11.1847 28.9793C11.3715 29.0298 11.5692 29.0226 11.7517 28.9586L14.1897 28.0913C15.0778 28.8215 16.0673 29.3997 17.1373 29.799L17.6082 32.3413C17.6435 32.5319 17.736 32.7073 17.8733 32.8441C18.0107 32.9809 18.1864 33.0727 18.3771 33.1073L18.4576 33.1222C20.0226 33.4038 21.6254 33.4038 23.1905 33.1222L23.2709 33.1073C23.4617 33.0727 23.6374 32.9809 23.7748 32.8441C23.9121 32.7073 24.0046 32.5319 24.0399 32.3413L24.5078 29.811C25.5867 29.4056 26.5821 28.8304 27.4763 28.0972L29.8963 28.9586C30.0788 29.0231 30.2767 29.0306 30.4635 28.98C30.6504 28.9294 30.8174 28.8232 30.9424 28.6754L30.9961 28.6128C32.0333 27.3879 32.829 26.008 33.3685 24.5088L33.3953 24.4314C33.5235 24.0618 33.4132 23.6475 33.1122 23.3882ZM20.824 24.944C17.9301 24.944 15.5845 22.5984 15.5845 19.7045C15.5845 16.8105 17.9301 14.4649 20.824 14.4649C23.718 14.4649 26.0635 16.8105 26.0635 19.7045C26.0635 22.5984 23.718 24.944 20.824 24.944Z" fill="#333333"/>
</svg>
