<svg width="41" height="28" viewBox="0 0 41 28" fill="none" xmlns="http://www.w3.org/2000/svg">
<path d="M40.539 7.68C29.4659 -2.56187 12.244 -2.55812 1.17525 7.68C0.758999 8.065 0.750874 8.71687 1.15337 9.11625L3.29338 11.2394C3.67713 11.6206 4.29463 11.6287 4.69338 11.2631C13.8134 2.90813 27.8996 2.90625 37.0215 11.2631C37.4203 11.6287 38.0378 11.62 38.4215 11.2394L40.5615 9.11625C40.9634 8.71687 40.9553 8.065 40.539 7.68ZM20.8571 20C18.6478 20 16.8571 21.7906 16.8571 24C16.8571 26.2094 18.6478 28 20.8571 28C23.0665 28 24.8571 26.2094 24.8571 24C24.8571 21.7906 23.0665 20 20.8571 20ZM33.524 14.7756C26.3203 8.405 15.3859 8.41187 8.19025 14.7756C7.759 15.1569 7.74525 15.8187 8.15463 16.2225L10.3071 18.3469C10.6821 18.7169 11.2859 18.7419 11.6853 18.3969C16.9321 13.8612 24.794 13.8712 30.0284 18.3969C30.4278 18.7419 31.0315 18.7175 31.4065 18.3469L33.559 16.2225C33.969 15.8187 33.9546 15.1562 33.524 14.7756Z" fill="#333333"/>
</svg>
