<svg width="41" height="40" viewBox="0 0 41 40" fill="none" xmlns="http://www.w3.org/2000/svg">
<path d="M38.9728 13.3281C38.5641 12.3943 37.9766 11.5495 37.2434 10.8413C36.503 10.1244 35.6324 9.55561 34.6784 9.16563C33.6816 8.75741 32.6144 8.54847 31.5372 8.55062C30.4478 8.55062 29.3903 8.7575 28.3959 9.16563C27.4417 9.55507 26.571 10.1239 25.8309 10.8413C25.097 11.5488 24.5094 12.3938 24.1016 13.3281C23.6811 14.2881 23.4646 15.3251 23.4659 16.3731V30.9262C23.4659 34.0075 20.8816 36.5144 17.7028 36.5144C14.5247 36.5144 11.9384 34.0069 11.9384 30.9262V24.2206H13.7597C14.1428 24.2206 14.4522 23.9212 14.4522 23.55V21.0675C16.4447 19.8744 17.7722 17.7375 17.7722 15.3006V12.4831H18.7753C19.1566 12.4831 19.4666 12.1838 19.4666 11.8125V9.1975C19.4666 8.8875 19.2503 8.62625 18.9566 8.55H14.9022V1.92062C14.9041 1.55062 14.5941 1.25 14.2116 1.25H13.2897C12.9066 1.25 12.5978 1.55062 12.5978 1.92062V8.55H8.9778V1.92062C8.9778 1.55062 8.6678 1.25 8.28593 1.25H7.36343C6.98218 1.25 6.67218 1.55062 6.67218 1.92062V8.55H2.61843C2.47351 8.58623 2.3447 8.66951 2.25218 8.7868C2.15966 8.90409 2.10866 9.04875 2.10718 9.19812V11.8125C2.10718 12.1838 2.41718 12.4831 2.7978 12.4831H3.80155V15.3006C3.80155 17.7381 5.1278 19.8738 7.12155 21.0675V23.55C7.12155 23.9212 7.4303 24.2206 7.81218 24.2206H9.63405V30.9262C9.63405 31.9825 9.84843 33.0069 10.2684 33.9719C10.6767 34.906 11.2642 35.7509 11.9978 36.4587C12.7379 37.1764 13.6086 37.7456 14.5628 38.1356C15.5578 38.5438 16.6159 38.75 17.7041 38.75C18.7922 38.75 19.8516 38.5438 20.8453 38.1356C21.7996 37.7461 22.6702 37.1768 23.4097 36.4587C24.1445 35.7518 24.7324 34.9067 25.1397 33.9719C25.56 33.0116 25.7763 31.9745 25.7747 30.9262V16.3731C25.7747 13.2925 28.3591 10.785 31.5384 10.785C34.7166 10.785 37.3028 13.2931 37.3028 16.3731V38.75H39.6072V16.3731C39.6072 15.3181 39.3928 14.2925 38.9728 13.3281Z" fill="#333333"/>
</svg>
