<svg width="33" height="40" viewBox="0 0 33 40" fill="none" xmlns="http://www.w3.org/2000/svg">
<path d="M16.8572 0C6.19718 9.1 0.857178 16.96 0.857178 23.6C0.857178 33.56 8.45718 40 16.8572 40C25.2572 40 32.8572 33.56 32.8572 23.6C32.8572 16.96 27.5172 9.1 16.8572 0ZM8.51718 24C9.25718 24 9.85718 24.52 9.99718 25.24C10.8172 29.68 14.5572 31.2 17.2772 30.98C18.1372 30.94 18.8572 31.62 18.8572 32.48C18.8572 33.28 18.2172 33.94 17.4172 33.98C13.1572 34.24 8.17718 31.8 7.03718 25.74C7.00242 25.5256 7.01465 25.3062 7.07303 25.0969C7.1314 24.8877 7.23453 24.6936 7.37527 24.5281C7.51601 24.3627 7.69101 24.2298 7.88817 24.1386C8.08534 24.0474 8.29995 24.0001 8.51718 24Z" fill="#333333"/>
</svg>
