<svg width="21" height="40" viewBox="0 0 21 40" fill="none" xmlns="http://www.w3.org/2000/svg">
<path d="M10.7372 32.48C10.2572 33.38 8.85718 33.04 8.85718 32V30H0.857178V37.34C0.857178 38.8 2.05718 40 3.51718 40H18.1772C19.6572 40 20.8572 38.8 20.8572 37.34V30H12.0572L10.7372 32.48Z" fill="#333333"/>
<path d="M18.1972 4H14.8572V2C14.8572 0.9 13.9572 0 12.8572 0H8.85718C7.75718 0 6.85718 0.9 6.85718 2V4H3.51718C2.05718 4 0.857178 5.2 0.857178 6.66V30H8.85718V25H6.51718C6.34335 25.0005 6.17241 24.9556 6.0212 24.8699C5.86999 24.7842 5.74375 24.6605 5.65491 24.5111C5.56607 24.3617 5.51771 24.1917 5.5146 24.0179C5.5115 23.8441 5.55374 23.6725 5.63718 23.52L10.9772 13.52C11.4572 12.62 12.8572 12.96 12.8572 14V21H15.1972C15.9572 21 16.4372 21.8 16.0772 22.48L12.0572 30H20.8572V6.66C20.8572 5.2 19.6572 4 18.1972 4Z" fill="#C4C4C4"/>
</svg>
