<svg width="40" height="34" viewBox="0 0 40 34" fill="none" xmlns="http://www.w3.org/2000/svg">
<path d="M20 0.342298C16.1872 0.33793 12.4527 1.42479 9.23771 3.47451C6.02269 5.52424 3.4614 8.45121 1.85634 11.9097C0.251272 15.3683 -0.330525 19.2139 0.179657 22.9925C0.689839 26.771 2.27069 30.3246 4.73551 33.2336L5.09895 33.6577H34.901L35.2645 33.2336C37.7293 30.3246 39.3102 26.771 39.8203 22.9925C40.3305 19.2139 39.7487 15.3683 38.1437 11.9097C36.5386 8.45121 33.9773 5.52424 30.7623 3.47451C27.5473 1.42479 23.8128 0.33793 20 0.342298ZM30.4186 11.827L23.2467 18.8656C23.6133 19.6406 23.6941 20.5202 23.4749 21.349C23.2557 22.1777 22.7506 22.9024 22.0489 23.3948C21.3471 23.8872 20.4939 24.1157 19.64 24.0398C18.786 23.964 17.9864 23.5888 17.3824 22.9805C16.7783 22.3722 16.4088 21.5699 16.339 20.7155C16.2692 19.861 16.5037 19.0094 17.0011 18.3112C17.4984 17.6129 18.2266 17.1129 19.0569 16.8996C19.8872 16.6863 20.7662 16.7733 21.5386 17.1454L28.6983 10.1067L30.4186 11.827ZM2.55487 19.3018H6.67386V21.7247H2.50641C2.50641 21.2522 2.44583 20.7919 2.44583 20.3073C2.44583 19.8227 2.47006 19.641 2.49429 19.3018H2.55487ZM8.46683 7.18709L11.447 10.1673L9.66618 11.8391L6.67386 8.87103C7.21092 8.2583 7.78978 7.6835 8.40625 7.15075L8.46683 7.18709ZM21.2115 7.05383H18.7885V2.81369H20C20.4482 2.81369 20.848 2.81369 21.2115 2.87427V7.05383ZM37.5542 20.3194C37.5542 20.7919 37.5542 21.2765 37.4936 21.7368H33.2292V19.3139H37.5057C37.5299 19.641 37.5542 19.9802 37.5542 20.3194Z" fill="#333333"/>
</svg>
