<svg width="40" height="40" viewBox="0 0 40 40" fill="none" xmlns="http://www.w3.org/2000/svg">
<path d="M20.0194 15.2578C18.8515 15.2578 17.7577 15.7109 16.9296 16.5391C16.1054 17.3672 15.6483 18.4609 15.6483 19.6289C15.6483 20.7969 16.1054 21.8906 16.9296 22.7188C17.7577 23.543 18.8515 24 20.0194 24C21.1874 24 22.2812 23.543 23.1093 22.7188C23.9335 21.8906 24.3905 20.7969 24.3905 19.6289C24.3905 18.4609 23.9335 17.3672 23.1093 16.5391C22.7048 16.1315 22.2234 15.8083 21.6929 15.5884C21.1625 15.3684 20.5937 15.2561 20.0194 15.2578ZM36.1249 24.457L33.5702 22.2734C33.6913 21.5313 33.7538 20.7734 33.7538 20.0195C33.7538 19.2656 33.6913 18.5039 33.5702 17.7656L36.1249 15.582C36.3179 15.4168 36.456 15.1968 36.5209 14.9512C36.5858 14.7056 36.5744 14.446 36.4882 14.207L36.453 14.1055C35.75 12.1394 34.6965 10.317 33.3437 8.72656L33.2734 8.64453C33.1091 8.45138 32.8901 8.31253 32.6454 8.24628C32.4006 8.18004 32.1415 8.18951 31.9023 8.27344L28.7304 9.40235C27.5585 8.44141 26.2538 7.6836 24.8398 7.15625L24.2265 3.83984C24.1802 3.59001 24.059 3.36017 23.879 3.18085C23.699 3.00154 23.4687 2.88124 23.2187 2.83594L23.1132 2.81641C21.0819 2.44922 18.9413 2.44922 16.9101 2.81641L16.8046 2.83594C16.5546 2.88124 16.3243 3.00154 16.1443 3.18085C15.9642 3.36017 15.843 3.59001 15.7968 3.83984L15.1796 7.17188C13.7789 7.70342 12.4741 8.4594 11.3163 9.41016L8.12099 8.27344C7.8818 8.18884 7.62252 8.17903 7.37761 8.24531C7.13271 8.3116 6.91377 8.45084 6.7499 8.64453L6.67959 8.72656C5.32917 10.3187 4.27596 12.1407 3.57021 14.1055L3.53505 14.207C3.35927 14.6953 3.5038 15.2422 3.89833 15.582L6.48427 17.7891C6.36318 18.5234 6.30459 19.2734 6.30459 20.0156C6.30459 20.7656 6.36318 21.5156 6.48427 22.2422L3.90615 24.4492C3.71316 24.6144 3.57504 24.8345 3.51015 25.0801C3.44525 25.3257 3.45667 25.5853 3.54287 25.8242L3.57802 25.9258C4.28505 27.8906 5.32802 29.707 6.6874 31.3047L6.75771 31.3867C6.92199 31.5799 7.14093 31.7187 7.38569 31.785C7.63045 31.8512 7.88954 31.8418 8.12881 31.7578L11.3241 30.6211C12.4882 31.5781 13.7851 32.336 15.1874 32.8594L15.8046 36.1914C15.8509 36.4413 15.9721 36.6711 16.1521 36.8504C16.3321 37.0297 16.5624 37.15 16.8124 37.1953L16.9179 37.2149C18.9691 37.584 21.0698 37.584 23.121 37.2149L23.2265 37.1953C23.4765 37.15 23.7068 37.0297 23.8868 36.8504C24.0668 36.6711 24.188 36.4413 24.2343 36.1914L24.8476 32.875C26.2616 32.3438 27.5663 31.5899 28.7382 30.6289L31.9101 31.7578C32.1493 31.8424 32.4085 31.8522 32.6534 31.7859C32.8984 31.7197 33.1173 31.5804 33.2812 31.3867L33.3515 31.3047C34.7109 29.6992 35.7538 27.8906 36.4609 25.9258L36.496 25.8242C36.664 25.3399 36.5194 24.7969 36.1249 24.457ZM20.0194 26.4961C16.2265 26.4961 13.1522 23.4219 13.1522 19.6289C13.1522 15.8359 16.2265 12.7617 20.0194 12.7617C23.8124 12.7617 26.8866 15.8359 26.8866 19.6289C26.8866 23.4219 23.8124 26.4961 20.0194 26.4961Z" fill="#333333"/>
</svg>
