<svg width="40" height="40" viewBox="0 0 40 40" fill="none" xmlns="http://www.w3.org/2000/svg">
<path d="M16.6666 8.33325C16.6707 8.83987 16.7928 9.33857 17.023 9.78985C17.2533 10.2411 17.5855 10.6326 17.9933 10.9333L9.16659 16.6433H6.66159C5.77886 16.6433 4.93228 16.9939 4.3081 17.6181C3.68391 18.2423 3.33325 19.0889 3.33325 19.9716V33.3433C3.33325 34.226 3.68391 35.0726 4.3081 35.6967C4.93228 36.3209 5.77886 36.6716 6.66159 36.6716H33.3283C34.2138 36.6711 35.0629 36.3191 35.6889 35.6927C36.3149 35.0664 36.6666 34.2171 36.6666 33.3316V19.9716C36.6666 19.0889 36.3159 18.2423 35.6917 17.6181C35.0676 16.9939 34.221 16.6433 33.3383 16.6433H30.8533L22.0166 10.9249C22.4215 10.6242 22.7511 10.2336 22.9796 9.78388C23.2081 9.33419 23.3291 8.83763 23.3333 8.33325C23.3251 7.75227 23.1675 7.18318 22.8756 6.6808C22.5837 6.17841 22.1673 5.75967 21.6666 5.46492V3.33325H19.9999V6.66659C20.3296 6.66659 20.6518 6.76433 20.9259 6.94747C21.2 7.13061 21.4136 7.3909 21.5397 7.69545C21.6659 7.99999 21.6989 8.3351 21.6346 8.6584C21.5703 8.9817 21.4115 9.27868 21.1784 9.51176C20.9453 9.74485 20.6484 9.90359 20.3251 9.9679C20.0018 10.0322 19.6667 9.9992 19.3621 9.87305C19.0576 9.74691 18.7973 9.53328 18.6141 9.2592C18.431 8.98512 18.3333 8.66289 18.3333 8.33325H16.6666ZM19.9916 11.6233L19.9999 11.6249L20.0283 11.6216L27.7866 16.6433H12.2366L19.9916 11.6233ZM11.6666 29.9999C11.6666 30.4419 11.491 30.8659 11.1784 31.1784C10.8659 31.491 10.4419 31.6666 9.99992 31.6666C9.55789 31.6666 9.13397 31.491 8.82141 31.1784C8.50885 30.8659 8.33325 30.4419 8.33325 29.9999V23.3333C8.33325 22.8912 8.50885 22.4673 8.82141 22.1547C9.13397 21.8422 9.55789 21.6666 9.99992 21.6666C10.4419 21.6666 10.8659 21.8422 11.1784 22.1547C11.491 22.4673 11.6666 22.8912 11.6666 23.3333V29.9999ZM18.3333 29.9999C18.3333 30.4419 18.1577 30.8659 17.8451 31.1784C17.5325 31.491 17.1086 31.6666 16.6666 31.6666C16.2246 31.6666 15.8006 31.491 15.4881 31.1784C15.1755 30.8659 14.9999 30.4419 14.9999 29.9999V23.3333C14.9999 22.8912 15.1755 22.4673 15.4881 22.1547C15.8006 21.8422 16.2246 21.6666 16.6666 21.6666C17.1086 21.6666 17.5325 21.8422 17.8451 22.1547C18.1577 22.4673 18.3333 22.8912 18.3333 23.3333V29.9999ZM24.9999 29.9999C24.9999 30.4419 24.8243 30.8659 24.5118 31.1784C24.1992 31.491 23.7753 31.6666 23.3333 31.6666C22.8912 31.6666 22.4673 31.491 22.1547 31.1784C21.8422 30.8659 21.6666 30.4419 21.6666 29.9999V23.3333C21.6666 22.8912 21.8422 22.4673 22.1547 22.1547C22.4673 21.8422 22.8912 21.6666 23.3333 21.6666C23.7753 21.6666 24.1992 21.8422 24.5118 22.1547C24.8243 22.4673 24.9999 22.8912 24.9999 23.3333V29.9999ZM31.6666 29.9999C31.6666 30.4419 31.491 30.8659 31.1784 31.1784C30.8659 31.491 30.4419 31.6666 29.9999 31.6666C29.5579 31.6666 29.134 31.491 28.8214 31.1784C28.5088 30.8659 28.3333 30.4419 28.3333 29.9999V23.3333C28.3333 22.8912 28.5088 22.4673 28.8214 22.1547C29.134 21.8422 29.5579 21.6666 29.9999 21.6666C30.4419 21.6666 30.8659 21.8422 31.1784 22.1547C31.491 22.4673 31.6666 22.8912 31.6666 23.3333V29.9999Z" fill="#333333"/>
</svg>
