<svg width="40" height="40" viewBox="0 0 40 40" fill="none" xmlns="http://www.w3.org/2000/svg">
<path d="M33.3333 16.6667V13.3333C33.3333 12.4493 32.9821 11.6014 32.3569 10.9763C31.7318 10.3512 30.884 10 29.9999 10H6.66659C5.78253 10 4.93468 10.3512 4.30956 10.9763C3.68444 11.6014 3.33325 12.4493 3.33325 13.3333V26.6667C3.33325 27.5507 3.68444 28.3986 4.30956 29.0237C4.93468 29.6488 5.78253 30 6.66659 30H29.9999C30.884 30 31.7318 29.6488 32.3569 29.0237C32.9821 28.3986 33.3333 27.5507 33.3333 26.6667V23.3333H36.6666V16.6667H33.3333ZM14.9999 28.3333L18.3333 21.85L11.6666 20L21.6666 11.6667L19.9999 18.15L26.6666 20L14.9999 28.3333Z" fill="#333333"/>
</svg>
