<svg width="40" height="40" viewBox="0 0 40 40" fill="none" xmlns="http://www.w3.org/2000/svg">
<path fill-rule="evenodd" clip-rule="evenodd" d="M15.4166 5C8.74325 5 3.33325 10.41 3.33325 17.0833C3.33325 32.0833 23.3333 35 23.3333 35V29.1667H24.5833C31.2566 29.1667 36.6666 23.7567 36.6666 17.0833C36.6666 10.41 31.2566 5 24.5833 5H15.4166ZM19.9999 19.5833C20.5525 19.5833 21.0824 19.3638 21.4731 18.9731C21.8638 18.5824 22.0833 18.0525 22.0833 17.5C22.0833 16.9475 21.8638 16.4176 21.4731 16.0269C21.0824 15.6362 20.5525 15.4167 19.9999 15.4167C19.4474 15.4167 18.9175 15.6362 18.5268 16.0269C18.1361 16.4176 17.9166 16.9475 17.9166 17.5C17.9166 18.0525 18.1361 18.5824 18.5268 18.9731C18.9175 19.3638 19.4474 19.5833 19.9999 19.5833V19.5833ZM28.7499 17.5C28.7499 18.0525 28.5304 18.5824 28.1397 18.9731C27.749 19.3638 27.2191 19.5833 26.6666 19.5833C26.1141 19.5833 25.5841 19.3638 25.1934 18.9731C24.8027 18.5824 24.5833 18.0525 24.5833 17.5C24.5833 16.9475 24.8027 16.4176 25.1934 16.0269C25.5841 15.6362 26.1141 15.4167 26.6666 15.4167C27.2191 15.4167 27.749 15.6362 28.1397 16.0269C28.5304 16.4176 28.7499 16.9475 28.7499 17.5ZM13.3333 19.5833C13.8858 19.5833 14.4157 19.3638 14.8064 18.9731C15.1971 18.5824 15.4166 18.0525 15.4166 17.5C15.4166 16.9475 15.1971 16.4176 14.8064 16.0269C14.4157 15.6362 13.8858 15.4167 13.3333 15.4167C12.7807 15.4167 12.2508 15.6362 11.8601 16.0269C11.4694 16.4176 11.2499 16.9475 11.2499 17.5C11.2499 18.0525 11.4694 18.5824 11.8601 18.9731C12.2508 19.3638 12.7807 19.5833 13.3333 19.5833V19.5833Z" fill="#333333"/>
</svg>
