<svg width="40" height="40" viewBox="0 0 40 40" fill="none" xmlns="http://www.w3.org/2000/svg">
<path d="M20 9.53125C26.882 9.53125 32.4609 15.1102 32.4609 21.9922V31.0938C32.4609 31.4253 32.3292 31.7432 32.0948 31.9776C31.8604 32.2121 31.5424 32.3438 31.2109 32.3438H8.78906C8.45754 32.3438 8.1396 32.2121 7.90518 31.9776C7.67076 31.7432 7.53906 31.4253 7.53906 31.0938V21.9922C7.53906 15.1102 13.118 9.53125 20 9.53125ZM18.9062 2.65625H21.0937C21.1766 2.65625 21.2561 2.68917 21.3147 2.74778C21.3733 2.80638 21.4062 2.88587 21.4062 2.96875V6.71875C21.4062 6.80163 21.3733 6.88112 21.3147 6.93972C21.2561 6.99833 21.1766 7.03125 21.0937 7.03125H18.9062C18.8234 7.03125 18.7439 6.99833 18.6853 6.93972C18.6267 6.88112 18.5937 6.80163 18.5937 6.71875V2.96875C18.5937 2.88587 18.6267 2.80638 18.6853 2.74778C18.7439 2.68917 18.8234 2.65625 18.9062 2.65625ZM6.92383 7.48672C6.95285 7.45766 6.98732 7.43461 7.02525 7.41889C7.06319 7.40316 7.10385 7.39507 7.14492 7.39507C7.18599 7.39507 7.22665 7.40316 7.26459 7.41889C7.30253 7.43461 7.33699 7.45766 7.36602 7.48672L10.0176 10.1383C10.0761 10.1969 10.109 10.2763 10.109 10.3592C10.109 10.442 10.0761 10.5215 10.0176 10.5801L8.4707 12.127C8.4121 12.1855 8.33265 12.2184 8.2498 12.2184C8.16696 12.2184 8.0875 12.1855 8.02891 12.127L5.37735 9.47539C5.31878 9.41679 5.28589 9.33734 5.28589 9.25449C5.28589 9.17165 5.31878 9.09219 5.37735 9.03359L6.92422 7.48672H6.92383ZM33.0801 7.48672L34.6269 9.03359C34.6854 9.09218 34.7182 9.17155 34.7182 9.2543C34.7182 9.33705 34.6854 9.41642 34.6269 9.475L31.9754 12.1273C31.9463 12.1564 31.9119 12.1794 31.8739 12.1952C31.836 12.2109 31.7953 12.219 31.7543 12.219C31.7132 12.219 31.6725 12.2109 31.6346 12.1952C31.5967 12.1794 31.5622 12.1564 31.5332 12.1273L29.9863 10.5805C29.9573 10.5514 29.9342 10.517 29.9185 10.479C29.9028 10.4411 29.8947 10.4004 29.8947 10.3594C29.8947 10.3183 29.9028 10.2776 29.9185 10.2397C29.9342 10.2018 29.9573 10.1673 29.9863 10.1383L32.6383 7.48672C32.6969 7.42816 32.7763 7.39526 32.8592 7.39526C32.942 7.39526 33.0215 7.42816 33.0801 7.48672V7.48672ZM7.5 34.8438H32.5C32.8315 34.8438 33.1494 34.9754 33.3839 35.2099C33.6183 35.4443 33.75 35.7622 33.75 36.0938V37.0312C33.75 37.1141 33.7171 37.1936 33.6584 37.2522C33.5998 37.3108 33.5204 37.3438 33.4375 37.3438H6.5625C6.47962 37.3438 6.40013 37.3108 6.34153 37.2522C6.28292 37.1936 6.25 37.1141 6.25 37.0312V36.0938C6.25 35.7622 6.3817 35.4443 6.61612 35.2099C6.85054 34.9754 7.16848 34.8438 7.5 34.8438ZM13.2812 22.4609V32.3438H15.7812V22.4609H13.2812Z" fill="#333333"/>
</svg>
