<svg width="40" height="40" viewBox="0 0 40 40" fill="none" xmlns="http://www.w3.org/2000/svg">
<path d="M5 5V33.3333C5 33.7754 5.17559 34.1993 5.48816 34.5118C5.80072 34.8244 6.22464 35 6.66667 35H35V31.6667H8.33333V5H5Z" fill="#333333"/>
<path d="M25.4884 24.5118C25.643 24.6667 25.8267 24.7896 26.0289 24.8734C26.2311 24.9573 26.4478 25.0004 26.6667 25.0004C26.8856 25.0004 27.1023 24.9573 27.3045 24.8734C27.5067 24.7896 27.6904 24.6667 27.845 24.5118L36.1784 16.1784L33.8217 13.8218L26.6667 20.9768L22.845 17.1551C22.6904 17.0002 22.5067 16.8773 22.3045 16.7935C22.1023 16.7096 21.8856 16.6664 21.6667 16.6664C21.4478 16.6664 21.2311 16.7096 21.0289 16.7935C20.8267 16.8773 20.643 17.0002 20.4884 17.1551L12.155 25.4884L14.5117 27.8451L21.6667 20.6901L25.4884 24.5118Z" fill="#333333"/>
</svg>
