<svg width="40" height="40" viewBox="0 0 40 40" fill="none" xmlns="http://www.w3.org/2000/svg">
<path d="M26.6666 28.3334H21.6666V21.6667H18.3333V28.3334H13.3333V30.0001H3.33325V33.3334H13.3333V35.0001H26.6666V33.3334H36.6666V30.0001H26.6666V28.3334Z" fill="#333333"/>
<path d="M24.9999 21.6667H29.9999C30.4419 21.6667 30.8659 21.4911 31.1784 21.1785C31.491 20.866 31.6666 20.442 31.6666 20V8.33333C31.6666 7.89131 31.491 7.46738 31.1784 7.15482C30.8659 6.84226 30.4419 6.66667 29.9999 6.66667H19.9999L18.3333 5H9.99992C9.55789 5 9.13397 5.17559 8.82141 5.48816C8.50885 5.80072 8.33325 6.22464 8.33325 6.66667V20C8.33325 20.442 8.50885 20.866 8.82141 21.1785C9.13397 21.4911 9.55789 21.6667 9.99992 21.6667H24.9999Z" fill="#333333"/>
</svg>
