<svg width="60" height="61" viewBox="0 0 60 61" fill="none" xmlns="http://www.w3.org/2000/svg">
<rect y="0.5" width="60" height="60" rx="8" fill="#51C4B7"/>
<path d="M30 13.8423C26.1872 13.838 22.4527 14.9248 19.2377 16.9745C16.0227 19.0243 13.4614 21.9512 11.8563 25.4098C10.2513 28.8683 9.66947 32.7139 10.1797 36.4925C10.6898 40.271 12.2707 43.8246 14.7355 46.7337L15.0989 47.1577H44.901L45.2645 46.7337C47.7293 43.8246 49.3102 40.271 49.8203 36.4925C50.3305 32.7139 49.7487 28.8683 48.1437 25.4098C46.5386 21.9512 43.9773 19.0243 40.7623 16.9745C37.5473 14.9248 33.8128 13.838 30 13.8423ZM40.4186 25.327L33.2467 32.3657C33.6133 33.1406 33.6941 34.0202 33.4749 34.849C33.2557 35.6778 32.7506 36.4024 32.0489 36.8948C31.3471 37.3872 30.4939 37.6157 29.64 37.5399C28.786 37.4641 27.9864 37.0888 27.3824 36.4805C26.7783 35.8722 26.4088 35.0699 26.339 34.2155C26.2692 33.3611 26.5037 32.5095 27.0011 31.8112C27.4984 31.1129 28.2266 30.613 29.0569 30.3996C29.8872 30.1863 30.7662 30.2733 31.5386 30.6454L38.6983 23.6068L40.4186 25.327ZM12.5549 32.8018H16.6739V35.2247H12.5064C12.5064 34.7522 12.4458 34.2919 12.4458 33.8073C12.4458 33.3227 12.4701 33.141 12.4943 32.8018H12.5549ZM18.4668 20.6871L21.447 23.6673L19.6662 25.3391L16.6739 22.3711C17.2109 21.7583 17.7898 21.1835 18.4063 20.6508L18.4668 20.6871ZM31.2115 20.5539H28.7885V16.3137H30C30.4482 16.3137 30.848 16.3137 31.2115 16.3743V20.5539ZM47.5542 33.8194C47.5542 34.2919 47.5542 34.7765 47.4936 35.2368H43.2292V32.8139H47.5057C47.5299 33.141 47.5542 33.4802 47.5542 33.8194Z" fill="white"/>
</svg>
