<svg width="61" height="61" viewBox="0 0 61 61" fill="none" xmlns="http://www.w3.org/2000/svg">
<rect x="0.5" y="0.5" width="60" height="60" rx="8" fill="#1B8CDE"/>
<path d="M30.5 13.8423C26.6872 13.838 22.9527 14.9248 19.7377 16.9745C16.5227 19.0243 13.9614 21.9512 12.3563 25.4098C10.7513 28.8683 10.1695 32.7139 10.6797 36.4925C11.1898 40.271 12.7707 43.8246 15.2355 46.7337L15.5989 47.1577H45.401L45.7645 46.7337C48.2293 43.8246 49.8102 40.271 50.3203 36.4925C50.8305 32.7139 50.2487 28.8683 48.6437 25.4098C47.0386 21.9512 44.4773 19.0243 41.2623 16.9745C38.0473 14.9248 34.3128 13.838 30.5 13.8423ZM40.9186 25.327L33.7467 32.3657C34.1133 33.1406 34.1941 34.0202 33.9749 34.849C33.7557 35.6778 33.2506 36.4024 32.5489 36.8948C31.8471 37.3872 30.9939 37.6157 30.14 37.5399C29.286 37.4641 28.4864 37.0888 27.8824 36.4805C27.2783 35.8722 26.9088 35.0699 26.839 34.2155C26.7692 33.3611 27.0037 32.5095 27.5011 31.8112C27.9984 31.1129 28.7266 30.613 29.5569 30.3996C30.3872 30.1863 31.2662 30.2733 32.0386 30.6454L39.1983 23.6068L40.9186 25.327ZM13.0549 32.8018H17.1739V35.2247H13.0064C13.0064 34.7522 12.9458 34.2919 12.9458 33.8073C12.9458 33.3227 12.9701 33.141 12.9943 32.8018H13.0549ZM18.9668 20.6871L21.947 23.6673L20.1662 25.3391L17.1739 22.3711C17.7109 21.7583 18.2898 21.1835 18.9063 20.6508L18.9668 20.6871ZM31.7115 20.5539H29.2885V16.3137H30.5C30.9482 16.3137 31.348 16.3137 31.7115 16.3743V20.5539ZM48.0542 33.8194C48.0542 34.2919 48.0542 34.7765 47.9936 35.2368H43.7292V32.8139H48.0057C48.0299 33.141 48.0542 33.4802 48.0542 33.8194Z" fill="white"/>
</svg>
