<svg width="165" height="48" viewBox="0 0 165 48" fill="none" xmlns="http://www.w3.org/2000/svg">
<path d="M11 15V32C11 32.2652 11.1054 32.5196 11.2929 32.7071C11.4804 32.8946 11.7348 33 12 33H29V31H13V15H11Z" fill="#333333" fill-opacity="0.3"/>
<path d="M23.293 26.707C23.3858 26.7999 23.496 26.8737 23.6173 26.924C23.7386 26.9743 23.8686 27.0002 24 27.0002C24.1313 27.0002 24.2613 26.9743 24.3827 26.924C24.504 26.8737 24.6142 26.7999 24.707 26.707L29.707 21.707L28.293 20.293L24 24.586L21.707 22.293C21.6142 22.2001 21.504 22.1263 21.3827 22.076C21.2613 22.0257 21.1313 21.9998 21 21.9998C20.8686 21.9998 20.7386 22.0257 20.6173 22.076C20.496 22.1263 20.3858 22.2001 20.293 22.293L15.293 27.293L16.707 28.707L21 24.414L23.293 26.707Z" fill="#333333" fill-opacity="0.3"/>
<path d="M41.6 31H43.088V26.344H45.008C47.584 26.344 49.344 25.192 49.344 22.728C49.344 20.152 47.568 19.272 44.944 19.272H41.6V31ZM43.088 25.144V20.488H44.752C46.832 20.488 47.872 21.016 47.872 22.728C47.872 24.392 46.88 25.144 44.832 25.144H43.088ZM56.157 31.224C57.677 31.224 58.813 30.616 59.741 29.528L58.941 28.6C58.189 29.432 57.325 29.912 56.221 29.912C53.981 29.912 52.573 28.072 52.573 25.112C52.573 22.184 54.045 20.36 56.269 20.36C57.261 20.36 58.045 20.808 58.653 21.464L59.469 20.504C58.781 19.752 57.677 19.064 56.253 19.064C53.277 19.064 51.053 21.368 51.053 25.144C51.053 28.952 53.229 31.224 56.157 31.224ZM64.7074 31.224C67.1714 31.224 68.6914 29.752 68.6914 27.896C68.6914 26.152 67.6514 25.336 66.2754 24.744L64.6114 24.024C63.6994 23.64 62.6754 23.224 62.6754 22.072C62.6754 21.032 63.5394 20.36 64.8674 20.36C65.9394 20.36 66.8034 20.792 67.5234 21.464L68.3074 20.52C67.4914 19.656 66.2594 19.064 64.8674 19.064C62.7234 19.064 61.1714 20.376 61.1714 22.184C61.1714 23.896 62.4514 24.728 63.5554 25.192L65.2354 25.928C66.3394 26.408 67.1874 26.792 67.1874 28.008C67.1874 29.144 66.2754 29.912 64.7394 29.912C63.5234 29.912 62.3394 29.352 61.4914 28.456L60.6114 29.48C61.6354 30.552 63.0594 31.224 64.7074 31.224ZM73.4386 25.928H81.5026V27.016H73.4386V25.928ZM73.4386 27.8H81.5026V28.92H73.4386V27.8ZM73.4386 24.056H81.5026V25.144H73.4386V24.056ZM72.2706 23.256V29.72H82.7026V23.256H72.2706ZM78.9106 30.472C80.6386 31.032 82.3666 31.72 83.3906 32.232L84.4626 31.544C83.3266 31.032 81.4546 30.328 79.7106 29.8L78.9106 30.472ZM74.9586 29.816C73.8066 30.456 71.8866 31.016 70.2386 31.368C70.5106 31.576 70.9266 32.04 71.1186 32.264C72.7186 31.832 74.7506 31.096 76.0466 30.328L74.9586 29.816ZM76.7986 18.648V19.592H83.3906V18.648H76.7986ZM77.0546 17.528C76.6866 18.68 76.0146 19.816 75.1826 20.584C75.4546 20.728 75.9026 21.016 76.0946 21.192C76.9266 20.376 77.6946 19.08 78.1266 17.768L77.0546 17.528ZM78.9586 19.24V19.752C78.9586 20.568 78.5586 21.672 74.3986 22.216C74.6066 22.44 74.9266 22.856 75.0386 23.144C79.5506 22.44 80.0626 21 80.0626 19.784V19.24H78.9586ZM79.9026 20.184L79.0546 20.392C79.9346 21.816 81.7746 22.728 84.0786 23.064C84.2226 22.76 84.5266 22.328 84.7666 22.088C82.5426 21.896 80.7186 21.224 79.9026 20.184ZM70.5106 18.52V19.464H74.3666V18.52H70.5106ZM70.1586 21.016V21.992H74.7666V21.016H70.1586ZM82.9906 18.648V18.824C82.7026 19.512 82.2546 20.328 81.8866 20.856L82.8306 21.192C83.2786 20.616 83.7906 19.688 84.1906 18.872L83.3746 18.6L83.1986 18.648H82.9906ZM86.7826 22.408V23.368H91.3266V22.408H86.7826ZM86.7826 24.504V25.464H91.3426V24.504H86.7826ZM86.1426 20.28V21.288H91.9346V20.28H86.1426ZM87.2626 26.648V27.656H90.3506V30.312H87.2626V31.32H91.3266V26.648H87.2626ZM86.7826 26.648V32.072H87.7426V26.648H86.7826ZM87.8386 17.976C88.2546 18.632 88.7506 19.544 88.9586 20.136L89.8866 19.56C89.6306 19 89.1506 18.152 88.7026 17.496L87.8386 17.976ZM91.9186 24.376V25.512H97.3426V24.376H91.9186ZM97.9026 18.472C97.9026 25.624 97.7426 31.464 99.4066 31.992C100.159 32.296 100.687 31.784 100.863 29.528C100.687 29.352 100.351 28.936 100.159 28.648C100.095 29.8 99.9826 30.824 99.8866 30.792C98.9746 30.568 99.0226 24.984 99.1026 18.472H97.9026ZM94.0946 19.208V32.28H95.2146V19.208H94.0946ZM92.0946 18.472V19.624H98.4466V18.472H92.0946Z" fill="#333333" fill-opacity="0.3"/>
</svg>
