<svg width="165" height="48" viewBox="0 0 165 48" fill="none" xmlns="http://www.w3.org/2000/svg">
<path d="M24 29H21V25H19V29H16V30H10V32H16V33H24V32H30V30H24V29Z" fill="#333333" fill-opacity="0.3"/>
<path d="M23 25H26C26.2652 25 26.5196 24.8946 26.7071 24.7071C26.8946 24.5196 27 24.2652 27 24V17C27 16.7348 26.8946 16.4804 26.7071 16.2929C26.5196 16.1054 26.2652 16 26 16H20L19 15H14C13.7348 15 13.4804 15.1054 13.2929 15.2929C13.1054 15.4804 13 15.7348 13 16V24C13 24.2652 13.1054 24.5196 13.2929 24.7071C13.4804 24.8946 13.7348 25 14 25H23Z" fill="#333333" fill-opacity="0.3"/>
<path d="M44.576 27.784C43.744 28.92 42.4 30.104 41.136 30.856C41.44 31.032 41.952 31.432 42.192 31.64C43.408 30.808 44.816 29.496 45.776 28.216L44.576 27.784ZM50.192 28.264C51.472 29.24 53.056 30.648 53.808 31.512L54.832 30.808C54.016 29.928 52.416 28.584 51.136 27.64L50.192 28.264ZM47.536 26.328V30.808C47.536 31 47.472 31.048 47.216 31.064C46.944 31.096 46.08 31.096 45.104 31.048C45.296 31.384 45.504 31.896 45.568 32.248C46.736 32.248 47.552 32.232 48.08 32.04C48.608 31.848 48.752 31.512 48.752 30.824V26.328H47.536ZM51.408 17.576C49.104 18.648 44.992 19.656 41.36 20.328C41.504 20.584 41.68 21.016 41.728 21.32C45.408 20.664 49.6 19.72 52.288 18.52L51.408 17.576ZM42.064 27.592C42.064 27.368 42.928 27.096 42.928 27.096V27.064C45.904 25.912 49.024 24.328 51.984 22.248L51.056 21.464C48.416 23.448 44.976 25.208 43.904 25.672C42.928 26.12 42.208 26.376 41.696 26.44C41.824 26.76 42.016 27.352 42.064 27.592ZM42.064 27.592C42.672 27.368 43.584 27.288 53.216 26.584C53.216 26.328 53.216 25.864 53.248 25.544L42.864 26.248L42.032 26.68L42.064 27.592ZM42.928 24.232C42.928 24.008 43.744 23.688 43.744 23.688V23.656C45.376 22.968 47.088 21.928 48.688 20.696L47.616 20.024C46.272 21.224 44.448 22.312 43.872 22.6C43.344 22.872 42.928 23.048 42.576 23.08C42.704 23.4 42.88 23.992 42.928 24.232ZM42.928 24.232C43.344 24.088 43.984 24.024 49.472 23.688C49.488 23.448 49.552 23 49.616 22.696L43.616 23L42.912 23.368L42.928 24.232ZM50.608 24.04C51.792 25.16 53.184 26.728 53.856 27.704L54.88 27.08C54.192 26.12 52.816 24.648 51.6 23.544L50.608 24.04ZM67.984 21.8C68.8 23.048 69.744 24.76 70.16 25.768L71.232 25.24C70.8 24.216 69.808 22.6 68.976 21.368L67.984 21.8ZM62.656 19.592V20.728H71.136V19.592H62.656ZM67.216 24.36V30.44C67.216 31.656 67.488 32.008 68.608 32.008C68.816 32.008 69.76 32.008 70 32.008C70.976 32.008 71.264 31.432 71.376 29.288C71.04 29.192 70.576 29.016 70.304 28.808C70.288 30.648 70.224 30.936 69.872 30.936C69.664 30.936 68.912 30.936 68.752 30.936C68.416 30.936 68.352 30.856 68.352 30.44V24.36H67.216ZM64.56 24.68C64.48 28.296 64.16 30.28 61.52 31.416C61.792 31.64 62.128 32.056 62.272 32.344C65.168 31.016 65.6 28.696 65.712 24.68H64.56ZM62.96 25.448C63.392 25.256 64.08 25.16 70.064 24.488C70.016 24.248 69.968 23.784 69.952 23.48L63.616 24.104L62.928 24.52L62.96 25.448ZM62.96 25.448C62.96 25.192 63.824 24.776 63.824 24.776V24.744C65.2 22.984 66.656 20.456 67.76 17.944L66.464 17.56C65.584 19.928 64.128 22.424 63.648 23.064C63.216 23.736 62.864 24.168 62.544 24.264C62.704 24.584 62.896 25.192 62.96 25.448ZM60.432 23.864C60.912 24.888 61.36 26.264 61.52 27.096L62.448 26.728C62.288 25.912 61.808 24.584 61.312 23.56L60.432 23.864ZM58.992 27.976C59.184 29.064 59.344 30.472 59.392 31.4L60.336 31.176C60.288 30.248 60.096 28.856 59.904 27.784L58.992 27.976ZM57.264 27.864C57.12 29.16 56.88 30.6 56.496 31.576C56.752 31.656 57.232 31.816 57.44 31.928C57.76 30.936 58.08 29.416 58.256 28.04L57.264 27.864ZM56.896 23.56C56.896 23.304 57.648 22.936 57.648 22.936V22.904C58.72 21.624 59.824 19.768 60.672 17.976L59.568 17.496C58.896 19.24 57.76 21.096 57.408 21.56C57.072 22.04 56.784 22.376 56.512 22.44C56.64 22.744 56.832 23.304 56.896 23.56ZM56.896 23.56C57.136 23.432 57.568 23.352 60.144 23.064C60.128 22.824 60.176 22.424 60.224 22.152L57.408 22.392L56.88 22.728L56.896 23.56ZM56.992 27.16C56.992 26.92 57.76 26.552 57.76 26.552V26.536C59.312 24.936 60.864 22.696 62.112 20.472L61.072 19.88C60.032 22.072 58.336 24.376 57.808 24.968C57.328 25.56 56.96 25.96 56.624 26.04C56.752 26.36 56.944 26.92 56.992 27.16ZM56.992 27.16C57.312 27 57.808 26.872 61.68 26.232C61.648 26.008 61.648 25.592 61.696 25.304L57.488 25.928L56.96 26.296L56.992 27.16ZM60.768 27.656C61.104 28.584 61.472 29.784 61.616 30.584L62.528 30.264C62.352 29.496 61.968 28.296 61.616 27.368L60.768 27.656ZM79.328 22.68V32.28H80.56V22.68H79.328ZM75.696 25.384H84.4V26.776H75.696V25.384ZM75.696 23.096H84.4V24.456H75.696V23.096ZM74.528 22.12V27.736H85.616V22.12H74.528ZM72.912 28.968V30.024H87.104V28.968H72.912ZM75.184 19H78.256V20.52H75.184V19ZM74.096 18.2V21.32H79.376V18.2H74.096ZM81.76 19H84.864V20.52H81.76V19ZM80.672 18.2V21.32H86V18.2H80.672ZM98.24 17.56C98.096 18.152 97.808 19.032 97.552 19.624L98.56 19.896C98.864 19.384 99.232 18.584 99.584 17.832L98.24 17.56ZM96.352 22.52H101.376V23.944H96.352V22.52ZM96.352 20.216H101.376V21.624H96.352V20.216ZM95.232 19.272V24.904H102.544V19.272H95.232ZM98.432 24.504V30.952C98.432 31.144 98.384 31.192 98.176 31.208C97.968 31.224 97.28 31.224 96.528 31.192C96.688 31.512 96.832 31.976 96.88 32.296C97.92 32.296 98.608 32.296 99.04 32.104C99.456 31.912 99.584 31.576 99.584 30.968V24.504H98.432ZM94.64 26.248V27.256H97.248V26.248H94.64ZM96.992 26.248V26.424C96.528 28.36 95.216 29.96 93.776 30.68C94 30.888 94.32 31.272 94.464 31.528C96.112 30.616 97.504 28.888 98.08 26.456L97.376 26.2L97.184 26.248H96.992ZM102.144 25.48C101.584 26.184 100.56 27.176 99.84 27.752L100.512 28.344C101.28 27.8 102.24 26.952 103.056 26.2L102.144 25.48ZM99.52 25.288L98.688 25.512C99.392 28.104 100.752 30.44 102.624 31.592C102.816 31.288 103.168 30.856 103.424 30.648C101.584 29.704 100.192 27.592 99.52 25.288ZM92.336 23.88C92.72 25 93.072 26.472 93.2 27.352L94.176 27.048C94.048 26.2 93.648 24.76 93.248 23.656L92.336 23.88ZM90.896 27.992C91.072 29.08 91.232 30.504 91.264 31.448L92.208 31.272C92.16 30.328 92 28.936 91.808 27.832L90.896 27.992ZM89.328 27.864C89.184 29.192 88.944 30.648 88.56 31.64C88.816 31.72 89.28 31.88 89.488 31.992C89.824 30.984 90.144 29.432 90.32 28.024L89.328 27.864ZM88.944 23.56C88.944 23.32 89.696 22.936 89.696 22.936V22.904C90.72 21.64 91.776 19.784 92.576 18.008L91.456 17.544C90.832 19.272 89.76 21.096 89.424 21.576C89.104 22.056 88.832 22.392 88.56 22.456C88.688 22.76 88.88 23.32 88.944 23.56ZM88.944 23.56C89.2 23.432 89.632 23.336 92.176 23.048C92.176 22.808 92.224 22.392 92.272 22.072L89.488 22.328L88.912 22.664L88.944 23.56ZM89.04 27.16C89.04 26.92 89.824 26.552 89.824 26.552V26.52C91.328 24.952 92.88 22.76 94.08 20.584L93.024 19.96C92 22.12 90.336 24.392 89.84 24.952C89.344 25.544 88.992 25.96 88.656 26.04C88.784 26.344 88.976 26.92 89.04 27.16ZM89.04 27.16C89.36 27 89.856 26.888 93.424 26.36C93.408 26.12 93.424 25.688 93.472 25.4L89.584 25.896L89.008 26.264L89.04 27.16ZM92.4 27.688C92.688 28.52 93.024 29.608 93.136 30.312L94.032 30.024C93.888 29.32 93.552 28.264 93.232 27.432L92.4 27.688ZM109.792 20.712H114.128V21.768H109.792V20.712ZM108.8 19.992V22.488H115.168V19.992H108.8ZM109.232 25.416H114.688V28.984H109.232V25.416ZM108.272 24.664V29.752H115.696V24.664H108.272ZM111.008 26.728H112.88V27.672H111.008V26.728ZM110.256 26.104V28.312H113.664V26.104H110.256ZM107.184 23.224V23.976H116.832V23.224H107.184ZM111.408 22.008V23.56H112.464V22.008H111.408ZM105.312 18.216V32.264H106.448V19.24H117.536V32.264H118.72V18.216H105.312ZM106.016 30.616V31.64H118.16V30.616H106.016Z" fill="#333333" fill-opacity="0.3"/>
</svg>
