<svg width="61" height="61" viewBox="0 0 61 61" fill="none" xmlns="http://www.w3.org/2000/svg">
<rect x="0.5" y="0.5" width="60" height="60" rx="8" fill="#F86178"/>
<path d="M33.357 40.5C33.357 41.6905 32.9403 42.7024 32.107 43.5357C31.2737 44.369 30.2618 44.7857 29.0713 44.7857C27.8808 44.7857 26.8689 44.369 26.0356 43.5357C25.2022 42.7024 24.7856 41.6905 24.7856 40.5C24.7856 39.6071 25.046 38.7887 25.5668 38.0446C26.0877 37.3006 26.7796 36.7723 27.6427 36.4598V16.2143H30.4999V36.4598C31.363 36.7723 32.0549 37.3006 32.5758 38.0446C33.0966 38.7887 33.357 39.6071 33.357 40.5ZM36.2141 40.5C36.2141 39.3542 35.9612 38.2827 35.4552 37.2857C34.9493 36.2887 34.2499 35.4554 33.357 34.7857V17.6429C33.357 16.4524 32.9403 15.4405 32.107 14.6071C31.2737 13.7738 30.2618 13.3571 29.0713 13.3571C27.8808 13.3571 26.8689 13.7738 26.0356 14.6071C25.2022 15.4405 24.7856 16.4524 24.7856 17.6429V34.7857C23.8927 35.4554 23.1933 36.2887 22.6874 37.2857C22.1814 38.2827 21.9284 39.3542 21.9284 40.5C21.9284 42.4792 22.6241 44.1644 24.0155 45.5558C25.4069 46.9472 27.0921 47.6429 29.0713 47.6429C31.0505 47.6429 32.7357 46.9472 34.1271 45.5558C35.5185 44.1644 36.2141 42.4792 36.2141 40.5ZM39.0713 40.5C39.0713 43.253 38.0929 45.6079 36.136 47.5647C34.1792 49.5216 31.8243 50.5 29.0713 50.5C26.3183 50.5 23.9634 49.5216 22.0066 47.5647C20.0497 45.6079 19.0713 43.253 19.0713 40.5C19.0713 37.7917 20.0237 35.4628 21.9284 33.5134V17.6429C21.9284 15.6637 22.6241 13.9784 24.0155 12.5871C25.4069 11.1957 27.0921 10.5 29.0713 10.5C31.0505 10.5 32.7357 11.1957 34.1271 12.5871C35.5185 13.9784 36.2141 15.6637 36.2141 17.6429V33.5134C38.1189 35.4628 39.0713 37.7917 39.0713 40.5ZM41.9284 27.6429V30.5H37.6427V27.6429H41.9284ZM41.9284 21.9286V24.7857H37.6427V21.9286H41.9284ZM41.9284 16.2143V19.0714H37.6427V16.2143H41.9284Z" fill="white"/>
</svg>
