<svg width="61" height="61" viewBox="0 0 61 61" fill="none" xmlns="http://www.w3.org/2000/svg">
<rect x="0.5" y="0.5" width="60" height="60" rx="8" fill="#1B8CDE"/>
<path d="M30.5 10.5C19.84 19.6 14.5 27.46 14.5 34.1C14.5 44.06 22.1 50.5 30.5 50.5C38.9 50.5 46.5 44.06 46.5 34.1C46.5 27.46 41.16 19.6 30.5 10.5ZM22.16 34.5C22.9 34.5 23.5 35.02 23.64 35.74C24.46 40.18 28.2 41.7 30.92 41.48C31.78 41.44 32.5 42.12 32.5 42.98C32.5 43.78 31.86 44.44 31.06 44.48C26.8 44.74 21.82 42.3 20.68 36.24C20.6452 36.0256 20.6575 35.8062 20.7159 35.5969C20.7742 35.3877 20.8773 35.1936 21.0181 35.0281C21.1588 34.8627 21.3338 34.7298 21.531 34.6386C21.7282 34.5474 21.9428 34.5001 22.16 34.5Z" fill="white"/>
</svg>
