<svg width="60" height="61" viewBox="0 0 60 61" fill="none" xmlns="http://www.w3.org/2000/svg">
<rect y="0.5" width="60" height="60" rx="8" fill="#7B61FF"/>
<path d="M30 10.5C19.34 19.6 14 27.46 14 34.1C14 44.06 21.6 50.5 30 50.5C38.4 50.5 46 44.06 46 34.1C46 27.46 40.66 19.6 30 10.5ZM21.66 34.5C22.4 34.5 23 35.02 23.14 35.74C23.96 40.18 27.7 41.7 30.42 41.48C31.28 41.44 32 42.12 32 42.98C32 43.78 31.36 44.44 30.56 44.48C26.3 44.74 21.32 42.3 20.18 36.24C20.1452 36.0256 20.1575 35.8062 20.2159 35.5969C20.2742 35.3877 20.3773 35.1936 20.5181 35.0281C20.6588 34.8627 20.8338 34.7298 21.031 34.6386C21.2282 34.5474 21.4428 34.5001 21.66 34.5Z" fill="white"/>
</svg>
