<svg width="60" height="61" viewBox="0 0 60 61" fill="none" xmlns="http://www.w3.org/2000/svg">
<rect y="0.5" width="60" height="60" rx="8" fill="#F9DC88"/>
<path d="M49.6818 24.18C38.6087 13.9381 21.3868 13.9419 10.3181 24.18C9.90182 24.565 9.8937 25.2169 10.2962 25.6163L12.4362 27.7394C12.8199 28.1206 13.4374 28.1288 13.8362 27.7631C22.9562 19.4081 37.0425 19.4062 46.1643 27.7631C46.5631 28.1288 47.1806 28.12 47.5643 27.7394L49.7043 25.6163C50.1062 25.2169 50.0981 24.565 49.6818 24.18ZM30 36.5C27.7906 36.5 26 38.2906 26 40.5C26 42.7094 27.7906 44.5 30 44.5C32.2093 44.5 34 42.7094 34 40.5C34 38.2906 32.2093 36.5 30 36.5ZM42.6668 31.2756C35.4631 24.905 24.5287 24.9119 17.3331 31.2756C16.9018 31.6569 16.8881 32.3187 17.2975 32.7225L19.45 34.8469C19.825 35.2169 20.4287 35.2419 20.8281 34.8969C26.075 30.3612 33.9368 30.3713 39.1712 34.8969C39.5706 35.2419 40.1743 35.2175 40.5493 34.8469L42.7018 32.7225C43.1118 32.3187 43.0975 31.6562 42.6668 31.2756Z" fill="white"/>
</svg>
