<svg width="387" height="46" viewBox="0 0 387 46" fill="none" xmlns="http://www.w3.org/2000/svg">
<g clip-path="url(#clip0_316_1722)">
<path d="M24.5901 44.145L27.8701 40.255L48.9001 13.945L51.1701 11.005C51.8301 10.145 52.7701 8.89499 53.9801 7.27499C57.1401 7.31499 59.4501 7.32499 60.9101 7.32499C63.4501 7.32499 65.8001 7.30499 67.9701 7.27499L68.8901 18.535L71.1001 40.195L71.6101 44.135C68.5001 44.095 66.6101 44.085 65.9501 44.085C64.4401 44.085 62.2001 44.105 59.2601 44.135C59.2701 41.165 59.0601 37.675 58.6401 33.655H45.0401C42.6301 36.825 40.0701 40.315 37.3701 44.135C34.0301 44.095 31.9801 44.085 31.2201 44.085C29.8601 44.095 27.6501 44.105 24.5901 44.145ZM50.4201 25.805H58.8101C58.4301 19.455 58.2201 15.965 58.2001 15.315C56.3001 17.955 54.7201 20.125 53.4401 21.815L50.4201 25.805Z" fill="#004584"/>
<path d="M82.6599 44.145C85.8999 35.395 89.0199 25.765 92.0099 15.245L80.4399 15.545L81.3799 12.545C81.8799 10.945 82.4099 9.18498 82.9499 7.27498C88.0499 7.31498 94.0099 7.32498 100.81 7.32498L107.49 7.29498H113.97L117.49 7.26498L116.62 9.91498C116.17 11.335 115.8 12.505 115.53 13.435C115.25 14.365 115.05 15.065 114.93 15.535C111.13 15.335 107.98 15.235 105.48 15.235H103.59C102.47 18.415 101.47 21.355 100.6 24.055C99.3599 27.915 98.2099 31.675 97.1199 35.315C96.0399 38.955 95.1899 41.895 94.5899 44.145C91.6499 44.105 89.7499 44.095 88.8799 44.095C88.1099 44.095 86.0299 44.105 82.6599 44.145Z" fill="#004584"/>
<path d="M109.53 44.145C111.23 39.495 112.6 35.615 113.65 32.475C114.7 29.345 116.02 25.175 117.62 19.985C119.22 14.795 120.25 11.345 120.7 9.65499L121.31 7.27499C125.55 7.31499 130.68 7.32499 136.72 7.32499C142.28 7.32499 147.19 7.30499 151.45 7.27499L151.16 8.16499C151.08 8.37499 150.83 9.16499 150.4 10.505L149.45 13.435C149.25 14.065 149.06 14.705 148.88 15.345C145.44 15.205 142.55 15.125 140.19 15.125C137.6 15.125 135.84 15.125 134.93 15.135C134.02 15.145 132.59 15.185 130.64 15.255L128.65 21.465C130.76 21.515 133.23 21.545 136.06 21.545C137.07 21.545 139.77 21.485 144.16 21.355C143.36 23.665 142.46 26.405 141.44 29.595C138.34 29.555 135.95 29.545 134.27 29.545C131.79 29.545 128.99 29.605 125.88 29.735L123.8 36.295H126.9C127.82 36.295 129.72 36.265 132.62 36.215L138.24 36.075C139.07 36.055 140.48 35.985 142.45 35.855C141.52 38.525 140.6 41.275 139.7 44.115C135.32 44.075 130.5 44.065 125.26 44.065L113.37 44.095L109.53 44.145Z" fill="#004584"/>
<path d="M33.1 7.33499C30.99 7.33499 28.8001 7.31499 26.5201 7.28499C25.7101 8.29499 24.4 9.81499 22.59 11.865C20.7801 13.905 18.35 16.755 15.31 20.415C15.06 18.455 14.65 16.225 14.09 13.735C13.93 13.035 13.79 12.365 13.65 11.715C12.19 13.995 9.64005 15.515 6.73005 15.515C5.00005 15.515 3.40005 14.975 2.08005 14.065L6.56005 29.335C6.17005 30.775 5.39005 33.245 4.20005 36.735C3.00005 40.215 2.12005 42.685 1.55005 44.145C4.10005 44.105 6.08005 44.095 7.51005 44.095C8.90005 44.095 10.85 44.115 13.38 44.145C14.33 40.865 15.23 37.875 16.09 35.155L17.38 31.045L17.48 30.775L17.55 30.505L17.65 30.235C17.6901 30.075 19.3601 28.245 22.66 24.755L39.2001 7.27499C36.25 7.31499 34.21 7.33499 33.1 7.33499Z" fill="#004584"/>
<path d="M6.72 13.995C10.4314 13.995 13.44 10.9863 13.44 7.27499C13.44 3.56364 10.4314 0.554993 6.72 0.554993C3.00865 0.554993 0 3.56364 0 7.27499C0 10.9863 3.00865 13.995 6.72 13.995Z" fill="#EC6300"/>
<path d="M172.92 38.725C172.92 37.945 173.04 37.185 173.24 36.475C172.13 36.595 171.07 36.665 170.12 36.665C167.78 36.665 165.92 36.265 164.54 35.465C163.16 34.665 162.2 33.525 161.66 32.065C161.12 30.595 161.12 28.835 161.67 26.785C162.27 24.535 163.38 22.485 164.99 20.625C166.6 18.775 168.51 17.355 170.72 16.385C172.93 15.415 175.24 14.925 177.67 14.925C178.79 14.925 179.97 15.015 181.23 15.195C182.49 15.375 184.1 15.715 186.07 16.225L186.71 13.145C186.96 11.955 187.19 10.865 187.42 9.87498L187.97 7.60498C184.23 6.92498 181.02 6.57498 178.36 6.57498C175.46 6.57498 172.55 6.94498 169.63 7.69498C166.71 8.44498 163.88 9.68498 161.14 11.425C158.4 13.165 156.07 15.335 154.16 17.935C152.25 20.535 150.85 23.465 149.98 26.725C149.23 29.515 149.01 32.035 149.3 34.285C149.6 36.535 150.57 38.495 152.22 40.155C153.87 41.825 155.86 43.015 158.17 43.745C160.49 44.475 163.1 44.835 166.02 44.835C168.64 44.835 171.64 44.605 174.99 44.175C173.72 42.735 172.92 40.825 172.92 38.725Z" fill="#004584"/>
<path d="M181.14 45.445C184.851 45.445 187.86 42.4364 187.86 38.725C187.86 35.0136 184.851 32.005 181.14 32.005C177.429 32.005 174.42 35.0136 174.42 38.725C174.42 42.4364 177.429 45.445 181.14 45.445Z" fill="#5CB531"/>
<path d="M251.45 21.635C252.5 21.635 253.03 22.165 253.03 23.215C253.03 24.275 252.5 24.795 251.45 24.795H245.24C244.5 27.645 243.43 30.295 242.03 32.755C241.26 34.105 240.42 35.265 239.5 36.235C243.09 37.445 247.18 38.855 251.77 40.475C252.38 40.925 252.71 41.395 252.76 41.895C252.68 43.185 252.1 43.875 251.02 43.955C250.86 43.955 250.4 43.835 249.63 43.595C244.83 41.725 240.57 40.075 236.85 38.645C236.48 38.905 236.11 39.145 235.74 39.355C233.34 40.885 230.13 42.075 226.12 42.915C223.3 43.605 220.39 43.945 217.41 43.945C216.2 43.945 215.56 43.255 215.51 41.885C215.51 40.935 216 40.465 216.97 40.465C222.77 40.335 227.39 39.525 230.82 38.055C231.59 37.795 232.3 37.485 232.96 37.145C227.95 35.245 224.17 33.845 221.64 32.945C220.43 32.525 219.82 31.955 219.82 31.245C219.82 30.795 220.08 30.345 220.61 29.895C222.83 27.675 224.41 25.975 225.36 24.785H216.81C215.75 24.785 215.23 24.255 215.23 23.205C215.23 22.155 215.76 21.625 216.81 21.625H227.5C228.58 19.775 229.66 17.615 230.75 15.135C230.91 14.155 231.44 13.675 232.33 13.675C233.52 13.725 234.15 14.265 234.23 15.295C233.23 17.615 232.21 19.725 231.18 21.625H251.45V21.635ZM234.24 6.435C235.4 6.435 235.98 7.015 235.98 8.175V9.595H248.49C249.7 9.595 250.61 10.005 251.22 10.825C251.72 11.515 251.97 12.515 251.97 13.835C251.97 14.865 251.85 16.025 251.61 17.315C251.37 18.185 250.74 18.625 249.71 18.625C248.65 18.625 248.13 18.095 248.13 17.045C248.47 15.435 248.64 14.425 248.64 13.995C248.64 13.045 248.22 12.575 247.37 12.575H221.05C219.99 12.575 219.47 13.105 219.47 14.155V17.325C219.47 18.385 218.94 18.905 217.89 18.905C216.84 18.905 216.31 18.375 216.31 17.325V12.735C216.31 10.655 217.37 9.605 219.48 9.605H232.5V8.185C232.49 7.025 233.07 6.435 234.24 6.435ZM236.02 35.095C236.55 34.645 237.02 34.175 237.44 33.675C239.05 31.745 240.58 28.795 242.03 24.805H229.25C229.22 24.855 229.18 24.915 229.13 24.965C228.36 26.075 226.86 27.865 224.62 30.345C224.36 30.585 224.22 30.775 224.22 30.935C224.22 31.065 224.42 31.185 224.81 31.295C227.22 32.085 230.95 33.355 236.02 35.095Z" fill="black"/>
<path d="M293.22 15.145C294.14 15.145 294.61 15.615 294.61 16.565C294.61 17.515 294.15 17.985 293.22 17.985H289.14C289.64 18.225 289.89 18.685 289.89 19.375V22.225H296.18C297.13 22.225 297.6 22.715 297.6 23.685C297.6 24.745 297.12 25.265 296.18 25.265H289.89V28.115C289.89 28.825 289.64 29.285 289.14 29.495H295.12C296.07 29.495 296.54 29.975 296.54 30.915C296.54 31.975 296.07 32.495 295.12 32.495H280.4V35.815H293.38C294.33 35.815 294.8 36.305 294.8 37.275C294.8 38.325 294.33 38.855 293.38 38.855H280.4V42.495C280.4 43.555 279.82 44.075 278.66 44.075C277.6 44.075 277.08 43.545 277.08 42.495V38.855H263.9C262.95 38.855 262.48 38.325 262.48 37.275C262.48 36.295 262.96 35.815 263.9 35.815H277.08V32.495H262.16C261.21 32.495 260.74 31.965 260.74 30.915C260.74 29.965 261.22 29.495 262.16 29.495H268.18C267.65 29.285 267.39 28.825 267.39 28.115V25.265H261.1C260.15 25.265 259.68 24.735 259.68 23.685C259.68 22.705 260.15 22.225 261.1 22.225H267.39V19.375C267.39 18.665 267.65 18.205 268.18 17.985H263.9C262.95 17.985 262.48 17.505 262.48 16.565C262.48 15.615 262.96 15.145 263.9 15.145H293.22ZM295.76 8.935C296.71 8.935 297.18 9.405 297.18 10.355C297.18 11.335 296.71 11.815 295.76 11.815H287.65V12.565C287.65 13.625 287.12 14.145 286.07 14.145C285.02 14.145 284.49 13.615 284.49 12.565V11.815H272.8V12.565C272.8 13.625 272.27 14.145 271.22 14.145C270.17 14.145 269.64 13.615 269.64 12.565V11.815H261.72C260.74 11.815 260.26 11.325 260.26 10.355C260.26 9.405 260.75 8.935 261.72 8.935H269.64V7.865C269.64 6.815 270.17 6.285 271.22 6.285C272.27 6.285 272.8 6.815 272.8 7.865V8.935H284.48V7.865C284.48 6.815 285.01 6.285 286.06 6.285C287.11 6.285 287.64 6.815 287.64 7.865V8.935H295.76ZM277.08 22.235V18.005H269.84C270.31 18.245 270.55 18.705 270.55 19.395V22.245H277.08V22.235ZM269.83 29.515H277.07V25.285H270.54V28.135C270.55 28.845 270.31 29.305 269.83 29.515ZM286.73 22.235V19.385C286.73 18.675 286.97 18.215 287.44 17.995H280.4V22.225H286.73V22.235ZM280.4 25.275V29.505H287.44C286.97 29.295 286.73 28.835 286.73 28.125V25.275H280.4Z" fill="black"/>
<path d="M314.97 15.145C315.95 15.145 316.43 15.615 316.43 16.565C316.43 17.515 315.94 17.985 314.97 17.985H312.64V19.215L315.96 24.475C316.17 24.845 316.28 25.165 316.28 25.425C316.28 26.275 315.84 26.695 314.97 26.695C314.63 26.695 314.36 26.495 314.18 26.105L312.64 23.335V42.055C312.64 43.005 312.17 43.475 311.22 43.475C310.27 43.475 309.8 43.005 309.8 42.055V26.225C309.38 27.625 308.97 28.755 308.57 29.625C307.96 31.415 307.41 32.715 306.91 33.505C306.57 33.825 306.16 33.975 305.68 33.975C304.62 33.975 304.1 33.535 304.1 32.665C304.13 32.345 304.28 31.995 304.57 31.595C306.23 28.245 307.42 25.465 308.13 23.245C308.66 21.745 309.13 19.985 309.55 17.985H306.15C305.17 17.985 304.69 17.505 304.69 16.565C304.69 15.615 305.18 15.145 306.15 15.145H309.79V8.18501C309.79 7.23501 310.26 6.76501 311.21 6.76501C312.16 6.76501 312.63 7.23501 312.63 8.18501V15.155H314.97V15.145ZM320.51 7.19501C320.96 7.19501 321.34 7.30501 321.66 7.51501C321.95 7.75501 322.1 8.02501 322.1 8.34501C322.1 8.55501 322.05 8.80501 321.94 9.09501C321.44 11.125 320.87 12.895 320.24 14.395C320.66 14.765 321.03 15.105 321.35 15.425C321.83 14.425 322.3 13.365 322.77 12.255C322.93 11.855 323.28 11.665 323.84 11.665C324.29 11.665 324.67 11.775 324.99 11.985C325.28 12.195 325.43 12.445 325.43 12.735C325.43 12.975 325.38 13.245 325.27 13.565C323.95 16.815 322.5 19.725 320.92 22.315C321.9 22.135 322.82 21.865 323.69 21.525C323.51 21.125 323.31 20.755 323.1 20.415L322.94 20.055C322.94 19.285 323.36 18.905 324.21 18.905C324.79 18.905 325.2 19.185 325.44 19.735C325.99 20.505 326.53 21.705 327.06 23.335C326.74 21.095 326.49 18.485 326.31 15.495C326.18 12.465 326.11 10.075 326.11 8.33501C326.11 7.35501 326.58 6.87501 327.53 6.87501C328.45 6.87501 328.91 7.36501 328.91 8.33501C328.94 9.94501 328.98 11.475 329.03 12.925C329.32 12.585 329.76 12.415 330.34 12.415C330.6 12.415 330.87 12.485 331.13 12.615C331.97 11.405 332.82 9.92501 333.66 8.18501C333.84 7.73501 334.23 7.51501 334.81 7.51501C335.21 7.51501 335.56 7.63501 335.88 7.87501C336.22 8.08501 336.39 8.33501 336.39 8.62501C336.39 8.86501 336.34 9.13501 336.23 9.45501C335.36 11.245 334.38 12.815 333.3 14.165C333.96 14.695 334.57 15.205 335.12 15.705C335.96 14.355 336.81 12.905 337.65 11.355C337.83 10.905 338.2 10.685 338.76 10.685C339.18 10.685 339.55 10.795 339.87 11.005C340.19 11.245 340.34 11.515 340.34 11.835C340.34 12.045 340.29 12.295 340.18 12.585C338.44 15.885 336.55 18.855 334.52 21.495C335.87 21.285 337.13 20.995 338.32 20.625C338.19 20.175 338.06 19.755 337.92 19.355L337.8 18.915C337.8 18.175 338.21 17.805 339.03 17.805C339.72 17.805 340.2 18.085 340.49 18.635C340.86 19.585 341.24 21.125 341.64 23.265C341.72 23.685 341.76 23.975 341.76 24.135C341.76 25.005 341.29 25.445 340.34 25.445C339.55 25.445 339.11 25.005 339.03 24.135C338.95 23.685 338.87 23.235 338.79 22.785C337.55 23.155 336.35 23.475 335.19 23.735C335.35 23.765 335.52 23.805 335.7 23.855C336.04 24.045 336.33 24.225 336.57 24.405C336.86 24.665 337.22 25.015 337.64 25.435C337.75 25.625 337.8 25.815 337.8 26.025C337.8 26.495 337.63 26.825 337.29 27.015H340.62C341.6 27.015 342.08 27.485 342.08 28.435C342.08 29.385 341.59 29.855 340.62 29.855H331.52C331.7 30.385 331.89 30.915 332.07 31.435C332.68 32.835 333.32 34.115 334.01 35.275C334.85 34.275 335.7 32.995 336.54 31.435C336.8 31.195 337.11 31.075 337.45 31.075C338.4 31.075 338.87 31.505 338.87 32.385C338.87 32.675 338.83 32.995 338.75 33.335C337.88 34.975 336.88 36.405 335.74 37.645C336.06 38.045 336.37 38.385 336.69 38.675C337.82 39.865 338.6 40.455 339.02 40.455C339.2 40.455 339.32 40.005 339.38 39.105L339.54 36.805C339.65 36.065 340.05 35.695 340.77 35.695C341.72 35.695 342.19 36.115 342.19 36.965C342.19 37.385 342.15 38.025 342.07 38.865C341.91 40.285 341.65 41.555 341.28 42.665C340.86 43.405 340.33 43.775 339.7 43.775C338.78 43.775 337.72 43.355 336.53 42.505C335.47 41.635 334.51 40.685 333.64 39.655C332.24 40.865 330.53 41.975 328.49 42.985C328.23 43.065 328 43.105 327.82 43.105C326.87 43.105 326.4 42.595 326.4 41.565C326.4 41.145 326.65 40.775 327.15 40.455C329.13 39.455 330.73 38.435 331.94 37.405C331.75 37.115 331.58 36.835 331.43 36.575C330.19 34.385 329.23 32.145 328.54 29.845H317.02C316.07 29.845 315.6 29.375 315.6 28.425C315.6 27.475 316.07 27.005 317.02 27.005H327.78C327.65 26.455 327.52 25.885 327.38 25.305C327.2 25.675 326.81 25.855 326.23 25.855C325.44 25.855 325.02 25.495 324.96 24.785C324.83 24.365 324.7 23.965 324.56 23.595C324.45 23.625 324.32 23.645 324.16 23.675C321.81 24.495 319.6 25.075 317.51 25.415C316.67 25.415 316.24 24.925 316.24 23.955C316.24 23.135 316.66 22.715 317.51 22.685V22.525C318.35 21.175 319.22 19.645 320.12 17.935C318.93 16.955 317.69 16.025 316.4 15.125C316.29 14.755 316.24 14.475 316.24 14.295C316.24 13.375 316.77 12.905 317.82 12.905C317.85 12.905 317.87 12.905 317.9 12.905C318.37 11.535 318.88 9.84501 319.4 7.83501C319.6 7.41501 319.96 7.19501 320.51 7.19501ZM321.66 30.185C322.61 30.185 323.08 30.545 323.08 31.255V32.085C322.92 32.745 322.76 33.375 322.61 33.985C323.27 34.515 323.89 35.015 324.47 35.485C325.1 36.015 325.89 36.815 326.85 37.895C326.95 38.215 327.01 38.545 327.01 38.885C327.01 39.725 326.53 40.155 325.59 40.155C325.11 40.155 324.71 40.045 324.36 39.835C323.57 38.855 322.91 38.085 322.38 37.505C322.14 37.265 321.91 37.035 321.67 36.795C321.51 37.245 321.34 37.665 321.16 38.065C320.42 39.705 319.58 41.195 318.63 42.535C318.23 42.825 317.82 42.975 317.4 42.975C316.45 42.975 315.98 42.515 315.98 41.595C315.98 41.405 316.03 41.145 316.14 40.805C317.04 39.535 317.83 38.135 318.52 36.605C319.28 34.995 319.91 33.105 320.38 30.945C320.48 30.435 320.92 30.185 321.66 30.185ZM329.18 14.795C329.31 17.695 329.52 20.135 329.81 22.115C329.81 22.225 329.82 22.325 329.85 22.435C330.03 22.015 330.42 21.805 331 21.805V21.645C331.87 20.535 332.75 19.315 333.65 17.965C332.25 16.875 330.76 15.825 329.18 14.795ZM335.83 27.025C335.72 26.975 335.63 26.915 335.55 26.865C335.26 26.575 335.01 26.335 334.8 26.155C334.62 26.025 334.39 25.875 334.13 25.715C333.81 25.425 333.66 25.125 333.66 24.805C333.66 24.435 333.75 24.155 333.94 23.975C332.94 24.165 331.96 24.315 331.01 24.455C330.61 24.455 330.32 24.365 330.14 24.175C330.3 25.175 330.48 26.125 330.69 27.025H335.83Z" fill="black"/>
<path d="M381.12 8.02499C382.07 8.02499 382.54 8.50499 382.54 9.44499C382.54 10.365 382.07 10.835 381.12 10.835H368.93V12.415H382.23C383.39 12.415 384.26 12.825 384.84 13.645C385.29 14.255 385.51 15.175 385.51 16.415C385.51 17.105 385.4 17.895 385.19 18.795C384.98 19.635 384.4 20.065 383.45 20.065C382.39 20.065 381.87 19.535 381.87 18.485C382.21 17.455 382.38 16.825 382.38 16.585C382.38 15.635 382.01 15.165 381.27 15.165H368.92V22.405C368.92 23.465 368.39 23.985 367.34 23.985C366.29 23.985 365.76 23.455 365.76 22.405V15.165H354.2C353.14 15.165 352.62 15.695 352.62 16.745V18.805C352.62 19.755 352.08 20.225 351 20.225C350.05 20.225 349.58 19.745 349.58 18.805V15.915C349.58 13.595 350.74 12.435 353.06 12.435H365.77V10.855H353.74C352.79 10.855 352.32 10.395 352.32 9.46499C352.32 8.51499 352.8 8.04499 353.74 8.04499H381.12V8.02499ZM355.47 25.125H378.9C380.98 25.125 382.03 26.125 382.03 28.135V35.255C382.03 37.265 380.99 38.265 378.9 38.265H368.77C368.77 39.455 369.13 40.195 369.84 40.485C370.87 40.805 372.72 40.955 375.38 40.955C378.31 40.955 380.39 40.875 381.63 40.715C382.39 40.635 382.9 40.435 383.13 40.125C383.45 39.835 383.6 38.795 383.6 36.995C383.65 35.995 384.18 35.465 385.18 35.415C386.18 35.465 386.71 36.155 386.76 37.475C386.76 38.455 386.65 39.415 386.44 40.365C386.2 41.715 385.52 42.665 384.38 43.215C383.38 43.715 380.75 43.965 376.5 43.965C372.01 43.965 369.08 43.685 367.71 43.135C366.28 42.365 365.57 40.955 365.57 38.905V38.275H355.44C353.33 38.275 352.27 37.275 352.27 35.265V28.145C352.31 26.125 353.36 25.125 355.47 25.125ZM362.44 16.885C363.15 16.885 363.51 17.255 363.51 17.995C363.51 18.815 363.15 19.225 362.44 19.225H355.79C355.02 19.225 354.64 18.815 354.64 17.995C354.64 17.255 355.02 16.885 355.79 16.885H362.44ZM362.28 20.805C362.99 20.805 363.35 21.185 363.35 21.955C363.35 22.805 362.99 23.225 362.28 23.225H355.79C355.02 23.225 354.64 22.805 354.64 21.955C354.64 21.195 355.02 20.805 355.79 20.805H362.28ZM355.47 30.505H365.6V27.935H356.38C355.77 27.935 355.47 28.305 355.47 29.045V30.505ZM365.61 35.415V33.195H355.48V34.265C355.48 35.035 355.78 35.415 356.39 35.415H365.61ZM368.77 27.935V30.505H378.9V29.045C378.9 28.305 378.58 27.935 377.95 27.935H368.77ZM377.95 35.415C378.58 35.415 378.9 35.035 378.9 34.265V33.195H368.77V35.415H377.95ZM379.06 16.735C379.77 16.735 380.13 17.095 380.13 17.805C380.13 18.655 379.77 19.075 379.06 19.075H372.09C371.35 19.075 370.98 18.655 370.98 17.805C370.98 17.095 371.35 16.735 372.09 16.735H379.06ZM379.22 20.805C379.93 20.805 380.29 21.185 380.29 21.955C380.29 22.805 379.93 23.225 379.22 23.225H372.25C371.51 23.225 371.14 22.805 371.14 21.955C371.14 21.195 371.51 20.805 372.25 20.805H379.22Z" fill="black"/>
</g>
<defs>
<clipPath id="clip0_316_1722">
<rect width="386.78" height="44.89" fill="white" transform="translate(0 0.554993)"/>
</clipPath>
</defs>
</svg>
