<svg width="343" height="160" viewBox="0 0 343 160" fill="none" xmlns="http://www.w3.org/2000/svg">
<g clip-path="url(#clip0_42_26642)">
<path d="M60.9952 123.637C62.7103 123.637 63.5679 124.493 63.5679 126.205C63.5679 127.916 62.7103 128.772 60.9952 128.772H50.9236C49.7194 133.379 47.9861 137.676 45.7236 141.646C44.4829 143.831 43.1145 145.706 41.6183 147.272C47.4387 149.239 54.0619 151.515 61.5061 154.119C62.4914 154.847 63.0205 155.612 63.1117 156.431C62.984 158.525 62.0352 159.636 60.2836 159.763C60.0282 159.763 59.2801 159.563 58.0394 159.181C50.2485 156.158 43.3517 153.481 37.3124 151.187C36.7103 151.606 36.1081 152.006 35.5243 152.334C31.638 154.811 26.4379 156.722 19.9425 158.088C15.3628 159.199 10.6555 159.745 5.83861 159.745C3.86808 159.745 2.84632 158.634 2.75509 156.413C2.75509 154.883 3.53965 154.1 5.12703 154.1C14.5418 153.882 22.0225 152.589 27.5692 150.204C28.8099 149.785 29.9594 149.293 31.0359 148.729C22.9165 145.652 16.8042 143.394 12.699 141.937C10.7284 141.263 9.74318 140.335 9.74318 139.187C9.74318 138.459 10.1628 137.731 11.0204 137.002C14.6148 133.415 17.1874 130.666 18.72 128.736H4.87159C3.1565 128.736 2.29895 127.88 2.29895 126.168C2.29895 124.457 3.1565 123.601 4.87159 123.601H22.1867C23.9383 120.615 25.6899 117.118 27.4415 113.094C27.6969 111.51 28.5544 110.727 30.0141 110.727C31.9299 110.818 32.9699 111.692 33.0976 113.349C31.4737 117.1 29.8316 120.524 28.153 123.583H60.9952V123.637ZM33.0976 99.0554C34.9769 99.0554 35.9257 100.002 35.9257 101.878V104.19H56.1966C58.1671 104.19 59.645 104.846 60.6303 106.175C61.4514 107.286 61.8528 108.906 61.8528 111.037C61.8528 112.694 61.6521 114.587 61.2689 116.663C60.8857 118.065 59.864 118.775 58.1854 118.775C56.4703 118.775 55.6127 117.92 55.6127 116.208C56.1601 113.604 56.452 111.965 56.452 111.273C56.452 109.744 55.7587 108.961 54.4085 108.961H11.732C10.0169 108.961 9.15932 109.817 9.15932 111.528V116.645C9.15932 118.357 8.30177 119.212 6.58668 119.212C4.87159 119.212 4.01404 118.357 4.01404 116.645V109.216C4.01404 105.847 5.72913 104.154 9.14107 104.154H30.2513V101.841C30.2695 100.002 31.2183 99.0554 33.0976 99.0554ZM35.9804 145.397C36.838 144.668 37.6043 143.903 38.2976 143.084C40.9067 139.97 43.3882 135.182 45.7418 128.736H25.0148C24.9783 128.827 24.9053 128.899 24.8141 128.991C23.5734 130.775 21.1285 133.688 17.4976 137.694C17.0779 138.077 16.859 138.404 16.859 138.659C16.859 138.878 17.1874 139.06 17.826 139.242C21.7306 140.535 27.7699 142.592 35.9804 145.397Z" fill="black"/>
<path d="M149.213 113.131C150.709 113.131 151.457 113.896 151.457 115.443C151.457 116.973 150.709 117.756 149.213 117.756H142.608C143.429 118.138 143.83 118.885 143.83 119.995V124.602H154.03C155.562 124.602 156.347 125.385 156.347 126.969C156.347 128.681 155.581 129.537 154.03 129.537H143.83V134.144C143.83 135.291 143.429 136.037 142.608 136.383H152.296C153.829 136.383 154.614 137.148 154.614 138.696C154.614 140.407 153.847 141.263 152.296 141.263H128.431V146.635H149.468C151.001 146.635 151.786 147.418 151.786 149.002C151.786 150.714 151.019 151.569 149.468 151.569H128.431V157.451C128.431 159.162 127.482 160.018 125.603 160.018C123.888 160.018 123.03 159.162 123.03 157.451V151.569H101.683C100.15 151.569 99.3658 150.714 99.3658 149.002C99.3658 147.418 100.132 146.635 101.683 146.635H123.049V141.263H98.8732C97.3405 141.263 96.556 140.407 96.556 138.696C96.556 137.166 97.3223 136.383 98.8732 136.383H108.616C107.759 136.037 107.339 135.291 107.339 134.144V129.537H97.1398C95.6072 129.537 94.8226 128.681 94.8226 126.969C94.8226 125.385 95.589 124.602 97.1398 124.602H107.339V119.995C107.339 118.848 107.759 118.102 108.616 117.756H101.683C100.15 117.756 99.3658 116.991 99.3658 115.443C99.3658 113.914 100.132 113.131 101.683 113.131H149.213ZM153.318 103.098C154.851 103.098 155.635 103.863 155.635 105.41C155.635 106.994 154.869 107.777 153.318 107.777H140.163V108.997C140.163 110.709 139.306 111.565 137.59 111.565C135.875 111.565 135.018 110.709 135.018 108.997V107.777H116.115V108.997C116.115 110.709 115.258 111.565 113.543 111.565C111.828 111.565 110.97 110.709 110.97 108.997V107.777H98.1616C96.5742 107.777 95.7896 106.994 95.7896 105.41C95.7896 103.881 96.5742 103.098 98.1616 103.098H110.988V101.368C110.988 99.6563 111.846 98.8005 113.561 98.8005C115.276 98.8005 116.134 99.6563 116.134 101.368V103.098H135.054V101.368C135.054 99.6563 135.912 98.8005 137.627 98.8005C139.342 98.8005 140.2 99.6563 140.2 101.368V103.098H153.318ZM123.049 124.602V117.756H111.317C112.083 118.138 112.466 118.885 112.466 119.995V124.602H123.049ZM111.317 136.383H123.049V129.537H112.466V134.144C112.466 135.291 112.083 136.037 111.317 136.383ZM138.703 124.602V119.995C138.703 118.848 139.087 118.102 139.853 117.756H128.431V124.602H138.703ZM128.431 129.519V136.365H139.853C139.087 136.019 138.703 135.273 138.703 134.125V129.519H128.431Z" fill="black"/>
<path d="M204.972 113.131C206.559 113.131 207.344 113.896 207.344 115.443C207.344 116.973 206.559 117.756 204.972 117.756H201.195V119.741L206.577 128.262C206.924 128.863 207.088 129.373 207.088 129.792C207.088 131.157 206.377 131.831 204.972 131.831C204.424 131.831 203.986 131.503 203.694 130.866L201.195 126.387V156.668C201.195 158.197 200.428 158.98 198.878 158.98C197.327 158.98 196.56 158.216 196.56 156.668V131.066C195.867 133.324 195.21 135.163 194.572 136.565C193.586 139.461 192.692 141.555 191.871 142.847C191.324 143.357 190.649 143.612 189.883 143.612C188.167 143.612 187.31 142.902 187.31 141.5C187.346 140.99 187.602 140.407 188.076 139.77C190.777 134.344 192.692 129.846 193.842 126.259C194.699 123.819 195.466 120.997 196.159 117.738H190.649C189.061 117.738 188.277 116.973 188.277 115.425C188.277 113.896 189.061 113.113 190.649 113.113H196.542V101.841C196.542 100.312 197.308 99.5289 198.859 99.5289C200.41 99.5289 201.177 100.294 201.177 101.841V113.113H204.972V113.131ZM213.949 100.275C214.678 100.275 215.299 100.439 215.81 100.785C216.284 101.168 216.521 101.623 216.521 102.133C216.521 102.479 216.43 102.879 216.266 103.353C215.445 106.648 214.532 109.507 213.511 111.929C214.204 112.53 214.788 113.076 215.299 113.586C216.065 111.965 216.831 110.254 217.616 108.469C217.871 107.832 218.455 107.504 219.349 107.504C220.079 107.504 220.699 107.668 221.21 108.014C221.685 108.36 221.922 108.761 221.922 109.234C221.922 109.616 221.831 110.072 221.666 110.582C219.532 115.826 217.178 120.542 214.605 124.73C216.193 124.438 217.689 124.001 219.094 123.455C218.802 122.818 218.473 122.217 218.127 121.671L217.871 121.088C217.871 119.85 218.565 119.231 219.915 119.231C220.864 119.231 221.52 119.686 221.904 120.578C222.798 121.816 223.673 123.765 224.531 126.405C224.02 122.781 223.619 118.557 223.309 113.732C223.09 108.834 222.98 104.955 222.98 102.151C222.98 100.567 223.746 99.7838 225.297 99.7838C226.793 99.7838 227.542 100.567 227.542 102.151C227.578 104.755 227.651 107.231 227.742 109.58C228.217 109.034 228.91 108.742 229.859 108.742C230.278 108.742 230.716 108.852 231.136 109.07C232.504 107.104 233.873 104.718 235.241 101.896C235.533 101.168 236.153 100.803 237.102 100.803C237.741 100.803 238.325 101.004 238.836 101.386C239.383 101.732 239.675 102.133 239.675 102.606C239.675 102.989 239.584 103.444 239.419 103.954C238.015 106.849 236.427 109.398 234.676 111.565C235.752 112.421 236.719 113.258 237.631 114.059C239 111.874 240.368 109.544 241.737 107.013C242.029 106.284 242.631 105.92 243.525 105.92C244.218 105.92 244.802 106.084 245.313 106.43C245.824 106.812 246.079 107.268 246.079 107.777C246.079 108.123 245.988 108.524 245.824 108.997C242.996 114.333 239.949 119.14 236.646 123.4C238.836 123.055 240.879 122.599 242.813 121.998C242.594 121.27 242.393 120.596 242.175 119.959L241.974 119.249C241.974 118.047 242.631 117.464 243.963 117.464C245.076 117.464 245.86 117.92 246.335 118.812C246.937 120.341 247.557 122.836 248.196 126.296C248.323 126.988 248.396 127.443 248.396 127.698C248.396 129.1 247.63 129.81 246.079 129.81C244.802 129.81 244.09 129.1 243.963 127.698C243.835 126.969 243.707 126.241 243.579 125.513C241.572 126.114 239.62 126.623 237.741 127.042C237.996 127.079 238.27 127.151 238.58 127.243C239.127 127.534 239.602 127.843 239.985 128.135C240.459 128.554 241.025 129.118 241.718 129.792C241.883 130.083 241.974 130.411 241.974 130.757C241.974 131.522 241.7 132.068 241.135 132.359H246.517C248.104 132.359 248.889 133.124 248.889 134.672C248.889 136.219 248.104 136.984 246.517 136.984H231.756C232.048 137.84 232.358 138.696 232.65 139.552C233.636 141.81 234.676 143.885 235.789 145.761C237.157 144.14 238.525 142.064 239.894 139.552C240.313 139.169 240.806 138.969 241.372 138.969C242.904 138.969 243.689 139.679 243.689 141.081C243.689 141.555 243.616 142.064 243.488 142.611C242.083 145.251 240.459 147.582 238.617 149.585C239.127 150.222 239.638 150.786 240.149 151.242C241.992 153.154 243.251 154.119 243.926 154.119C244.218 154.119 244.419 153.39 244.51 151.934L244.765 148.219C244.93 147.017 245.605 146.435 246.754 146.435C248.287 146.435 249.071 147.126 249.071 148.474C249.071 149.166 248.998 150.186 248.871 151.551C248.615 153.864 248.177 155.903 247.593 157.706C246.9 158.907 246.061 159.49 245.021 159.49C243.525 159.49 241.81 158.798 239.894 157.451C238.179 156.049 236.628 154.501 235.205 152.844C232.942 154.811 230.151 156.595 226.866 158.216C226.447 158.343 226.082 158.416 225.772 158.416C224.239 158.416 223.454 157.578 223.454 155.921C223.454 155.229 223.856 154.647 224.677 154.137C227.888 152.516 230.479 150.877 232.431 149.202C232.139 148.729 231.847 148.292 231.592 147.855C229.585 144.304 228.016 140.681 226.903 136.966H208.238C206.705 136.966 205.92 136.201 205.92 134.653C205.92 133.106 206.687 132.341 208.238 132.341H225.68C225.462 131.449 225.261 130.52 225.042 129.591C224.75 130.192 224.13 130.484 223.181 130.484C221.904 130.484 221.21 129.901 221.137 128.754C220.918 128.08 220.718 127.425 220.499 126.842C220.334 126.878 220.116 126.933 219.86 126.969C216.047 128.299 212.471 129.227 209.077 129.792C207.708 129.792 207.033 129.009 207.033 127.425C207.033 126.095 207.727 125.422 209.077 125.385V125.13C210.445 122.945 211.85 120.487 213.31 117.701C211.394 116.117 209.369 114.606 207.289 113.149C207.125 112.548 207.033 112.111 207.033 111.802C207.033 110.308 207.891 109.562 209.606 109.562C209.643 109.562 209.697 109.562 209.734 109.562C210.5 107.34 211.321 104.609 212.179 101.368C212.489 100.64 213.054 100.275 213.949 100.275ZM215.81 137.458C217.342 137.458 218.127 138.04 218.127 139.187V140.535C217.871 141.609 217.616 142.629 217.36 143.612C218.437 144.468 219.44 145.269 220.371 146.052C221.393 146.908 222.688 148.201 224.221 149.949C224.385 150.459 224.476 150.987 224.476 151.551C224.476 152.917 223.71 153.591 222.159 153.591C221.393 153.591 220.718 153.427 220.17 153.081C218.893 151.497 217.817 150.24 216.959 149.311C216.576 148.929 216.193 148.547 215.81 148.164C215.554 148.893 215.28 149.566 214.97 150.204C213.766 152.844 212.398 155.266 210.865 157.433C210.226 157.906 209.57 158.143 208.876 158.143C207.344 158.143 206.559 157.396 206.559 155.903C206.559 155.612 206.65 155.175 206.814 154.628C208.274 152.589 209.551 150.313 210.664 147.837C211.905 145.233 212.909 142.174 213.675 138.678C213.912 137.876 214.624 137.458 215.81 137.458ZM227.998 112.566C228.217 117.264 228.545 121.215 229.019 124.402C229.019 124.566 229.038 124.748 229.092 124.912C229.384 124.238 230.005 123.892 230.953 123.892V123.637C232.358 121.853 233.8 119.868 235.259 117.683C232.979 115.935 230.57 114.223 227.998 112.566ZM238.781 132.341C238.617 132.25 238.452 132.177 238.325 132.086C237.85 131.613 237.449 131.23 237.102 130.939C236.81 130.72 236.445 130.484 236.008 130.229C235.497 129.755 235.241 129.264 235.241 128.754C235.241 128.153 235.387 127.716 235.697 127.406C234.073 127.698 232.486 127.953 230.953 128.171C230.315 128.171 229.84 128.026 229.549 127.716C229.804 129.337 230.096 130.884 230.443 132.323H238.781V132.341Z" fill="black"/>
<path d="M332.709 101.623C334.242 101.623 335.027 102.388 335.027 103.935C335.027 105.428 334.26 106.175 332.709 106.175H312.949V108.742H334.498C336.377 108.742 337.782 109.398 338.73 110.727C339.46 111.71 339.825 113.204 339.825 115.207C339.825 116.317 339.661 117.592 339.314 119.049C338.968 120.414 338.037 121.088 336.486 121.088C334.771 121.088 333.914 120.232 333.914 118.521C334.461 116.864 334.753 115.826 334.753 115.443C334.753 113.914 334.151 113.131 332.965 113.131H312.949V124.839C312.949 126.551 312.092 127.406 310.377 127.406C308.662 127.406 307.804 126.551 307.804 124.839V113.131H289.066C287.351 113.131 286.493 113.987 286.493 115.698V119.03C286.493 120.56 285.617 121.343 283.866 121.343C282.333 121.343 281.549 120.578 281.549 119.03V114.351C281.549 110.6 283.428 108.724 287.187 108.724H307.786V106.157H288.281C286.749 106.157 285.964 105.41 285.964 103.917C285.964 102.388 286.73 101.605 288.281 101.605H332.709V101.623ZM291.146 129.264H329.115C332.49 129.264 334.187 130.884 334.187 134.125V145.652C334.187 148.893 332.49 150.513 329.115 150.513H312.694C312.694 152.425 313.278 153.627 314.427 154.1C316.088 154.61 319.08 154.865 323.404 154.865C328.148 154.865 331.523 154.738 333.53 154.483C334.771 154.355 335.574 154.028 335.975 153.518C336.486 153.044 336.742 151.369 336.742 148.456C336.833 146.835 337.69 145.979 339.314 145.888C340.938 145.979 341.796 147.09 341.887 149.22C341.887 150.805 341.723 152.352 341.376 153.9C340.993 156.085 339.88 157.615 338.037 158.507C336.413 159.326 332.162 159.727 325.265 159.727C318.003 159.727 313.241 159.272 311.034 158.379C308.716 157.141 307.567 154.865 307.567 151.533V150.513H291.146C287.716 150.513 286.019 148.893 286.019 145.652V134.125C286.001 130.902 287.716 129.264 291.146 129.264ZM302.422 115.953C303.571 115.953 304.155 116.554 304.155 117.738C304.155 119.067 303.571 119.722 302.422 119.722H291.638C290.398 119.722 289.777 119.067 289.777 117.738C289.777 116.536 290.398 115.953 291.638 115.953H302.422ZM302.166 122.29C303.316 122.29 303.9 122.909 303.9 124.147C303.9 125.513 303.316 126.186 302.166 126.186H291.638C290.398 126.186 289.777 125.513 289.777 124.147C289.777 122.909 290.398 122.29 291.638 122.29H302.166ZM291.146 137.986H307.567V133.816H292.624C291.638 133.816 291.146 134.417 291.146 135.6V137.986ZM307.567 145.906V142.319H291.146V144.049C291.146 145.287 291.638 145.906 292.624 145.906H307.567ZM312.694 133.816V137.986H329.115V135.619C329.115 134.417 328.604 133.834 327.582 133.834H312.694V133.816ZM327.582 145.906C328.604 145.906 329.115 145.287 329.115 144.049V142.319H312.694V145.906H327.582ZM329.37 115.698C330.52 115.698 331.104 116.281 331.104 117.428C331.104 118.794 330.52 119.467 329.37 119.467H318.076C316.872 119.467 316.288 118.794 316.288 117.428C316.288 116.281 316.89 115.698 318.076 115.698H329.37ZM329.626 122.29C330.775 122.29 331.359 122.909 331.359 124.147C331.359 125.513 330.775 126.186 329.626 126.186H318.332C317.128 126.186 316.544 125.513 316.544 124.147C316.544 122.909 317.146 122.29 318.332 122.29H329.626Z" fill="black"/>
<path d="M44.8661 79.3718L50.8506 72.2886L89.2212 24.3815L93.363 19.0281C94.5672 17.4622 96.2823 15.1861 98.49 12.2363C104.256 12.3091 108.47 12.3273 111.134 12.3273C115.769 12.3273 120.056 12.2909 124.016 12.2363L125.694 32.7393L129.727 72.1794L130.657 79.3536C124.983 79.2808 121.534 79.2626 120.33 79.2626C117.575 79.2626 113.488 79.299 108.124 79.3536C108.142 73.9456 107.759 67.5908 106.993 60.2709H82.1784C77.7812 66.043 73.1103 72.3979 68.184 79.3536C62.09 79.2808 58.3496 79.2626 56.9629 79.2626C54.4815 79.2808 50.4492 79.299 44.8661 79.3718ZM91.9946 45.977H107.303C106.609 34.4145 106.226 28.0596 106.19 26.8761C102.723 31.6832 99.8402 35.6345 97.5048 38.7117L91.9946 45.977Z" fill="#004584"/>
<path d="M150.819 79.3718C156.73 63.4392 162.423 45.9042 167.878 26.7486L146.768 27.2949L148.483 21.8322C149.395 18.9189 150.362 15.7141 151.348 12.2363C160.653 12.3091 171.527 12.3273 183.934 12.3273L196.122 12.2727H207.946L214.368 12.218L212.781 17.0434C211.96 19.629 211.285 21.7594 210.792 23.4528C210.281 25.1462 209.916 26.4208 209.697 27.2767C202.764 26.9125 197.017 26.7304 192.455 26.7304H189.007C186.963 32.5208 185.139 37.8741 183.551 42.7905C181.289 49.819 179.191 56.6655 177.202 63.2935C175.231 69.9215 173.68 75.2748 172.586 79.3718C167.221 79.299 163.755 79.2808 162.167 79.2808C160.762 79.2808 156.967 79.299 150.819 79.3718Z" fill="#004584"/>
<path d="M199.845 79.3718C202.946 70.9048 205.446 63.8398 207.362 58.1222C209.278 52.4229 211.686 44.8299 214.605 35.3795C217.525 25.9292 219.404 19.6472 220.225 16.5699L221.338 12.2363C229.074 12.3091 238.434 12.3273 249.455 12.3273C259.599 12.3273 268.558 12.2909 276.33 12.2363L275.801 13.8568C275.655 14.2392 275.199 15.6777 274.415 18.1177L272.681 23.4528C272.316 24.6 271.97 25.7653 271.641 26.9307C265.365 26.6758 260.092 26.5301 255.786 26.5301C251.06 26.5301 247.849 26.5301 246.189 26.5483C244.528 26.5665 241.919 26.6394 238.361 26.7668L234.73 38.0744C238.58 38.1655 243.087 38.2201 248.25 38.2201C250.093 38.2201 255.019 38.1109 263.029 37.8741C261.57 42.0804 259.928 47.0695 258.067 52.8781C252.41 52.8053 248.05 52.7871 244.984 52.7871C240.459 52.7871 235.351 52.8963 229.676 53.133L225.881 65.078H231.537C233.216 65.078 236.683 65.0233 241.974 64.9323L252.228 64.6774C253.742 64.641 256.315 64.5135 259.909 64.2768C258.212 69.1385 256.534 74.1459 254.892 79.3172C246.9 79.2443 238.106 79.2261 228.545 79.2261L206.851 79.2808L199.845 79.3718Z" fill="#004584"/>
<path d="M60.3931 12.3455C56.5433 12.3455 52.5475 12.3091 48.3875 12.2545C46.9096 14.0936 44.5194 16.8613 41.2169 20.5941C37.9145 24.3086 33.4808 29.4981 27.9341 36.1625C27.4779 32.5936 26.7299 28.5331 25.7081 23.9991C25.4162 22.7245 25.1607 21.5045 24.9053 20.3209C22.2414 24.4725 17.5888 27.2402 12.2793 27.2402C9.12281 27.2402 6.20351 26.257 3.79508 24.6L11.9691 52.4047C11.2576 55.0268 9.83439 59.5243 7.66316 65.8792C5.47368 72.2158 3.86807 76.7133 2.82806 79.3718C7.4807 79.299 11.0933 79.2808 13.7025 79.2808C16.2386 79.2808 19.7965 79.3172 24.4127 79.3718C26.146 73.3993 27.7881 67.9549 29.3572 63.0022L31.7109 55.5184L31.8934 55.0268L32.0211 54.5351L32.2036 54.0435C32.2765 53.7521 35.3236 50.4199 41.3446 44.0651L71.5229 12.2363C66.1405 12.3091 62.4184 12.3455 60.3931 12.3455Z" fill="#004584"/>
<path d="M12.2611 24.4725C19.0327 24.4725 24.5222 18.9942 24.5222 12.2363C24.5222 5.47836 19.0327 0 12.2611 0C5.48947 0 0 5.47836 0 12.2363C0 18.9942 5.48947 24.4725 12.2611 24.4725Z" fill="#EC6300"/>
<path d="M315.504 69.5027C315.504 68.0824 315.723 66.6985 316.088 65.4057C314.062 65.6242 312.128 65.7517 310.395 65.7517C306.126 65.7517 302.732 65.0233 300.214 63.5666C297.696 62.1099 295.944 60.0341 294.959 57.3757C293.974 54.699 293.974 51.4942 294.977 47.7615C296.072 43.6645 298.097 39.9317 301.035 36.5449C303.973 33.1763 307.457 30.5906 311.49 28.8244C315.522 27.0581 319.737 26.1659 324.17 26.1659C326.214 26.1659 328.367 26.3298 330.666 26.6576C332.965 26.9853 335.902 27.6044 339.497 28.5331L340.665 22.9248C341.121 20.7579 341.54 18.7732 341.96 16.9705L342.964 12.8371C336.14 11.5989 330.283 10.9616 325.429 10.9616C320.138 10.9616 314.829 11.6354 309.501 13.001C304.173 14.3667 299.01 16.6246 294.01 19.7929C289.011 22.9612 284.76 26.9125 281.275 31.6467C277.79 36.381 275.236 41.7162 273.648 47.6522C272.28 52.7324 271.878 57.321 272.408 61.418C272.955 65.515 274.725 69.0839 277.735 72.1065C280.746 75.1474 284.377 77.3142 288.591 78.6434C292.824 79.9727 297.587 80.6282 302.914 80.6282C307.695 80.6282 313.168 80.2094 319.281 79.4264C316.963 76.8044 315.504 73.3265 315.504 69.5027Z" fill="#004584"/>
<path d="M330.502 81.7389C337.273 81.7389 342.763 76.2606 342.763 69.5027C342.763 62.7448 337.273 57.2664 330.502 57.2664C323.73 57.2664 318.241 62.7448 318.241 69.5027C318.241 76.2606 323.73 81.7389 330.502 81.7389Z" fill="#5CB531"/>
</g>
<defs>
<clipPath id="clip0_42_26642">
<rect width="343" height="160" fill="white"/>
</clipPath>
</defs>
</svg>
