<svg width="24" height="24" viewBox="0 0 24 24" fill="none" xmlns="http://www.w3.org/2000/svg">
<path d="M12.0001 5.71875C16.1293 5.71875 19.4766 9.06609 19.4766 13.1953V18.6562C19.4766 18.8552 19.3976 19.0459 19.257 19.1866C19.1163 19.3272 18.9256 19.4062 18.7266 19.4062H5.27353C5.07462 19.4062 4.88386 19.3272 4.7432 19.1866C4.60255 19.0459 4.52353 18.8552 4.52353 18.6562V13.1953C4.52353 9.06609 7.87088 5.71875 12.0001 5.71875ZM11.3438 1.59375H12.6563C12.7061 1.59375 12.7538 1.6135 12.7889 1.64867C12.8241 1.68383 12.8438 1.73152 12.8438 1.78125V4.03125C12.8438 4.08098 12.8241 4.12867 12.7889 4.16383C12.7538 4.199 12.7061 4.21875 12.6563 4.21875H11.3438C11.2941 4.21875 11.2464 4.199 11.2113 4.16383C11.1761 4.12867 11.1563 4.08098 11.1563 4.03125V1.78125C11.1563 1.73152 11.1761 1.68383 11.2113 1.64867C11.2464 1.6135 11.2941 1.59375 11.3438 1.59375ZM4.15439 4.49203C4.17181 4.4746 4.19249 4.46077 4.21525 4.45133C4.23801 4.4419 4.26241 4.43704 4.28705 4.43704C4.31169 4.43704 4.33609 4.4419 4.35885 4.45133C4.38161 4.46077 4.40229 4.4746 4.41971 4.49203L6.01064 6.08297C6.04578 6.11813 6.06552 6.1658 6.06552 6.21551C6.06552 6.26521 6.04578 6.31289 6.01064 6.34805L5.08252 7.27617C5.04736 7.31131 4.99969 7.33105 4.94998 7.33105C4.90027 7.33105 4.8526 7.31131 4.81744 7.27617L3.2265 5.68523C3.19137 5.65007 3.17163 5.6024 3.17163 5.5527C3.17163 5.50299 3.19137 5.45532 3.2265 5.42016L4.15463 4.49203H4.15439ZM19.8481 4.49203L20.7763 5.42016C20.8113 5.45531 20.831 5.50293 20.831 5.55258C20.831 5.60223 20.8113 5.64985 20.7763 5.685L19.1853 7.27641C19.1679 7.29384 19.1472 7.30767 19.1245 7.3171C19.1017 7.32654 19.0773 7.3314 19.0527 7.3314C19.028 7.3314 19.0036 7.32654 18.9809 7.3171C18.9581 7.30767 18.9374 7.29384 18.92 7.27641L17.9919 6.34828C17.9745 6.33087 17.9606 6.31019 17.9512 6.28743C17.9417 6.26466 17.9369 6.24027 17.9369 6.21563C17.9369 6.19098 17.9417 6.16659 17.9512 6.14382C17.9606 6.12106 17.9745 6.10038 17.9919 6.08297L19.5831 4.49203C19.6182 4.45689 19.6659 4.43716 19.7156 4.43716C19.7653 4.43716 19.813 4.45689 19.8481 4.49203ZM4.5001 20.9062H19.5001C19.699 20.9062 19.8898 20.9853 20.0304 21.1259C20.1711 21.2666 20.2501 21.4573 20.2501 21.6562V22.2188C20.2501 22.2685 20.2303 22.3162 20.1952 22.3513C20.16 22.3865 20.1123 22.4062 20.0626 22.4062H3.9376C3.88787 22.4062 3.84018 22.3865 3.80502 22.3513C3.76985 22.3162 3.7501 22.2685 3.7501 22.2188V21.6562C3.7501 21.4573 3.82912 21.2666 3.96977 21.1259C4.11042 20.9853 4.30119 20.9062 4.5001 20.9062ZM7.96884 13.4766V19.4062H9.46884V13.4766H7.96884Z" fill="#333333" fill-opacity="0.3"/>
</svg>
