<svg width="24" height="24" viewBox="0 0 24 24" fill="none" xmlns="http://www.w3.org/2000/svg">
<path d="M10 5C10.0025 5.30397 10.0757 5.60319 10.2139 5.87396C10.352 6.14473 10.5513 6.37961 10.796 6.56L5.5 9.986H3.997C3.46736 9.986 2.95942 10.1964 2.58491 10.5709C2.2104 10.9454 2 11.4534 2 11.983V20.006C2 20.5356 2.2104 21.0436 2.58491 21.4181C2.95942 21.7926 3.46736 22.003 3.997 22.003H19.997C20.5283 22.0027 21.0378 21.7915 21.4134 21.4157C21.789 21.0399 22 20.5303 22 19.999V11.983C22 11.4534 21.7896 10.9454 21.4151 10.5709C21.0406 10.1964 20.5326 9.986 20.003 9.986H18.512L13.21 6.555C13.453 6.37454 13.6507 6.14019 13.7878 5.87038C13.9249 5.60056 13.9975 5.30263 14 5C13.9951 4.65141 13.9006 4.30996 13.7254 4.00853C13.5503 3.7071 13.3004 3.45585 13 3.279V2H12V4C12.1978 4 12.3911 4.05865 12.5556 4.16853C12.72 4.27841 12.8482 4.43459 12.9239 4.61732C12.9996 4.80004 13.0194 5.00111 12.9808 5.19509C12.9422 5.38907 12.847 5.56725 12.7071 5.70711C12.5673 5.84696 12.3891 5.9422 12.1951 5.98079C12.0011 6.01937 11.8 5.99957 11.6173 5.92388C11.4346 5.84819 11.2784 5.72002 11.1685 5.55557C11.0586 5.39112 11 5.19778 11 5H10ZM11.995 6.974L12 6.975L12.017 6.973L16.672 9.986H7.342L11.995 6.974ZM7 18C7 18.2652 6.89464 18.5196 6.70711 18.7071C6.51957 18.8946 6.26522 19 6 19C5.73478 19 5.48043 18.8946 5.29289 18.7071C5.10536 18.5196 5 18.2652 5 18V14C5 13.7348 5.10536 13.4804 5.29289 13.2929C5.48043 13.1054 5.73478 13 6 13C6.26522 13 6.51957 13.1054 6.70711 13.2929C6.89464 13.4804 7 13.7348 7 14V18ZM11 18C11 18.2652 10.8946 18.5196 10.7071 18.7071C10.5196 18.8946 10.2652 19 10 19C9.73478 19 9.48043 18.8946 9.29289 18.7071C9.10536 18.5196 9 18.2652 9 18V14C9 13.7348 9.10536 13.4804 9.29289 13.2929C9.48043 13.1054 9.73478 13 10 13C10.2652 13 10.5196 13.1054 10.7071 13.2929C10.8946 13.4804 11 13.7348 11 14V18ZM15 18C15 18.2652 14.8946 18.5196 14.7071 18.7071C14.5196 18.8946 14.2652 19 14 19C13.7348 19 13.4804 18.8946 13.2929 18.7071C13.1054 18.5196 13 18.2652 13 18V14C13 13.7348 13.1054 13.4804 13.2929 13.2929C13.4804 13.1054 13.7348 13 14 13C14.2652 13 14.5196 13.1054 14.7071 13.2929C14.8946 13.4804 15 13.7348 15 14V18ZM19 18C19 18.2652 18.8946 18.5196 18.7071 18.7071C18.5196 18.8946 18.2652 19 18 19C17.7348 19 17.4804 18.8946 17.2929 18.7071C17.1054 18.5196 17 18.2652 17 18V14C17 13.7348 17.1054 13.4804 17.2929 13.2929C17.4804 13.1054 17.7348 13 18 13C18.2652 13 18.5196 13.1054 18.7071 13.2929C18.8946 13.4804 19 13.7348 19 14V18Z" fill="#333333" fill-opacity="0.3"/>
</svg>
