<svg width="24" height="24" viewBox="0 0 24 24" fill="none" xmlns="http://www.w3.org/2000/svg">
<path d="M22.8694 7.99688C22.6241 7.43657 22.2716 6.92967 21.8317 6.50475C21.3875 6.07461 20.8651 5.73336 20.2927 5.49937C19.6946 5.25444 19.0543 5.12908 18.408 5.13037C17.7544 5.13037 17.1199 5.2545 16.5233 5.49937C15.9507 5.73304 15.4283 6.07433 14.9843 6.50475C14.5439 6.92928 14.1913 7.43627 13.9466 7.99688C13.6943 8.57289 13.5645 9.19503 13.5652 9.82388V18.5557C13.5652 20.4045 12.0146 21.9086 10.1074 21.9086C8.2005 21.9086 6.64875 20.4041 6.64875 18.5557V14.5324H7.7415C7.97137 14.5324 8.157 14.3528 8.157 14.13V12.6405C9.3525 11.9246 10.149 10.6425 10.149 9.18038V7.48987H10.7509C10.9796 7.48987 11.1656 7.31025 11.1656 7.0875V5.5185C11.1656 5.3325 11.0359 5.17575 10.8596 5.13H8.427V1.15237C8.42813 0.930375 8.24213 0.75 8.01263 0.75H7.4595C7.22963 0.75 7.04437 0.930375 7.04437 1.15237V5.13H4.87238V1.15237C4.87238 0.930375 4.68637 0.75 4.45725 0.75H3.90375C3.675 0.75 3.489 0.930375 3.489 1.15237V5.13H1.05675C0.969796 5.15174 0.89251 5.20171 0.837 5.27208C0.78149 5.34245 0.750892 5.42925 0.75 5.51888V7.0875C0.75 7.31025 0.936 7.48987 1.16438 7.48987H1.76662V9.18038C1.76662 10.6429 2.56237 11.9243 3.75862 12.6405V14.13C3.75862 14.3528 3.94388 14.5324 4.173 14.5324H5.26613V18.5557C5.26613 19.1895 5.39475 19.8041 5.64675 20.3831C5.8917 20.9436 6.24423 21.4505 6.68438 21.8752C7.12842 22.3058 7.65084 22.6474 8.22338 22.8814C8.82038 23.1262 9.45525 23.25 10.1081 23.25C10.761 23.25 11.3966 23.1262 11.9929 22.8814C12.5655 22.6477 13.0878 22.3061 13.5315 21.8752C13.9724 21.4511 14.3251 20.944 14.5695 20.3831C14.8217 19.807 14.9515 19.1847 14.9505 18.5557V9.82388C14.9505 7.9755 16.5011 6.471 18.4088 6.471C20.3156 6.471 21.8674 7.97588 21.8674 9.82388V23.25H23.25V9.82388C23.25 9.19088 23.1214 8.5755 22.8694 7.99688Z" fill="#333333" fill-opacity="0.3"/>
</svg>
